<?xml version="1.0" encoding="utf-8"?>
<!-- Generator: Adobe Illustrator 15.0.2, SVG Export Plug-In . SVG Version: 6.00 Build 0)  -->
<!DOCTYPE svg PUBLIC "-//W3C//DTD SVG 1.1//EN" "http://www.w3.org/Graphics/SVG/1.1/DTD/svg11.dtd">
<svg version="1.1" id="Capa_1" xmlns="http://www.w3.org/2000/svg" xmlns:xlink="http://www.w3.org/1999/xlink" x="0px" y="0px"
	 width="256px" height="256px" viewBox="0 0 256 256" enable-background="new 0 0 256 256" xml:space="preserve">
<polygon opacity="0.44" fill="#1A171B" points="53.703,160.757 48.575,148.748 0.154,217.438 28.96,247.699 118.98,255.385 
	200.236,241.936 "/>
<polygon fill="#0D3082" points="21.997,208.312 118.98,241.936 97.294,97.8 "/>
<polygon fill="#0A71B3" points="161.793,192.939 97.294,97.8 118.98,241.936 "/>
<polygon fill="#37A8DB" points="200.236,241.936 161.793,192.939 118.98,241.936 "/>
<polygon fill="#82CFEF" points="234.312,192.939 200.236,241.936 161.793,192.939 "/>
<polygon fill="#B7E1F5" points="208.1,135.299 234.312,192.939 161.793,192.939 "/>
<polygon fill="#37A8DB" points="234.312,153.552 208.1,135.299 234.312,192.939 "/>
<polygon fill="#37A8DB" points="159.608,154.513 161.793,192.939 97.294,97.8 "/>
<polygon fill="#0D3082" points="208.1,135.299 159.608,154.513 161.793,192.939 "/>
<polygon fill="#13235B" points="48.575,148.748 21.997,208.312 97.294,97.8 "/>
<polygon fill="#0A71B3" points="159.608,-0.281 97.294,97.8 159.608,154.513 "/>
<polygon fill="#B7E1F5" points="183.854,123.77 159.608,-0.281 208.1,135.299 "/>
<polygon fill="#82CFEF" points="159.608,154.513 183.854,123.77 208.1,135.299 "/>
<polygon fill="#37A8DB" points="159.608,-0.281 183.854,123.77 159.608,154.513 "/>
<polygon fill="#0D3082" points="48.575,148.748 159.608,-0.281 97.294,97.8 "/>
<polygon fill="#82CFEF" points="256.154,198.854 234.312,153.552 234.312,192.939 "/>
<polygon fill="#37A8DB" points="200.236,241.936 256.154,198.854 234.312,192.939 "/>
</svg>
