<?xml version="1.0" encoding="utf-8"?>
<!-- Generator: Adobe Illustrator 15.0.2, SVG Export Plug-In . SVG Version: 6.00 Build 0)  -->
<!DOCTYPE svg PUBLIC "-//W3C//DTD SVG 1.1//EN" "http://www.w3.org/Graphics/SVG/1.1/DTD/svg11.dtd">
<svg version="1.1" id="Capa_1" xmlns="http://www.w3.org/2000/svg" xmlns:xlink="http://www.w3.org/1999/xlink" x="0px" y="0px"
	 width="400px" height="250px" viewBox="0 0 400 250" enable-background="new 0 0 400 250" xml:space="preserve">
<polygon fill="#F7B235" points="201.058,54.583 202.932,51.692 216.295,65.354 "/>
<polygon fill="#7C4D24" points="218.091,64.854 223.076,68.492 209.715,67.894 "/>
<polygon fill="#41281A" points="210.113,66.452 218.091,64.854 209.715,67.894 "/>
<g>
	<g>
		<g>
			<path fill="#302D30" d="M205.026,68.492c3.059,0.392,5.07,0.667,8.611,0.609l2.09,0l1.458,0.027l1.093,0.036l1.235,0.059
				c0.835,0.045,1.692,0.105,2.566,0.182c1.749,0.154,3.57,0.376,5.425,0.693c0.928,0.159,1.863,0.34,2.803,0.549
				c0.489,0.111,0.905,0.202,1.308,0.342c0.408,0.139,0.807,0.315,1.195,0.521c1.559,0.829,2.919,2.189,4.145,3.703
				c1.229,1.52,2.344,3.195,3.456,4.865c2.207,3.354,4.453,6.687,6.925,9.485c2.453,2.812,5.092,5.082,7.524,6.715
				c2.43,1.646,4.615,2.694,6.152,3.353c1.541,0.656,2.439,0.944,2.438,0.949c-0.003-0.033,3.541,1.415,9.3,2.195
				c1.437,0.194,3.005,0.35,4.677,0.442c0.836,0.047,1.697,0.081,2.58,0.095l1.34,0.014c0.43,0.002,0.863,0.01,1.301,0.028
				c3.496,0.138,7.255,0.934,10.688,2.672c3.443,1.712,6.494,4.34,8.889,7.367c1.203,1.51,2.257,3.111,3.172,4.734
				c0.459,0.812,0.883,1.628,1.275,2.444l0.566,1.221l0.49,1.139c0.889,2.137,1.464,3.956,1.745,4.864
				c1.001,3.367,1.813,5.207,2.96,8.067c0.33-3.072,0.281-5.231-0.727-8.745c-0.283-0.949-0.878-2.846-1.808-5.087l-0.515-1.195
				l-0.595-1.284c-0.413-0.858-0.86-1.72-1.346-2.579c-0.969-1.718-2.09-3.423-3.382-5.044c-2.565-3.246-5.893-6.123-9.674-8
				c-3.77-1.907-7.885-2.769-11.643-2.915c-0.472-0.02-0.938-0.028-1.397-0.03l-1.299-0.013c-0.854-0.014-1.687-0.045-2.492-0.091
				c-1.612-0.088-3.119-0.237-4.494-0.422c-5.513-0.746-8.837-2.109-8.837-2.078c0.002-0.004-0.847-0.277-2.294-0.894
				c-1.444-0.62-3.489-1.603-5.76-3.143c-2.274-1.531-4.743-3.65-7.073-6.324c-2.35-2.662-4.518-5.87-6.732-9.239
				c-1.118-1.679-2.259-3.401-3.586-5.045c-1.326-1.63-2.873-3.23-4.863-4.298c-0.495-0.262-1.011-0.491-1.543-0.672
				c-0.536-0.186-1.088-0.306-1.557-0.412c-0.98-0.218-1.954-0.407-2.918-0.572c-1.927-0.329-3.81-0.558-5.614-0.716
				c-0.902-0.079-1.785-0.14-2.645-0.187l-1.271-0.06l-1.124-0.036l-1.497-0.025l-2.146,0.012
				C209.976,66.862,207.918,67.402,205.026,68.492z"/>
		</g>
	</g>
</g>
<g>
	<g>
		<g>
			<path fill="#302D30" d="M196.964,70.087c3.035,0.556,5.052,0.891,8.604,0.912c0.729,0.008,2.013,0.022,3.61,0.085
				c2.397,0.095,5.304,0.29,8.25,0.75c2.92,0.468,5.976,1.195,8.161,2.529c0.536,0.333,1.013,0.698,1.378,1.094
				c0.356,0.39,0.729,0.907,1.021,1.364c0.599,0.944,1.018,1.886,1.336,2.697c0.623,1.63,0.894,2.715,0.903,2.708l0.684,2.444
				c0.46,1.531,0.976,3.793,2.396,6.216c0.717,1.194,1.732,2.391,3.035,3.277c1.294,0.898,2.808,1.471,4.308,1.787
				c0.371,0.08,0.764,0.145,1.116,0.201l1.005,0.172c0.665,0.126,1.32,0.274,1.961,0.441c1.281,0.334,2.501,0.745,3.621,1.191
				c2.144,0.85,3.802,1.786,4.618,2.26c1.497,0.876,2.669,1.572,3.818,2.208c1.145,0.645,2.277,1.21,3.587,2.021
				c-0.78-1.337-1.588-2.385-2.54-3.377c-0.961-0.986-2.093-1.912-3.682-2.863c-0.864-0.514-2.632-1.519-4.932-2.433
				c-1.202-0.479-2.515-0.922-3.897-1.282c-0.69-0.181-1.399-0.341-2.118-0.477l-1.086-0.185c-0.348-0.055-0.656-0.106-0.98-0.175
				c-1.277-0.27-2.477-0.736-3.466-1.422c-0.997-0.677-1.771-1.581-2.363-2.559c-1.173-1.976-1.706-4.124-2.149-5.63l-0.694-2.47
				c-0.013,0.002-0.28-1.102-0.967-2.904c-0.351-0.897-0.823-1.972-1.534-3.098c-0.369-0.572-0.742-1.111-1.286-1.711
				c-0.544-0.588-1.184-1.071-1.857-1.49c-2.726-1.642-5.955-2.347-9.028-2.856c-3.086-0.483-6.069-0.68-8.525-0.775
				c-1.636-0.062-2.944-0.072-3.688-0.073C201.962,68.681,199.909,69.155,196.964,70.087z"/>
		</g>
	</g>
</g>
<polygon fill="#F5F5F6" points="396.153,188.817 371.671,146.333 353.122,134.965 "/>
<polygon fill="#C5C5C7" points="374.639,178.644 389.621,188.817 396.153,188.817 "/>
<polygon fill="#C5C5C7" points="356.712,155.309 374.639,178.644 396.153,188.817 "/>
<polygon fill="#D8D9D9" points="356.712,155.309 353.122,134.965 396.153,188.817 "/>
<polygon fill="#F5F5F6" points="353.122,134.965 347.935,122.597 336.565,111.684 "/>
<path fill="#D8D9D9" d="M297.074,93.875c0.599,0.399,25.729,7.579,25.729,7.579l14.759,10.971L297.074,93.875z"/>
<polygon fill="#707072" points="337.562,121.401 336.565,116.215 353.122,134.965 "/>
<polygon fill="#D8D9D9" points="336.565,111.684 336.565,116.215 353.122,134.965 "/>
<polygon fill="#868788" points="295.078,99.061 297.074,107.638 297.074,93.875 "/>
<polygon fill="#D8D9D9" points="336.565,116.215 297.074,93.875 336.565,111.684 "/>
<polygon fill="#C5C5C7" points="337.562,121.401 297.074,93.875 336.565,116.215 "/>
<polygon fill="#9B9B9D" points="297.074,107.638 313.528,138.853 297.074,93.875 "/>
<polygon fill="#B0B2B3" points="335.567,133.966 313.528,138.853 297.074,93.875 "/>
<polygon fill="#9B9B9D" points="349.031,161.292 335.567,133.966 313.528,138.853 "/>
<polygon fill="#868788" points="349.031,161.292 374.639,178.644 356.712,155.309 "/>
<path fill="#B0B2B3" d="M335.567,133.966c0.501,0.598,21.145,21.343,21.145,21.343l-7.681,5.983L335.567,133.966z"/>
<polygon fill="#B0B2B3" points="335.567,133.966 337.562,121.401 297.074,93.875 "/>
<polygon fill="#D8D9D9" points="335.567,133.966 353.122,134.965 337.562,121.401 "/>
<polygon fill="#EAEBEC" points="335.567,133.966 356.712,155.309 353.122,134.965 "/>
<polygon fill="#F5F5F6" points="272.94,243.865 295.078,222.624 301.661,166.976 "/>
<polygon fill="#D8D9D9" points="282.814,243.865 295.078,222.624 272.94,243.865 "/>
<polygon fill="#EAEBEC" points="255.622,201.068 301.661,166.976 272.94,243.865 "/>
<polygon fill="#C5C5C7" points="228.062,152.019 301.661,166.976 255.622,201.068 "/>
<polygon fill="#D8D9D9" points="306.748,138.853 301.661,166.976 228.062,152.019 "/>
<polygon fill="#EAEBEC" points="289.395,107.638 306.748,138.853 228.062,152.019 "/>
<path fill="#F5F5F6" d="M205.026,96.668c1.496,0.299,84.368,10.97,84.368,10.97l-61.332,44.38L205.026,96.668z"/>
<polygon fill="#FFFFFF" points="253.193,96.668 205.026,96.668 289.395,107.638 "/>
<polygon fill="#707072" points="289.395,107.638 313.528,138.853 306.748,138.853 "/>
<polygon fill="#3E3D3F" points="289.395,107.638 297.074,107.638 313.528,138.853 "/>
<polygon fill="#D8D9D9" points="144.092,99.462 205.026,96.668 228.062,152.019 "/>
<polygon fill="#3E3D3F" points="161.444,187.222 228.062,152.019 228.062,165.283 "/>
<polygon fill="#868788" points="255.622,201.068 228.062,165.283 228.062,152.019 "/>
<polygon fill="#EAEBEC" points="100.013,117.414 144.092,99.462 82.859,138.853 "/>
<polygon fill="#D8D9D9" points="116.168,129.827 82.859,138.853 144.092,99.462 "/>
<polygon fill="#C5C5C7" points="154.463,152.019 228.062,152.019 144.092,99.462 "/>
<polygon fill="#D8D9D9" points="132.125,142.344 154.463,152.019 144.092,99.462 "/>
<polygon fill="#C5C5C7" points="116.168,129.827 132.125,142.344 144.092,99.462 "/>
<polygon fill="#C5C5C7" points="85.852,145.937 82.859,138.853 116.168,129.827 "/>
<polygon fill="#9B9B9D" points="100.611,143.741 85.852,145.937 116.168,129.827 "/>
<polygon fill="#868788" points="113.476,149.924 116.168,129.827 100.611,143.741 "/>
<polygon fill="#57575A" points="113.476,149.924 132.125,142.344 116.168,129.827 "/>
<polygon fill="#707072" points="125.344,172.661 132.125,142.344 113.476,149.924 "/>
<polygon fill="#57575A" points="154.463,152.019 125.344,172.661 132.125,142.344 "/>
<polygon fill="#707072" points="175.008,166.976 228.062,152.019 154.463,152.019 "/>
<polygon fill="#57575A" points="161.444,187.222 175.008,166.976 228.062,152.019 "/>
<polygon fill="#B0B2B3" points="154.463,152.019 161.444,187.222 175.008,166.976 "/>
<polygon fill="#F5F5F6" points="138.108,198.19 161.444,187.222 154.463,152.019 "/>
<polygon fill="#C5C5C7" points="138.108,198.19 151.372,199.587 161.444,187.222 "/>
<polygon fill="#EAEBEC" points="125.344,172.661 138.108,198.19 154.463,152.019 "/>
<polygon fill="#F5F5F6" points="122.8,192.406 125.344,172.661 138.108,198.19 "/>
<polygon fill="#D8D9D9" points="108.39,221.727 122.8,192.406 138.108,198.19 "/>
<polygon fill="#9B9B9D" points="186.077,179.109 186.975,210.758 194.753,218.736 "/>
<polygon fill="#9B9B9D" points="222.919,166.976 218.29,183.632 194.753,218.736 "/>
<polygon fill="#3E3D3F" points="186.077,179.109 204.011,173.205 194.753,218.736 "/>
<polygon fill="#B0B2B3" points="122.8,192.406 116.168,198.19 108.39,221.727 "/>
<polygon fill="#C79C63" points="109.438,200.56 116.168,198.19 108.39,221.727 "/>
<path fill="#C5C5C7" d="M96.023,218.736"/>
<polygon fill="#A28878" points="104.001,209.959 109.438,200.56 108.39,221.727 "/>
<polygon fill="#CABA9C" points="93.829,218.736 104.001,209.959 108.39,221.727 "/>
<polygon fill="#5F4C3F" points="93.829,233.246 108.39,221.727 93.829,227.484 "/>
<polygon fill="#786854" points="82.062,233.246 93.829,227.484 93.829,233.246 "/>
<polygon fill="#A28878" points="108.39,221.727 88.843,223.722 93.829,227.484 "/>
<polygon fill="#CABA9C" points="82.062,233.246 88.843,223.722 93.829,227.484 "/>
<polygon fill="#A28878" points="77.275,216.942 93.829,218.736 80.266,219.734 "/>
<polygon fill="#CABA9C" points="70.693,226.315 77.275,216.942 80.266,219.734 "/>
<polygon fill="#CABA9C" points="82.062,221.627 88.843,223.722 75.479,230.366 "/>
<polygon fill="#A28878" points="98.616,219.734 82.062,221.627 88.843,223.722 "/>
<polygon fill="#41281A" points="75.479,230.366 84.112,230.366 88.843,223.722 "/>
<polygon fill="#41281A" points="98.616,219.734 108.39,221.727 88.843,223.722 "/>
<polygon fill="#905E35" points="70.693,226.315 82.062,221.627 80.266,219.734 "/>
<polygon fill="#663A16" points="93.829,218.736 80.266,219.734 82.062,221.627 "/>
<polygon fill="#41281A" points="93.829,218.736 98.616,219.734 82.062,221.627 "/>
<polygon fill="#41281A" points="79.44,225.107 70.693,226.315 82.062,221.627 "/>
<polygon fill="#CABA9C" points="95.526,181.039 91.262,197.118 77.275,196.445 "/>
<polygon fill="#CABA9C" points="66.953,206.318 61.718,203.401 66.953,201.607 "/>
<polygon fill="#CABA9C" points="71.366,203.701 77.275,196.445 66.953,201.607 "/>
<polygon fill="#CABA9C" points="76.377,208.188 66.953,210.732 65.832,214.845 "/>
<polygon fill="#CABA9C" points="91.262,197.118 76.377,208.188 77.275,203.625 "/>
<polygon fill="#CABA9C" points="66.953,206.318 71.366,203.701 77.275,203.625 "/>
<path fill="#CABA9C" d="M125.344,172.661"/>
<polygon fill="#B0B2B3" points="115.122,176.773 110.858,187.222 125.344,172.661 "/>
<polygon fill="#C5C5C7" points="105.101,175.105 115.122,176.773 91.262,197.118 "/>
<polygon fill="#B0B2B3" points="104.001,191.583 110.858,187.222 115.122,176.773 "/>
<polygon fill="#D8D9D9" points="91.262,197.118 104.001,191.583 115.122,176.773 "/>
<polygon fill="#C79C63" points="65.458,216.641 65.832,214.845 76.377,208.188 "/>
<polygon fill="#C79C63" points="66.953,201.607 71.366,203.701 66.953,206.318 "/>
<polygon fill="#C79C63" points="77.275,196.445 91.262,197.118 77.275,203.625 "/>
<polygon fill="#C79C63" points="66.953,210.732 77.275,203.625 76.377,208.188 "/>
<polygon fill="#A28878" points="77.275,196.445 77.275,203.625 71.366,203.701 "/>
<polygon fill="#5F4C3F" points="80.566,209.236 104.001,191.583 91.262,197.118 "/>
<polygon fill="#5F4C3F" points="65.458,216.641 80.566,209.236 76.377,208.188 "/>
<polygon fill="#786854" points="80.566,209.236 91.262,197.118 76.377,208.188 "/>
<polygon fill="#707072" points="110.858,187.222 122.8,192.406 125.344,172.661 "/>
<polygon fill="#57575A" points="204.011,173.205 222.919,166.976 194.753,218.736 "/>
<polygon fill="#868788" points="95.526,181.039 105.101,175.105 91.262,197.118 "/>
<polygon fill="#EFAC32" points="174.21,91.982 183.485,76.224 186.077,81.51 "/>
<polygon fill="#EFB380" points="168.228,85.4 174.21,91.982 183.485,76.224 "/>
<polygon fill="#EFB380" points="197.547,93.876 186.077,81.51 174.21,91.982 "/>
<g>
	<polygon fill="#96BD0D" points="16.941,51.789 109.561,47.9 26.216,74.128 	"/>
	<polygon fill="#96BD0D" points="185.978,43.921 109.561,47.9 138.108,49.597 	"/>
	<polygon fill="#DEDA03" points="169.826,52.99 138.108,49.597 185.978,43.921 	"/>
	<polygon fill="#DEDA03" points="26.216,74.128 138.108,49.597 109.561,47.9 	"/>
	<polygon fill="#DEDA03" points="14.548,44.012 16.941,51.789 109.561,47.9 	"/>
	<polygon fill="#172559" points="10.359,55.18 20.632,91.283 16.941,51.789 	"/>
	<polygon fill="#172559" points="13.65,50.194 10.359,55.18 16.941,51.789 	"/>
	<polygon fill="#070D0F" points="13.65,50.194 14.548,44.012 16.941,51.789 	"/>
	<polygon fill="#40A42C" points="10.858,83.106 17.749,81.15 20.632,91.283 	"/>
	<polygon fill="#0471B2" points="2.68,86.039 10.858,83.106 10.858,87.893 	"/>
	<polygon fill="#172559" points="10.858,87.893 20.632,91.283 10.858,83.106 	"/>
	<polygon fill="#093280" points="20.632,91.283 21.13,75.127 16.941,51.789 	"/>
	<polygon fill="#36A7DA" points="139.979,52.99 20.632,91.283 26.216,74.128 	"/>
	<polygon fill="#093280" points="138.108,49.597 139.979,52.99 26.216,74.128 	"/>
	<polygon fill="#093280" points="142.221,57.28 167.232,63.162 139.979,52.99 	"/>
	<polygon fill="#080614" points="169.826,52.99 167.232,63.162 138.108,49.597 	"/>
	<polygon fill="#172559" points="138.108,49.597 167.232,63.162 139.979,52.99 	"/>
	<polygon fill="#E97EAA" points="162.542,8.609 169.826,6.714 177.408,22.183 	"/>
	<polygon fill="#E20A6F" points="180.992,33.94 177.408,22.183 162.542,8.609 	"/>
	<polygon fill="#622580" points="171.218,44.689 168.826,26.461 175.902,38.932 	"/>
	<polygon fill="#D20050" points="162.542,8.609 168.826,26.461 180.992,33.94 	"/>
	<polygon fill="#E97EAA" points="180.992,43.921 180.992,33.94 175.902,38.932 	"/>
	<polygon fill="#F7CDDE" points="185.978,32.044 185.978,43.215 180.992,43.921 180.992,33.94 	"/>
	<polygon fill="#95506F" points="171.218,44.689 180.992,43.921 175.902,38.932 	"/>
	<polygon fill="#E97EAA" points="185.978,32.044 177.408,22.183 180.992,33.94 	"/>
	<polygon fill="#E0027A" points="169.826,6.714 185.978,32.044 177.408,22.183 	"/>
	<polygon fill="#F7B235" points="185.978,43.215 185.978,43.921 180.992,43.921 	"/>
	<polygon fill="#B28329" points="201.058,54.583 197.547,59.625 216.295,65.354 	"/>
	<polygon fill="#6F531A" points="210.113,66.452 197.547,59.625 216.295,65.354 	"/>
	<polygon fill="#BA882C" points="185.978,43.921 202.932,51.692 201.058,54.583 	"/>
	<polygon fill="#C38E2C" points="187.573,54.583 197.547,59.625 201.058,54.583 	"/>
	<polygon fill="#F4AF32" points="185.978,43.921 187.573,54.583 201.058,54.583 	"/>
	<polygon fill="#D79B2E" points="183.485,76.224 187.573,54.583 185.978,43.921 	"/>
	<polyline fill="#C58F2D" points="186.077,81.51 183.485,76.224 187.573,54.583 	"/>
	<polygon fill="#A37926" points="177.408,54.583 183.485,76.224 185.978,43.921 	"/>
	<polygon fill="#7E5D1D" points="169.826,52.99 177.408,54.583 185.978,43.921 	"/>
	<polygon fill="#574021" points="166.032,80.114 177.408,54.583 167.232,63.162 	"/>
	<polygon fill="#382B11" points="169.826,52.99 177.408,54.583 167.232,63.162 	"/>
	<polygon fill="#382B11" points="166.032,80.114 177.901,77.721 177.408,54.583 	"/>
	<polygon fill="#5D4417" points="177.901,77.721 183.485,76.224 177.408,54.583 	"/>
	<polygon fill="#5D4417" points="187.057,63.863 195.353,66.452 186.736,69.635 	"/>
	<polygon fill="#F7B235" points="205.524,66.152 195.353,66.452 186.736,69.635 	"/>
	<polygon fill="#463514" points="186.736,72.435 199.541,69.635 196.964,67.738 	"/>
	<polygon fill="#AD8029" points="196.964,67.738 186.736,69.635 186.736,72.435 	"/>
	<polygon fill="#7C5A1D" points="209.715,67.349 199.541,69.635 196.964,67.738 	"/>
	<polygon fill="#AD8029" points="205.524,66.152 209.715,67.349 196.964,67.738 	"/>
	<polygon fill="#41281A" points="161.545,87.195 166.032,80.114 177.901,77.721 	"/>
	<polygon fill="#7C4D24" points="177.901,77.721 168.228,85.4 161.545,87.195 	"/>
	<polygon fill="#C79C63" points="177.901,77.721 183.485,76.224 168.228,85.4 	"/>
	<polygon fill="#41281A" points="163.963,62.393 166.703,70.646 167.232,63.162 	"/>
	<polygon fill="#172559" points="16.941,51.789 26.216,74.128 21.13,75.127 	"/>
	<polygon fill="#0471B2" points="26.216,74.128 20.632,91.283 21.13,75.127 	"/>
	<polygon fill="#009E94" points="23.498,89.691 142.221,57.28 139.979,52.99 	"/>
	<polygon fill="#9F0E59" points="180.992,33.94 175.902,38.932 168.826,26.461 	"/>
	<polygon fill="#9F0E59" points="151.273,76.224 153.605,73.434 161.545,87.195 	"/>
	<polygon fill="#BD0C27" points="153.605,73.434 163.03,84.853 161.545,87.195 	"/>
	<polygon fill="#C79C63" points="218.341,141.545 206.223,132.719 199.541,139.004 	"/>
	<polygon fill="#905E35" points="191.851,137.955 194.315,132.719 206.223,132.719 	"/>
	<polygon fill="#AF7F48" points="206.223,132.719 199.541,139.004 191.851,137.955 	"/>
	<polygon fill="#AF7F48" points="203.338,120.603 194.315,132.719 206.223,132.719 	"/>
	<polygon fill="#C79C63" points="194.454,109.833 196.13,130.282 203.338,120.603 	"/>
	<polygon fill="#AF7F48" points="205.524,102.353 203.338,120.603 194.454,109.833 	"/>
	<polygon fill="#C79C63" points="197.547,93.876 205.524,102.353 194.454,109.833 	"/>
	<polygon fill="#AF7F48" points="181.693,99.062 194.454,109.833 197.547,93.876 	"/>
	<polygon fill="#905E35" points="159.7,91.283 169.826,97.865 168.228,85.4 	"/>
	<polygon fill="#7C4D24" points="181.693,99.062 174.21,91.982 169.826,97.865 	"/>
	<polygon fill="#C79C63" points="197.547,93.876 174.21,91.982 181.693,99.062 	"/>
	<polygon fill="#663A16" points="161.545,87.195 159.7,91.283 168.228,85.4 	"/>
	<polygon fill="#663A16" points="169.826,97.865 168.228,85.4 174.21,91.982 	"/>
	<polygon fill="#7C4D24" points="194.315,132.719 194.454,109.833 196.13,130.282 	"/>
	<polygon fill="#41281A" points="178.797,101.057 194.454,109.833 181.693,99.062 	"/>
	<polygon fill="#905E35" points="170.452,97.927 178.797,101.057 181.693,99.062 	"/>
	<polygon fill="#36A7DA" points="194.315,90.392 200.27,87.994 206.921,93.876 	"/>
	<polygon fill="#0471B2" points="201.733,86.698 206.921,93.876 200.27,87.994 	"/>
	<polygon fill="#0471B2" points="206.921,93.876 201.733,86.698 209.715,87.694 	"/>
	<polygon fill="#36A7DA" points="215.297,94.976 209.715,87.694 206.921,93.876 	"/>
	<polygon fill="#093280" points="209.213,107.342 215.297,94.976 206.921,93.876 	"/>
	<polygon fill="#0471B2" points="194.315,90.392 197.547,93.876 206.921,93.876 	"/>
	<polygon fill="#36A7DA" points="205.524,102.353 206.921,93.876 197.547,93.876 	"/>
	<polygon fill="#172559" points="204.678,109.431 209.213,107.342 205.524,102.353 	"/>
	<polygon fill="#093280" points="209.213,107.342 206.921,93.876 205.524,102.353 	"/>
	<polyline fill="#36A7DA" points="159.7,91.283 155.062,93.079 156.234,108.338 156.234,108.338 	"/>
	<polygon fill="#093280" points="194.315,115.419 176.073,119.208 194.454,109.833 	"/>
	<polygon fill="#0471B2" points="178.797,101.057 176.073,119.208 194.454,109.833 	"/>
	<polygon fill="#093280" points="156.234,108.338 169.826,97.865 178.797,101.057 	"/>
	<polygon fill="#0471B2" points="156.234,108.338 159.7,91.283 169.826,97.865 	"/>
	<polygon fill="#172559" points="156.234,108.338 176.073,119.208 178.797,101.057 	"/>
	<line fill="#57575A" x1="191.851" y1="137.955" x2="194.315" y2="132.719"/>
	<path fill="#57575A" d="M188.953,141.545"/>
</g>
<polygon fill="#F7F4C6" points="26.216,74.128 169.826,52.99 139.903,48.456 "/>
</svg>
