<svg version="1.1" id="Capa_2" xmlns="http://www.w3.org/2000/svg" xmlns:xlink="http://www.w3.org/1999/xlink" x="0" y="0" width="400" height="250" viewBox="0 0 400 250" enable-background="new 0 0 400 250" xml:space="preserve"><g><g><g><g><path fill="#302D30" d="M197.571,64.048c2.826,0.197,4.679,0.354,7.92,0.158l1.914-0.08l1.336-0.025l0.986-0.002l1.114,0.016 c0.753,0.017,1.526,0.047,2.315,0.096c1.577,0.097,3.221,0.262,4.894,0.526c0.815,0.129,1.725,0.292,2.479,0.47 c0.729,0.19,1.435,0.524,2.1,0.974c1.336,0.9,2.502,2.222,3.579,3.634c1.077,1.419,2.079,2.943,3.086,4.457 c2.001,3.035,4.057,6.025,6.3,8.542c2.225,2.53,4.618,4.572,6.829,6.036c2.209,1.473,4.203,2.394,5.606,2.964 c1.408,0.566,2.229,0.806,2.227,0.812c-0.005-0.033,3.242,1.219,8.486,1.686c1.307,0.118,2.732,0.186,4.248,0.187 c0.758,0.002,1.538-0.012,2.336-0.045c0.798-0.035,1.537-0.057,2.332-0.029c3.136,0.087,6.5,0.887,9.517,2.589 c3.027,1.68,5.655,4.197,7.736,7.003c1.045,1.402,1.964,2.875,2.771,4.357c0.403,0.741,0.78,1.485,1.13,2.226l0.508,1.108 l0.442,1.033c0.819,1.969,1.367,3.637,1.635,4.47c0.963,3.09,1.747,4.769,2.88,7.364c0.217-2.831,0.131-4.802-0.835-8.011 c-0.271-0.867-0.833-2.599-1.686-4.652l-0.462-1.078l-0.529-1.159c-0.367-0.775-0.762-1.556-1.187-2.336 c-0.85-1.56-1.821-3.118-2.937-4.614c-2.218-2.991-5.069-5.74-8.416-7.597c-3.333-1.882-7.079-2.767-10.499-2.857 c-0.848-0.031-1.718-0.003-2.487,0.031c-0.77,0.032-1.52,0.047-2.247,0.045c-1.454,0-2.816-0.065-4.061-0.176 c-4.992-0.444-8.016-1.616-8.015-1.584c0.034-0.045-3.159-0.798-7.303-3.525c-2.059-1.366-4.294-3.27-6.408-5.675 c-2.133-2.394-4.118-5.274-6.115-8.307c-1.007-1.513-2.023-3.065-3.166-4.571c-1.147-1.495-2.422-2.984-4.091-4.118 c-0.83-0.562-1.768-1.014-2.757-1.271c-0.974-0.23-1.798-0.37-2.691-0.514c-1.751-0.275-3.461-0.447-5.099-0.547 c-0.818-0.05-1.619-0.081-2.398-0.099l-1.152-0.016l-1.018,0.003l-1.379,0.029c-0.843,0.027-1.521,0.064-1.974,0.092 C202.035,62.3,200.166,62.895,197.571,64.048z"/></g></g></g><g><g><g><path fill="#302D30" d="M190.594,65.917c2.812,0.362,4.674,0.58,7.929,0.458c0.668-0.021,1.845-0.057,3.31-0.052 c2.138,0.008,4.732,0.101,7.353,0.473c2.589,0.379,5.32,1.051,7.088,2.376c0.448,0.343,0.759,0.656,1.096,1.105 c0.328,0.432,0.614,0.875,0.865,1.315c0.501,0.879,0.863,1.738,1.146,2.472c0.554,1.475,0.818,2.44,0.825,2.435l0.652,2.177 c0.435,1.363,0.955,3.351,2.171,5.508c0.616,1.064,1.461,2.161,2.592,3.014c1.121,0.862,2.485,1.436,3.846,1.725 c0.683,0.155,1.388,0.22,1.949,0.303c0.594,0.088,1.181,0.198,1.754,0.328c1.146,0.259,2.24,0.597,3.243,0.973 c1.976,0.739,3.503,1.587,4.252,2.018c1.376,0.797,2.45,1.436,3.506,2.02c1.05,0.594,2.088,1.117,3.288,1.866 c-0.712-1.231-1.451-2.197-2.325-3.11c-0.883-0.907-1.924-1.76-3.391-2.629c-0.798-0.47-2.434-1.384-4.571-2.186 c-1.087-0.408-2.274-0.775-3.525-1.058c-0.625-0.142-1.266-0.262-1.917-0.358c-0.683-0.099-1.245-0.149-1.802-0.275 c-1.12-0.239-2.154-0.684-3.001-1.333c-0.853-0.642-1.517-1.486-2.035-2.379c-1.028-1.805-1.557-3.707-1.978-5.046l-0.658-2.188 c-0.01,0.001-0.271-0.973-0.869-2.571c-0.306-0.795-0.704-1.749-1.283-2.77c-0.291-0.51-0.627-1.035-1.021-1.555 c-0.374-0.511-0.936-1.097-1.507-1.519c-2.374-1.738-5.325-2.368-8.081-2.796c-2.778-0.395-5.455-0.486-7.655-0.493 c-1.507-0.002-2.711,0.039-3.395,0.067C195.117,64.389,193.25,64.918,190.594,65.917z"/></g></g></g></g><polygon fill="#9B9B9D" points="186.806,154.065 177.867,193.078 183.778,205.149"/><polygon fill="#9B9B9D" points="230.434,150.13 220.213,169.146 183.778,205.149"/><polygon fill="#3E3D3F" points="186.806,154.065 208.041,152.15 183.778,205.149"/><polygon fill="#57575A" points="208.041,152.15 230.434,150.13 183.778,205.149"/><g><polygon fill="#CABA9C" points="130.241,179.019 131.175,195.039 118.604,198.663"/><polygon fill="#CABA9C" points="112.363,210.836 106.876,209.75 110.983,206.519"/><polygon fill="#CABA9C" points="115.501,207.101 118.604,198.663 110.983,206.519"/><polygon fill="#CABA9C" points="121.248,209.691 113.655,214.878 113.867,218.984"/><polygon fill="#CABA9C" points="131.175,195.039 121.248,209.691 120.706,205.24"/><polygon fill="#CABA9C" points="112.363,210.836 115.501,207.101 120.706,205.24"/><polygon fill="#B0B2B3" points="146.329,169.172 145.616,180.033 154.168,162.307"/><polygon fill="#C5C5C7" points="136.974,170.683 146.329,169.172 131.175,195.039"/><polygon fill="#B0B2B3" points="140.826,186.107 145.616,180.033 146.329,169.172"/><polygon fill="#D8D9D9" points="131.175,195.039 140.826,186.107 146.329,169.172"/><polygon fill="#C79C63" points="114.062,220.742 113.867,218.984 121.248,209.691"/><polygon fill="#C79C63" points="110.983,206.519 115.501,207.101 112.363,210.836"/><polygon fill="#C79C63" points="118.604,198.663 131.175,195.039 120.706,205.24"/><polygon fill="#C79C63" points="113.655,214.878 120.706,205.24 121.248,209.691"/><polygon fill="#A28878" points="118.604,198.663 120.706,205.24 115.501,207.101"/><polygon fill="#5F4C3F" points="125.26,209.381 140.826,186.107 131.175,195.039"/><polygon fill="#5F4C3F" points="114.062,220.742 125.26,209.381 121.248,209.691"/><polygon fill="#786854" points="125.26,209.381 131.175,195.039 121.248,209.691"/><polygon fill="#707072" points="145.616,180.033 157.699,181.164 154.168,162.307"/><polygon fill="#868788" points="130.241,179.019 136.974,170.683 131.175,195.039"/></g><polygon fill="#F5F5F6" points="381.059,183.869 358.24,142.881 340.955,131.911"/><polygon fill="#C5C5C7" points="361.006,174.055 374.971,183.869 381.059,183.869"/><polygon fill="#C5C5C7" points="344.301,148.434 361.006,174.055 381.059,183.869"/><polygon fill="#D8D9D9" points="344.301,148.434 340.955,131.911 381.059,183.869"/><polygon fill="#F5F5F6" points="340.955,131.911 334.123,119.979 324.527,108.415"/><path fill="#D8D9D9" d="M288.725,95.375c0.559,0.385,23.979,4.207,23.979,4.207l12.754,9.549L288.725,95.375z"/><polygon fill="#707072" points="325.457,115.72 324.527,112.787 340.955,131.911"/><polygon fill="#D8D9D9" points="324.527,108.415 324.527,112.787 340.955,131.911"/><polygon fill="#868788" points="286.865,100.377 288.725,105.548 288.725,95.375"/><polygon fill="#D8D9D9" points="324.527,112.787 288.725,95.375 324.527,108.415"/><polygon fill="#C5C5C7" points="325.457,115.72 288.725,95.375 324.527,112.787"/><polygon fill="#9B9B9D" points="288.725,105.548 304.059,135.664 288.725,95.375"/><polygon fill="#B0B2B3" points="324.598,130.948 304.059,135.664 288.725,95.375"/><polygon fill="#9B9B9D" points="337.145,157.312 324.598,130.948 304.059,135.664"/><polygon fill="#868788" points="337.145,157.312 361.006,174.055 344.301,148.434"/><path fill="#B0B2B3" d="M324.598,130.948c0.465,0.576,19.703,17.485,19.703,17.485l-7.156,8.879L324.598,130.948z"/><polygon fill="#B0B2B3" points="324.598,130.948 325.457,115.72 288.725,95.375"/><polygon fill="#D8D9D9" points="324.598,130.948 340.955,131.911 325.457,115.72"/><polygon fill="#EAEBEC" points="324.598,130.948 344.301,148.434 340.955,131.911"/><polygon fill="#D8D9DA" points="224.412,148.364 255.459,148.364 249.561,155.592"/><polygon fill="#D8D9D9" points="297.738,135.664 255.459,148.364 224.412,148.364"/><polygon fill="#EAEBEC" points="281.568,105.548 297.738,135.664 224.412,148.364"/><path fill="#F5F5F6" d="M202.943,94.963c1.395,0.288,78.625,10.584,78.625,10.584l-57.156,42.816L202.943,94.963z"/><polygon fill="#FFF" points="247.832,94.963 202.943,94.963 281.568,105.548"/><polygon fill="#707072" points="281.568,105.548 304.059,135.664 297.738,135.664"/><polygon fill="#3E3D3F" points="281.568,105.548 288.725,105.548 304.059,135.664"/><polygon fill="#D8D9D9" points="146.158,97.659 202.943,94.963 224.412,148.364"/><polygon fill="#3E3D3F" points="162.329,182.33 224.412,148.364 224.412,161.162"/><polygon fill="#868788" points="249.561,155.592 224.412,161.162 224.412,148.364"/><polygon fill="#EAEBEC" points="105.08,114.979 146.158,97.659 89.094,135.664"/><polygon fill="#D8D9D9" points="120.135,126.955 89.094,135.664 146.158,97.659"/><polygon fill="#C5C5C7" points="155.823,148.364 224.412,148.364 146.158,97.659"/><polygon fill="#D8D9D9" points="135.005,139.033 155.823,148.364 146.158,97.659"/><polygon fill="#C5C5C7" points="120.135,126.955 135.005,139.033 146.158,97.659"/><polygon fill="#C5C5C7" points="91.883,142.496 89.094,135.664 120.135,126.955"/><polygon fill="#9B9B9D" points="105.637,140.38 91.883,142.496 120.135,126.955"/><polygon fill="#868788" points="117.626,146.345 120.135,126.955 105.637,140.38"/><polygon fill="#57575A" points="117.626,146.345 135.005,139.033 120.135,126.955"/><polygon fill="#707072" points="123.449,160.084 135.005,139.033 117.626,146.345"/><polygon fill="#57575A" points="155.823,148.364 123.449,160.084 135.005,139.033"/><polygon fill="#707072" points="174.968,162.798 224.412,148.364 155.823,148.364"/><polygon fill="#57575A" points="162.329,182.33 174.968,162.798 224.412,148.364"/><polygon fill="#B0B2B3" points="155.823,148.364 162.329,182.33 174.968,162.798"/><polygon fill="#F5F5F6" points="136.082,186.243 162.329,182.33 155.823,148.364"/><polygon fill="#C5C5C7" points="136.082,186.243 152.942,194.261 162.329,182.33"/><polygon fill="#EAEBEC" points="123.449,160.084 136.082,186.243 155.823,148.364"/><g><polygon fill="#F5F5F6" points="120.931,180.315 123.449,160.084 136.082,186.243"/><polygon fill="#D8D9D9" points="106.669,210.356 120.931,180.315 136.082,186.243"/><polygon fill="#B0B2B3" points="120.931,180.315 114.368,186.243 106.669,210.356"/><polygon fill="#C79C63" points="107.707,188.67 114.368,186.243 106.669,210.356"/><path fill="#C5C5C7" d="M94.431,207.293"/><polygon fill="#A28878" points="102.326,198.301 107.707,188.67 106.669,210.356"/><polygon fill="#CABA9C" points="92.259,207.293 102.326,198.301 106.669,210.356"/><polygon fill="#5F4C3F" points="92.259,222.159 106.669,210.356 92.259,216.257"/><polygon fill="#786854" points="80.613,222.159 92.259,216.257 92.259,222.159"/><polygon fill="#A28878" points="106.669,210.356 87.324,212.4 92.259,216.257"/><polygon fill="#CABA9C" points="80.613,222.159 87.324,212.4 92.259,216.257"/><polygon fill="#A28878" points="75.875,205.455 92.259,207.293 78.836,208.314"/><polygon fill="#CABA9C" points="69.361,215.058 75.875,205.455 78.836,208.314"/><polygon fill="#CABA9C" points="80.613,210.255 87.324,212.4 74.099,219.209"/><polygon fill="#A28878" points="96.997,208.314 80.613,210.255 87.324,212.4"/><polygon fill="#41281A" points="74.099,219.209 82.642,219.209 87.324,212.4"/><polygon fill="#41281A" points="96.997,208.314 106.669,210.356 87.324,212.4"/><polygon fill="#905E35" points="69.361,215.058 80.613,210.255 78.836,208.314"/><polygon fill="#663A16" points="92.259,207.293 78.836,208.314 80.613,210.255"/><polygon fill="#41281A" points="92.259,207.293 96.997,208.314 80.613,210.255"/><polygon fill="#41281A" points="78.019,213.82 69.361,215.058 80.613,210.255"/></g><path fill="#CABA9C" d="M123.449,160.084"/><polygon fill="#EFAC32" points="174.225,90.442 182.869,75.239 185.285,80.338"/><polygon fill="#EFB380" points="168.65,84.091 174.225,90.442 182.869,75.239"/><polygon fill="#EFB380" points="196.715,84.958 185.285,80.338 174.225,90.442"/><g><g><polygon fill="#36A7DA" points="192.961,88.908 198.51,86.595 204.709,92.27"/><polygon fill="#0471B2" points="199.875,85.344 204.709,92.27 198.51,86.595"/><polygon fill="#0471B2" points="204.709,92.27 199.875,85.344 207.312,86.305"/><polygon fill="#36A7DA" points="212.514,93.331 207.312,86.305 204.709,92.27"/><polygon fill="#093280" points="206.844,105.262 212.514,93.331 204.709,92.27"/><polygon fill="#0471B2" points="192.961,88.908 195.973,92.27 204.709,92.27"/><polygon fill="#36A7DA" points="203.408,100.448 204.709,92.27 195.973,92.27"/><polygon fill="#172559" points="176.46,113.151 206.844,105.262 203.408,100.448"/><polygon fill="#093280" points="206.844,105.262 204.709,92.27 203.408,100.448"/><polyline fill="#36A7DA" points="160.703,89.768 156.38,91.5 157.473,106.223 157.473,106.223"/><polygon fill="#0471B2" points="179.043,97.273 176.46,113.151 203.408,100.448"/><polygon fill="#093280" points="157.473,106.223 170.139,96.118 179.043,97.273"/><polygon fill="#0471B2" points="157.473,106.223 160.703,89.768 170.139,96.118"/><polygon fill="#172559" points="157.473,106.223 176.46,113.151 179.043,97.273"/></g><g><polygon fill="#5D4417" points="184.246,62.917 191.976,65.414 183.947,68.485"/><polygon fill="#F7B235" points="201.455,65.125 191.976,65.414 183.947,68.485"/><polygon fill="#463514" points="183.947,71.187 195.879,68.485 193.478,66.655"/><polygon fill="#AD8029" points="193.478,66.655 183.947,68.485 183.947,71.187"/><polygon fill="#7C5A1D" points="205.359,66.279 195.879,68.485 193.478,66.655"/><polygon fill="#AD8029" points="201.455,65.125 205.359,66.279 193.478,66.655"/></g><g><polygon fill="#E97EAA" points="163.352,17.095 170.139,15.422 177.206,29.081"/><polygon fill="#E20A6F" points="180.545,39.463 177.206,29.081 163.352,17.095"/><polygon fill="#622580" points="171.437,48.955 169.208,32.859 175.802,43.871"/><polygon fill="#D20050" points="163.352,17.095 169.208,32.859 180.545,39.463"/><polygon fill="#E97EAA" points="180.545,48.276 180.545,39.463 175.802,43.871"/><polygon fill="#F7CDDE" points="185.192,37.789 185.192,47.653 180.545,48.276 180.545,39.463"/><polygon fill="#95506F" points="171.437,48.955 180.545,48.276 175.802,43.871"/><polygon fill="#E97EAA" points="185.192,37.789 177.206,29.081 180.545,39.463"/><polygon fill="#E0027A" points="170.139,15.422 185.192,37.789 177.206,29.081"/><polygon fill="#9F0E59" points="180.545,39.463 175.802,43.871 169.208,32.859"/></g><polygon fill="#96BD0D" points="185.192,44.073 116.209,42.32 154.152,46.413"/><polygon fill="#DEDA03" points="170.279,49.216 154.152,46.413 185.192,44.073"/><polygon fill="#FCE90A" points="23.21,46.811 154.152,46.413 116.209,42.32"/><polygon fill="#DEDA00" points="23.21,46.811 40.376,40.907 116.209,42.32"/><polygon fill="#FD0" points="28.417,79.992 31.104,88.732 31.568,74.18"/><polygon fill="#40A42C" points="19.186,86.599 28.417,79.992 31.104,88.732"/><polygon fill="#0471B2" points="16.376,97.635 19.186,86.599 19.186,91.217"/><polygon fill="#172559" points="19.186,91.217 31.104,88.732 19.186,86.599"/><polygon fill="#13235B" points="36.308,73.217 23.21,46.811 170.139,49.216"/><polygon fill="#37A8DB" points="160.703,54.935 31.104,88.732 36.308,73.217"/><polygon fill="#093280" points="170.279,49.216 160.703,54.935 36.308,73.217"/><polygon fill="#F7B235" points="185.192,43.391 185.192,44.073 180.545,44.073"/><polygon fill="#B28329" points="200.637,49.135 197.365,54 214.743,60.496"/><polygon fill="#6F531A" points="208.982,61.555 197.365,54 214.743,60.496"/><polygon fill="#BA882C" points="185.192,44.073 202.384,46.347 200.637,49.135"/><polygon fill="#C38E2C" points="186.678,54.359 197.365,54 200.637,49.135"/><polygon fill="#F4AF32" points="185.192,44.073 186.678,54.359 200.637,49.135"/><polygon fill="#D79B2E" points="182.869,75.239 186.678,54.359 185.192,44.073"/><polyline fill="#C58F2D" points="185.285,80.338 182.869,75.239 186.678,54.359"/><polygon fill="#A37926" points="177.206,54.359 182.869,75.239 185.192,44.073"/><polygon fill="#7E5D1D" points="170.279,49.216 177.206,54.359 185.192,44.073"/><polygon fill="#574021" points="166.604,78.992 177.206,54.359 166.046,70.876"/><polygon fill="#382B11" points="170.279,49.216 177.206,54.359 166.046,70.876"/><polygon fill="#382B11" points="166.604,78.992 177.665,76.683 177.206,54.359"/><polygon fill="#5D4417" points="177.665,76.683 182.869,75.239 177.206,54.359"/><polygon fill="#41281A" points="162.422,85.823 166.604,78.992 177.665,76.683"/><polygon fill="#7C4D24" points="177.665,76.683 168.65,84.091 162.422,85.823"/><polygon fill="#C79C63" points="177.665,76.683 182.869,75.239 168.65,84.091"/><polygon fill="#280F0C" points="160.703,54.935 166.046,70.876 170.279,49.216"/><polygon fill="#172559" points="23.21,46.811 36.308,73.217 31.568,74.18"/><polygon fill="#0471B2" points="36.308,73.217 31.104,88.732 31.568,74.18"/><polygon fill="#9F0E59" points="151.764,78.029 153.937,75.336 162.422,85.823"/><polygon fill="#BD0C27" points="153.937,75.336 163.806,83.564 162.422,85.823"/><polygon fill="#C79C63" points="214.743,126.692 204.801,122.435 198.574,128.497"/><polygon fill="#905E35" points="191.407,127.485 193.704,122.435 204.801,122.435"/><polygon fill="#AF7F48" points="204.801,122.435 198.574,128.497 191.407,127.485"/><polygon fill="#AF7F48" points="202.113,110.745 193.704,122.435 204.801,122.435"/><polygon fill="#C79C63" points="193.833,100.354 195.395,120.083 202.113,110.745"/><polygon fill="#AF7F48" points="204.15,93.137 202.113,110.745 193.833,100.354"/><polygon fill="#C79C63" points="196.715,84.958 204.15,93.137 193.833,100.354"/><polygon fill="#AF7F48" points="181.199,97.273 193.833,100.354 196.715,84.958"/><polygon fill="#905E35" points="160.703,89.768 170.139,96.118 168.65,84.091"/><polygon fill="#7C4D24" points="181.199,97.273 174.225,90.442 170.139,96.118"/><polygon fill="#C79C63" points="196.715,84.958 174.225,90.442 181.199,97.273"/><polygon fill="#663A16" points="162.422,85.823 160.703,89.768 168.65,84.091"/><polygon fill="#663A16" points="170.139,96.118 168.65,84.091 174.225,90.442"/><polygon fill="#7C4D24" points="193.704,122.435 193.833,100.354 195.395,120.083"/><polygon fill="#41281A" points="178.5,99.197 193.833,100.354 181.199,97.273"/><polygon fill="#905E35" points="170.723,96.179 178.5,99.197 181.199,97.273"/><line fill="#57575A" x1="191.407" y1="127.485" x2="193.704" y2="122.435"/><path fill="#57575A" d="M188.707,130.949"/><polygon fill="#1A171B" points="155.023,46.347 23.21,46.811 170.139,49.216"/><polygon fill="#7C4D24" points="216.417,60.014 221.063,63.523 208.611,62.946"/><polygon fill="#41281A" points="208.982,61.555 216.417,60.014 208.611,62.946"/><polygon fill="#F7B235" points="200.637,49.135 202.384,46.347 214.743,60.496"/></g><path fill="#EAEBEC" d="M297.738,200.139"/><polygon fill="#868789" points="224.412,148.364 210.459,148.364 268.959,89.432"/><polygon fill="#B0B2B3" points="224.412,148.364 268.959,89.432 255.459,148.364"/><polygon fill="#D8D9D9" points="268.959,89.432 287.795,57.778 255.459,148.364"/><polygon fill="#6F7072" points="210.459,148.364 287.795,57.778 268.959,89.432"/><polygon fill="#58585A" points="252.709,86.93 287.795,57.778 242.021,111.394"/><polygon fill="#3D3D3F" points="230.434,99.197 242.021,111.394 210.459,148.364"/><polygon fill="#868789" points="230.434,99.197 287.795,57.778 252.709,86.93"/><polygon fill="#ECECED" points="254.686,66.279 273.459,53.421 287.795,57.778"/><polygon fill="#D8D9DA" points="230.434,99.197 254.686,66.279 287.795,57.778"/><polygon fill="#D8D9DA" points="219.959,106.223 254.686,66.279 230.434,99.197"/><polygon fill="#ECECED" points="217.144,131.911 219.959,106.223 230.434,99.197"/><polygon fill="#58585A" points="230.434,99.197 252.709,86.93 242.021,111.394"/><polygon fill="#ECECED" points="249.561,155.592 297.738,135.664 255.459,148.364"/></svg>