<?xml version="1.0" encoding="utf-8"?>
<!-- Generator: Adobe Illustrator 15.0.2, SVG Export Plug-In . SVG Version: 6.00 Build 0)  -->
<!DOCTYPE svg PUBLIC "-//W3C//DTD SVG 1.1//EN" "http://www.w3.org/Graphics/SVG/1.1/DTD/svg11.dtd">
<svg version="1.1" id="Capa_2" xmlns="http://www.w3.org/2000/svg" xmlns:xlink="http://www.w3.org/1999/xlink" x="0px" y="0px"
	 width="400px" height="250px" viewBox="0 0 400 250" enable-background="new 0 0 400 250" xml:space="preserve">
<polygon fill="#F7B235" points="193.855,58.302 195.309,55.44 208.777,66.739 "/>
<polygon fill="#7C4D24" points="208.777,66.739 218.201,68.659 203.484,72.322 "/>
<polygon fill="#41281A" points="203.412,68.413 208.777,66.739 203.484,72.322 "/>
<g>
	<g>
		<g>
			<path fill="#302D30" d="M195.047,71.567c2.794,0.668,4.622,1.138,7.895,1.487c0.672,0.077,1.854,0.218,3.318,0.454
				c2.454,0.392,5.41,1.014,8.368,1.962c2.958,0.942,5.906,2.231,8.345,3.74c1.22,0.752,2.32,1.544,3.252,2.331
				c0.469,0.39,0.895,0.78,1.282,1.154c0.382,0.363,0.675,0.699,0.939,1.043c1.025,1.373,1.375,2.451,1.395,2.433
				c-0.005,0.004,0.388,0.84,0.848,2.384c0.495,1.535,0.922,3.803,1.91,6.432c0.512,1.3,1.233,2.708,2.375,3.899
				c1.129,1.201,2.662,2.059,4.22,2.514c0.76,0.234,1.618,0.379,2.3,0.482c0.695,0.113,1.381,0.256,2.05,0.42
				c1.338,0.329,2.61,0.746,3.776,1.211c1.997,0.792,3.543,1.664,4.303,2.106c1.396,0.816,2.487,1.465,3.56,2.057
				c1.066,0.602,2.122,1.128,3.342,1.884c-0.728-1.246-1.479-2.223-2.367-3.147c-0.896-0.919-1.949-1.782-3.431-2.668
				c-0.806-0.479-2.453-1.415-4.597-2.267c-1.25-0.5-2.62-0.95-4.064-1.304c-0.723-0.177-1.463-0.331-2.215-0.454
				c-0.768-0.117-1.369-0.222-2.027-0.418c-1.277-0.378-2.412-1.024-3.27-1.93c-0.865-0.899-1.468-2.033-1.921-3.186
				c-0.884-2.325-1.341-4.637-1.858-6.26c-0.488-1.638-0.941-2.618-0.936-2.616c-0.028,0.017-0.398-1.191-1.662-2.896
				c-0.315-0.416-0.716-0.87-1.151-1.284c-0.424-0.41-0.888-0.836-1.397-1.261c-1.014-0.857-2.201-1.714-3.509-2.521
				c-2.615-1.62-5.73-2.979-8.821-3.965c-3.094-0.992-6.155-1.634-8.692-2.037c-1.513-0.241-2.731-0.382-3.425-0.455
				C199.806,70.565,197.835,70.846,195.047,71.567z"/>
		</g>
	</g>
</g>
<polygon fill="#F5F5F6" points="283.549,235.049 298.18,215.254 296.999,167.832 "/>
<polygon fill="#D8D9D9" points="292.749,235.049 298.18,215.254 283.549,235.049 "/>
<polygon fill="#EAEBEC" points="254.094,199.604 296.999,167.832 283.549,235.049 "/>
<polygon fill="#C5C5C7" points="228.411,153.893 296.999,167.832 254.094,199.604 "/>
<polygon fill="#D8D9D9" points="301.738,141.623 296.999,167.832 228.411,153.893 "/>
<polygon fill="#EAEBEC" points="285.567,112.535 301.738,141.623 228.411,153.893 "/>
<path fill="#F5F5F6" d="M206.942,102.311c1.395,0.278,78.625,10.224,78.625,10.224l-57.156,41.358L206.942,102.311z"/>
<polygon fill="#FFFFFF" points="251.831,102.311 206.942,102.311 285.567,112.535 "/>
<polygon fill="#707072" points="285.567,112.535 308.058,141.623 301.738,141.623 "/>
<polygon fill="#3E3D3F" points="285.567,112.535 292.724,112.535 308.058,141.623 "/>
<polygon fill="#D8D9D9" points="150.157,104.915 206.942,102.311 228.411,153.893 "/>
<polygon fill="#3E3D3F" points="166.328,186.699 228.411,153.893 228.411,166.254 "/>
<polygon fill="#868788" points="254.094,199.604 228.411,166.254 228.411,153.893 "/>
<polygon fill="#EAEBEC" points="109.079,121.644 150.157,104.915 93.094,141.623 "/>
<polygon fill="#D8D9D9" points="124.135,133.213 93.094,141.623 150.157,104.915 "/>
<polygon fill="#C5C5C7" points="159.822,153.893 228.411,153.893 150.157,104.915 "/>
<polygon fill="#D8D9D9" points="139.005,144.877 159.822,153.893 150.157,104.915 "/>
<polygon fill="#C5C5C7" points="124.135,133.213 139.005,144.877 150.157,104.915 "/>
<polygon fill="#C5C5C7" points="95.882,148.225 93.094,141.623 124.135,133.213 "/>
<polygon fill="#9B9B9D" points="109.637,146.18 95.882,148.225 124.135,133.213 "/>
<polygon fill="#868788" points="121.625,151.941 124.135,133.213 109.637,146.18 "/>
<polygon fill="#57575A" points="121.625,151.941 139.005,144.877 124.135,133.213 "/>
<polygon fill="#707072" points="132.686,173.131 139.005,144.877 121.625,151.941 "/>
<polygon fill="#57575A" points="159.822,153.893 132.686,173.131 139.005,144.877 "/>
<polygon fill="#707072" points="178.968,167.832 228.411,153.893 159.822,153.893 "/>
<polygon fill="#57575A" points="166.328,186.699 178.968,167.832 228.411,153.893 "/>
<polygon fill="#B0B2B3" points="159.822,153.893 166.328,186.699 178.968,167.832 "/>
<polygon fill="#F5F5F6" points="144.581,196.922 166.328,186.699 159.822,153.893 "/>
<polygon fill="#C5C5C7" points="144.581,196.922 156.941,198.223 166.328,186.699 "/>
<polygon fill="#EAEBEC" points="132.686,173.131 144.581,196.922 159.822,153.893 "/>
<polygon fill="#F5F5F6" points="130.315,191.531 132.686,173.131 144.581,196.922 "/>
<polygon fill="#D8D9D9" points="116.886,218.855 130.315,191.531 144.581,196.922 "/>
<polygon fill="#9B9B9D" points="189.284,179.139 198.97,207.889 206.219,215.324 "/>
<polygon fill="#9B9B9D" points="223.618,167.832 219.303,183.354 206.219,215.324 "/>
<polygon fill="#3E3D3F" points="189.284,179.139 205.996,173.637 206.219,215.324 "/>
<polygon fill="#B0B2B3" points="130.315,191.531 124.135,196.922 116.886,218.855 "/>
<polygon fill="#C79C63" points="117.862,199.129 124.135,196.922 116.886,218.855 "/>
<path fill="#C5C5C7" d="M105.361,216.068"/>
<polygon fill="#A28878" points="112.796,207.889 117.862,199.129 116.886,218.855 "/>
<polygon fill="#CABA9C" points="103.316,216.068 112.796,207.889 116.886,218.855 "/>
<polygon fill="#5F4C3F" points="103.316,229.59 116.886,218.855 103.316,224.221 "/>
<polygon fill="#786854" points="92.351,229.59 103.316,224.221 103.316,229.59 "/>
<polygon fill="#A28878" points="116.886,218.855 98.67,220.715 103.316,224.221 "/>
<polygon fill="#CABA9C" points="92.351,229.59 98.67,220.715 103.316,224.221 "/>
<polygon fill="#A28878" points="87.889,214.396 103.316,216.068 90.677,216.998 "/>
<polygon fill="#CABA9C" points="81.755,223.131 87.889,214.396 90.677,216.998 "/>
<polygon fill="#CABA9C" points="92.351,218.762 98.67,220.715 86.216,226.906 "/>
<polygon fill="#A28878" points="107.778,216.998 92.351,218.762 98.67,220.715 "/>
<polygon fill="#41281A" points="86.216,226.906 94.261,226.906 98.67,220.715 "/>
<polygon fill="#41281A" points="107.778,216.998 116.886,218.855 98.67,220.715 "/>
<polygon fill="#905E35" points="81.755,223.131 92.351,218.762 90.677,216.998 "/>
<polygon fill="#663A16" points="103.316,216.068 90.677,216.998 92.351,218.762 "/>
<polygon fill="#41281A" points="103.316,216.068 107.778,216.998 92.351,218.762 "/>
<polygon fill="#41281A" points="89.907,222.006 81.755,223.131 92.351,218.762 "/>
<polygon fill="#CABA9C" points="104.898,180.938 100.924,195.922 87.889,195.295 "/>
<polygon fill="#CABA9C" points="78.271,204.496 73.392,201.777 78.271,200.105 "/>
<polygon fill="#CABA9C" points="82.383,202.057 87.889,195.295 78.271,200.105 "/>
<polygon fill="#CABA9C" points="87.053,206.238 78.271,208.609 77.225,212.441 "/>
<polygon fill="#CABA9C" points="100.924,195.922 87.053,206.238 87.889,201.986 "/>
<polygon fill="#CABA9C" points="78.271,204.496 82.383,202.057 87.889,201.986 "/>
<path fill="#CABA9C" d="M132.686,173.131"/>
<polygon fill="#B0B2B3" points="123.16,176.963 119.187,186.699 132.686,173.131 "/>
<polygon fill="#C5C5C7" points="113.82,175.408 123.16,176.963 100.924,195.922 "/>
<polygon fill="#B0B2B3" points="112.796,190.764 119.187,186.699 123.16,176.963 "/>
<polygon fill="#D8D9D9" points="100.924,195.922 112.796,190.764 123.16,176.963 "/>
<polygon fill="#C79C63" points="76.877,214.115 77.225,212.441 87.053,206.238 "/>
<polygon fill="#C79C63" points="78.271,200.105 82.383,202.057 78.271,204.496 "/>
<polygon fill="#C79C63" points="87.889,195.295 100.924,195.922 87.889,201.986 "/>
<polygon fill="#C79C63" points="78.271,208.609 87.889,201.986 87.053,206.238 "/>
<polygon fill="#A28878" points="87.889,195.295 87.889,201.986 82.383,202.057 "/>
<polygon fill="#5F4C3F" points="90.957,207.215 112.796,190.764 100.924,195.922 "/>
<polygon fill="#5F4C3F" points="76.877,214.115 90.957,207.215 87.053,206.238 "/>
<polygon fill="#786854" points="90.957,207.215 100.924,195.922 87.053,206.238 "/>
<polygon fill="#707072" points="119.187,186.699 130.315,191.531 132.686,173.131 "/>
<polygon fill="#57575A" points="205.996,173.637 223.618,167.832 206.219,215.324 "/>
<polygon fill="#868788" points="104.898,180.938 113.82,175.408 100.924,195.922 "/>
<polygon fill="#EFAC32" points="172.647,95.597 179.695,80.083 189.284,88.185 "/>
<polygon fill="#EFB380" points="166.457,90.085 172.647,95.597 179.695,80.083 "/>
<polygon fill="#EFB380" points="199.973,99.709 189.284,88.185 172.647,95.597 "/>
<g>
	<polygon fill="#E97EAA" points="153.648,19.479 160.212,17.008 168.758,30.598 	"/>
	<polygon fill="#E20A6F" points="173.233,41.142 168.758,30.598 153.648,19.479 	"/>
	<polygon fill="#622580" points="166.188,54.103 161.225,35.406 169.007,46.268 	"/>
	<polygon fill="#D20050" points="153.648,19.479 161.225,35.406 173.233,41.142 	"/>
	<polygon fill="#E97EAA" points="174.213,51.713 173.233,41.142 169.007,46.268 	"/>
	<polygon fill="#F7CDDE" points="177.668,38.896 178.765,49.248 174.213,51.713 173.233,41.142 	"/>
	<polygon fill="#95506F" points="166.188,54.103 174.213,51.713 169.007,46.268 	"/>
	<polygon fill="#E97EAA" points="177.668,38.896 168.758,30.598 173.233,41.142 	"/>
	<polygon fill="#E0027A" points="160.212,17.008 177.668,38.896 168.758,30.598 	"/>
	<polygon fill="#9F0E59" points="173.233,41.142 169.007,46.268 161.225,35.406 	"/>
	<polygon fill="#96BD0D" points="22.956,85.791 108.407,69.093 33.744,105.583 	"/>
	<polygon fill="#96BD0D" points="178.834,49.903 108.407,69.093 135.029,67.862 	"/>
	<polygon fill="#DEDA03" points="164.755,59.893 135.029,67.862 178.834,49.903 	"/>
	<polygon fill="#DEDA03" points="33.744,105.583 135.029,67.862 108.407,69.093 	"/>
	<polygon fill="#DEDA03" points="19.974,78.818 22.956,85.791 108.407,69.093 	"/>
	<polygon fill="#172559" points="17.188,89.579 30.253,122.028 22.956,85.791 	"/>
	<polygon fill="#172559" points="19.75,84.636 17.188,89.579 22.956,85.791 	"/>
	<polygon fill="#070D0F" points="19.75,84.636 19.974,78.818 22.956,85.791 	"/>
	<polygon fill="#40A42C" points="20.393,115.41 26.586,112.921 30.253,122.028 	"/>
	<polygon fill="#0471B2" points="13.102,118.931 20.393,115.41 20.863,119.846 	"/>
	<polygon fill="#172559" points="20.863,119.846 30.253,122.028 20.393,115.41 	"/>
	<polygon fill="#093280" points="30.253,122.028 29.129,107.007 22.956,85.791 	"/>
	<polygon fill="#36A7DA" points="137.096,70.823 30.253,122.028 33.744,105.583 	"/>
	<polygon fill="#093280" points="135.029,67.862 137.096,70.823 33.744,105.583 	"/>
	<polygon fill="#093280" points="139.595,74.579 163.351,69.574 137.096,70.823 	"/>
	<polygon fill="#080614" points="164.755,59.893 163.351,69.574 135.029,67.862 	"/>
	<polygon fill="#172559" points="135.029,67.862 163.351,69.574 137.096,70.823 	"/>
	<polygon fill="#F7B235" points="178.765,49.248 178.834,49.903 174.213,51.713 	"/>
	<polygon fill="#B28329" points="193.855,58.302 191.097,63.32 209.033,66.789 	"/>
	<polygon fill="#6F531A" points="203.412,68.413 191.097,63.32 209.033,66.789 	"/>
	<polygon fill="#BA882C" points="178.834,49.903 195.309,55.44 193.855,58.302 	"/>
	<polygon fill="#C38E2C" points="181.359,59.626 191.097,63.32 193.855,58.302 	"/>
	<polygon fill="#F4AF32" points="178.834,49.903 181.359,59.626 193.855,58.302 	"/>
	<polygon fill="#D79B2E" points="179.695,80.083 181.359,59.626 178.834,49.903 	"/>
	<polyline fill="#C58F2D" points="182.337,76.252 179.695,80.083 181.359,59.626 	"/>
	<polygon fill="#A37926" points="171.939,60.625 179.695,80.083 178.834,49.903 	"/>
	<polygon fill="#7E5D1D" points="164.755,59.893 171.939,60.625 178.834,49.903 	"/>
	<polygon fill="#574021" points="163.903,85.402 171.939,60.625 163.351,69.574 	"/>
	<polygon fill="#382B11" points="164.755,59.893 171.939,60.625 163.351,69.574 	"/>
	<polygon fill="#382B11" points="163.903,85.402 174.667,82.019 171.939,60.625 	"/>
	<polygon fill="#5D4417" points="174.667,82.019 179.695,80.083 171.939,60.625 	"/>
	<polygon fill="#5D4417" points="181.792,68.277 189.734,69.861 182.062,73.658 	"/>
	<polygon fill="#F7B235" points="199.131,68.585 189.734,69.861 182.062,73.658 	"/>
	<polygon fill="#463514" points="182.337,76.252 193.928,72.4 191.354,70.896 	"/>
	<polygon fill="#AD8029" points="191.354,70.896 182.062,73.658 182.337,76.252 	"/>
	<polygon fill="#7C5A1D" points="203.131,69.283 193.928,72.4 191.354,70.896 	"/>
	<polygon fill="#AD8029" points="199.131,68.585 203.131,69.283 191.354,70.896 	"/>
	<polygon fill="#41281A" points="160.44,92.404 163.903,85.402 174.667,82.019 	"/>
	<polygon fill="#7C4D24" points="174.667,82.019 166.457,90.085 160.44,92.404 	"/>
	<polygon fill="#C79C63" points="174.667,82.019 179.695,80.083 166.457,90.085 	"/>
	<polygon fill="#41281A" points="160.246,69.182 163.595,76.561 163.351,69.574 	"/>
	<polygon fill="#172559" points="22.956,85.791 33.744,105.583 29.129,107.007 	"/>
	<polygon fill="#0471B2" points="33.744,105.583 30.253,122.028 29.129,107.007 	"/>
	<polygon fill="#009E94" points="32.752,120.271 139.595,74.579 137.096,70.823 	"/>
	<polygon fill="#9F0E59" points="149.844,83.246 151.73,80.431 160.44,92.404 	"/>
	<polygon fill="#BD0C27" points="151.73,80.431 161.586,90.088 160.44,92.404 	"/>
	<polygon fill="#C79C63" points="218.409,137.195 206.313,130.207 200.738,136.686 	"/>
	<polygon fill="#905E35" points="193.509,136.469 195.279,131.375 206.313,130.207 	"/>
	<polygon fill="#AF7F48" points="206.313,130.207 200.738,136.686 193.509,136.469 	"/>
	<polygon fill="#AF7F48" points="202.451,119.261 195.279,131.375 206.313,130.207 	"/>
	<polygon fill="#C79C63" points="193.16,110.152 196.722,128.938 202.451,119.261 	"/>
	<polygon fill="#AF7F48" points="202.686,102.134 202.451,119.261 193.16,110.152 	"/>
	<polygon fill="#C79C63" points="194.46,95.062 202.686,102.134 193.16,110.152 	"/>
	<polygon fill="#AF7F48" points="180.277,101.424 193.16,110.152 194.46,95.062 	"/>
	<polygon fill="#905E35" points="159.131,96.374 169.162,101.479 166.457,90.085 	"/>
	<polygon fill="#7C4D24" points="180.277,101.424 172.647,95.597 169.162,101.479 	"/>
	<polygon fill="#C79C63" points="194.46,95.062 172.647,95.597 180.277,101.424 	"/>
	<polygon fill="#663A16" points="160.44,92.404 159.131,96.374 166.457,90.085 	"/>
	<polygon fill="#663A16" points="169.162,101.479 166.457,90.085 172.647,95.597 	"/>
	<polygon fill="#7C4D24" points="195.279,131.375 193.16,110.152 196.722,128.938 	"/>
	<polygon fill="#41281A" points="177.789,103.557 193.16,110.152 180.277,101.424 	"/>
	<polygon fill="#905E35" points="169.749,101.476 177.789,103.557 180.277,101.424 	"/>
	<polygon fill="#36A7DA" points="191.123,92.15 196.406,89.343 203.146,94.141 	"/>
	<polygon fill="#0471B2" points="197.635,87.998 203.146,94.141 196.406,89.343 	"/>
	<polygon fill="#0471B2" points="203.146,94.141 197.635,87.998 205.129,88.137 	"/>
	<polygon fill="#36A7DA" points="211.018,94.337 205.129,88.137 203.146,94.141 	"/>
	<polygon fill="#093280" points="206.593,106.395 211.018,94.337 203.146,94.141 	"/>
	<polygon fill="#0471B2" points="191.123,92.15 194.46,95.062 203.146,94.141 	"/>
	<polygon fill="#36A7DA" points="202.686,102.134 203.146,94.141 194.46,95.062 	"/>
	<polygon fill="#172559" points="202.595,108.776 206.593,106.395 202.686,102.134 	"/>
	<polygon fill="#093280" points="206.593,106.395 203.146,94.141 202.686,102.134 	"/>
	<polyline fill="#36A7DA" points="159.131,96.374 155.009,98.494 157.594,112.52 157.594,112.52 	"/>
	<polygon fill="#093280" points="193.58,115.343 177.047,120.646 193.16,110.152 	"/>
	<polygon fill="#0471B2" points="177.789,103.557 177.047,120.646 193.16,110.152 	"/>
	<polygon fill="#093280" points="157.594,112.52 169.162,101.479 177.789,103.557 	"/>
	<polygon fill="#0471B2" points="157.594,112.52 159.131,96.374 169.162,101.479 	"/>
	<polygon fill="#172559" points="157.594,112.52 177.047,120.646 177.789,103.557 	"/>
	<line fill="#57575A" x1="193.509" y1="136.469" x2="195.279" y2="131.375"/>
	<path fill="#57575A" d="M191.176,140.081"/>
</g>
<polygon fill="#F5F5F6" points="382.491,180.332 361.646,141.266 343.086,133.107 "/>
<polygon fill="#C5C5C7" points="365.729,169.213 376.459,181.156 382.491,180.332 "/>
<polygon fill="#C5C5C7" points="348.967,151.439 365.729,169.213 382.491,180.332 "/>
<polygon fill="#D8D9D9" points="348.967,151.439 343.086,133.107 382.491,180.332 "/>
<polygon fill="#F5F5F6" points="343.086,133.107 336.737,122.342 324.863,113.7 "/>
<path fill="#D8D9D9" d="M286.152,102.238c0.604,0.293,24.714,3.753,24.714,3.753l15.011,8.268L286.152,102.238z"/>
<polygon fill="#707072" points="327.01,122.546 325.434,117.884 343.086,133.107 "/>
<polygon fill="#D8D9D9" points="324.863,113.7 325.434,117.884 343.086,133.107 "/>
<polygon fill="#868788" points="284.965,107.277 287.889,114.946 286.152,102.238 "/>
<polygon fill="#D8D9D9" points="325.434,117.884 286.152,102.238 324.863,113.7 "/>
<polygon fill="#C5C5C7" points="327.01,122.546 286.152,102.238 325.434,117.884 "/>
<polygon fill="#9B9B9D" points="287.889,114.946 307.018,141.691 286.152,102.238 "/>
<polygon fill="#B0B2B3" points="326.752,134.4 307.018,141.691 286.152,102.238 "/>
<polygon fill="#9B9B9D" points="342.63,157.934 326.752,134.4 307.018,141.691 "/>
<polygon fill="#868788" points="342.63,157.934 365.729,169.213 348.967,151.439 "/>
<path fill="#B0B2B3" d="M326.752,134.4c0.537,0.488,22.215,17.039,22.215,17.039l-6.337,6.494L326.752,134.4z"/>
<polygon fill="#B0B2B3" points="326.752,134.4 327.01,122.546 286.152,102.238 "/>
<polygon fill="#D8D9D9" points="326.752,134.4 343.086,133.107 327.01,122.546 "/>
<polygon fill="#EAEBEC" points="326.752,134.4 348.967,151.439 343.086,133.107 "/>
<g>
	<g>
		<g>
			<path fill="#302D30" d="M189.284,71.567c2.808,0.262,4.688,0.377,7.93-0.011l1.915-0.224l1.337-0.151l2.575-0.274l2.859-0.274
				c3.905-0.349,8.171-0.648,12.548-0.707c2.188-0.026,4.404,0.007,6.595,0.178c1.095,0.085,2.183,0.207,3.243,0.389
				c0.521,0.091,1.071,0.2,1.541,0.325c0.444,0.12,0.872,0.304,1.28,0.541c1.645,0.962,2.92,2.695,4.011,4.438
				c1.092,1.767,2.03,3.616,2.938,5.4c1.795,3.582,3.499,6.911,5.188,9.615c3.344,5.459,6.529,8.297,6.496,8.299
				c0.004-0.004,0.726,0.751,2.153,1.938c1.428,1.175,3.604,2.766,6.546,4.147c2.931,1.389,6.627,2.504,10.724,2.985
				c2.023,0.257,4.242,0.321,6.324,0.33c2.061,0.064,4.157,0.374,6.186,0.989c4.075,1.206,7.759,3.768,10.527,6.995
				c1.397,1.605,2.591,3.356,3.607,5.145c0.509,0.895,0.974,1.799,1.399,2.704c0.213,0.453,0.416,0.905,0.609,1.357l0.519,1.261
				c0.777,1.97,1.28,3.64,1.526,4.474c0.876,3.092,1.604,4.782,2.637,7.402c0.317-2.807,0.291-4.775-0.588-7.994
				c-0.247-0.87-0.766-2.608-1.577-4.67l-0.542-1.32c-0.203-0.473-0.416-0.948-0.64-1.424c-0.447-0.951-0.938-1.905-1.477-2.852
				c-1.076-1.893-2.347-3.761-3.853-5.492c-2.977-3.478-7.044-6.318-11.525-7.639c-2.229-0.676-4.518-1.01-6.741-1.079
				c-2.205-0.012-4.173-0.07-6.138-0.314c-3.887-0.456-7.341-1.502-10.07-2.793c-2.739-1.285-4.763-2.763-6.099-3.86
				c-1.333-1.107-2.013-1.817-2.016-1.812c0.027-0.011-2.945-2.639-6.171-7.901c-1.632-2.613-3.293-5.858-5.096-9.457
				c-0.913-1.795-1.865-3.681-3.027-5.564c-1.178-1.85-2.538-3.834-4.756-5.163c-0.553-0.321-1.157-0.583-1.792-0.754
				c-0.609-0.161-1.159-0.267-1.741-0.37c-1.148-0.197-2.296-0.324-3.439-0.415c-2.286-0.178-4.557-0.211-6.789-0.186
				c-4.464,0.061-8.772,0.364-12.714,0.716l-2.884,0.278l-2.596,0.277l-1.347,0.155l-1.928,0.236
				C193.694,69.863,191.89,70.482,189.284,71.567z"/>
		</g>
	</g>
</g>
</svg>
