<?xml version="1.0" encoding="utf-8"?>
<!-- Generator: Adobe Illustrator 15.0.2, SVG Export Plug-In . SVG Version: 6.00 Build 0)  -->
<!DOCTYPE svg PUBLIC "-//W3C//DTD SVG 1.1//EN" "http://www.w3.org/Graphics/SVG/1.1/DTD/svg11.dtd">
<svg version="1.1" xmlns="http://www.w3.org/2000/svg" xmlns:xlink="http://www.w3.org/1999/xlink" x="0px" y="0px" width="400px"
	 height="250px" viewBox="0 0 400 250" enable-background="new 0 0 400 250" xml:space="preserve">
<g id="Capa_1">
</g>
<g id="Capa_2">
	<g>
		<polygon fill="#9B9B9D" points="186.575,168.676 187.411,198.17 194.66,205.605 		"/>
		<polygon fill="#9B9B9D" points="220.909,157.369 216.594,172.891 194.66,205.605 		"/>
		<polygon fill="#3E3D3F" points="186.575,168.676 203.287,163.174 194.66,205.605 		"/>
		<polygon fill="#57575A" points="203.287,163.174 220.909,157.369 194.66,205.605 		"/>
	</g>
	<polygon fill="#F7B235" points="200.535,58.628 202.282,55.935 214.734,68.667 	"/>
	<polygon fill="#7C4D24" points="216.408,68.201 221.055,71.59 208.603,71.033 	"/>
	<polygon fill="#41281A" points="208.974,69.689 216.408,68.201 208.603,71.033 	"/>
	<g>
		<g>
			<g>
				<path fill="#302D30" d="M204.233,71.59c2.851,0.366,4.725,0.622,8.024,0.568l1.948,0l1.358,0.025l1.037,0.034l1.174,0.056
					c0.793,0.043,1.606,0.101,2.438,0.175c1.66,0.149,3.39,0.362,5.149,0.67c0.881,0.152,1.769,0.329,2.659,0.532
					c0.875,0.187,1.662,0.446,2.456,0.816c3.165,1.472,5.647,4.533,8.332,7.287c2.661,2.805,5.634,5.343,8.716,7.146
					c3.069,1.828,6.146,3,8.789,3.78c5.314,1.521,8.867,1.744,8.855,1.789c-0.002-0.015,3.511,0.512,8.963,0.574
					c1.398,0.006,2.74-0.001,4.228,0.216c1.469,0.205,3.003,0.581,4.524,1.182c3.056,1.18,6.008,3.318,8.445,6.078
					c4.917,5.518,7.855,13.168,9.555,19.424c0.572,2.102,0.952,3.85,1.139,4.723c0.667,3.233,1.327,5.006,2.306,7.708
					c0.403-2.852,0.475-4.832-0.177-8.151c-0.182-0.897-0.566-2.693-1.153-4.854c-1.757-6.432-4.75-14.354-10.034-20.305
					c-2.622-2.97-5.878-5.344-9.28-6.656c-1.693-0.668-3.4-1.085-5.023-1.31c-1.607-0.239-3.21-0.23-4.503-0.235
					c-5.332-0.059-8.723-0.568-8.722-0.553c0.015-0.041-3.442-0.267-8.504-1.72c-2.517-0.745-5.417-1.854-8.291-3.567
					c-2.889-1.695-5.656-4.049-8.257-6.788c-1.315-1.358-2.609-2.802-4.045-4.183c-1.429-1.375-3.049-2.689-4.934-3.568
					c-0.928-0.438-1.947-0.766-2.897-0.968c-0.931-0.213-1.855-0.396-2.771-0.555c-1.829-0.319-3.617-0.539-5.331-0.693
					c-0.857-0.076-1.695-0.135-2.512-0.18l-1.208-0.057l-1.065-0.034l-1.396-0.023l-1.999,0.011
					C208.846,70.072,206.928,70.575,204.233,71.59z"/>
			</g>
		</g>
	</g>
	<g>
		<g>
			<g>
				<path fill="#302D30" d="M196.721,73.078c2.829,0.518,4.708,0.831,8.019,0.85c0.68,0.007,1.875,0.021,3.364,0.08
					c2.234,0.089,4.943,0.271,7.688,0.7c2.722,0.436,5.569,1.113,7.606,2.356c0.5,0.31,0.943,0.651,1.284,1.02
					c0.333,0.364,0.68,0.845,0.951,1.271c0.558,0.88,0.948,1.758,1.245,2.513c0.581,1.52,0.833,2.531,0.842,2.524l0.637,2.277
					c0.429,1.427,0.909,3.535,2.231,5.792c0.668,1.113,1.614,2.229,2.829,3.055c1.205,0.837,2.616,1.371,4.014,1.666
					c0.346,0.074,0.712,0.135,1.041,0.187l0.936,0.16c0.62,0.117,1.231,0.255,1.828,0.411c1.194,0.312,2.331,0.694,3.375,1.11
					c1.997,0.792,3.543,1.664,4.303,2.106c1.396,0.816,2.487,1.465,3.56,2.057c1.066,0.602,2.122,1.128,3.342,1.884
					c-0.728-1.246-1.479-2.223-2.367-3.147c-0.896-0.919-1.949-1.782-3.431-2.668c-0.806-0.479-2.453-1.415-4.597-2.267
					c-1.12-0.447-2.343-0.859-3.631-1.195c-0.645-0.168-1.305-0.317-1.975-0.444l-1.013-0.173c-0.323-0.051-0.61-0.099-0.913-0.163
					c-1.19-0.251-2.308-0.686-3.229-1.325c-0.929-0.631-1.65-1.473-2.202-2.385c-1.093-1.841-1.59-3.843-2.002-5.247l-0.647-2.302
					c-0.012,0.001-0.262-1.027-0.9-2.707c-0.328-0.836-0.769-1.838-1.431-2.887c-0.344-0.533-0.692-1.035-1.198-1.594
					c-0.508-0.548-1.104-0.998-1.731-1.388c-2.54-1.53-5.55-2.187-8.414-2.662c-2.876-0.45-5.655-0.634-7.944-0.723
					c-1.524-0.057-2.744-0.067-3.438-0.067C201.378,71.767,199.465,72.208,196.721,73.078z"/>
			</g>
		</g>
	</g>
	<polygon fill="#F5F5F6" points="382.349,183.723 359.531,144.131 342.246,133.537 	"/>
	<polygon fill="#C5C5C7" points="362.297,174.242 376.261,183.723 382.349,183.723 	"/>
	<polygon fill="#C5C5C7" points="345.592,152.496 362.297,174.242 382.349,183.723 	"/>
	<polygon fill="#D8D9D9" points="345.592,152.496 342.246,133.537 382.349,183.723 	"/>
	<polygon fill="#F5F5F6" points="342.246,133.537 337.413,122.011 326.817,111.841 	"/>
	<path fill="#D8D9D9" d="M290.015,95.246c0.559,0.372,23.979,7.063,23.979,7.063l13.754,10.224L290.015,95.246z"/>
	<polygon fill="#707072" points="327.747,120.897 326.817,116.064 342.246,133.537 	"/>
	<polygon fill="#D8D9D9" points="326.817,111.841 326.817,116.064 342.246,133.537 	"/>
	<polygon fill="#868788" points="288.155,100.078 290.015,108.072 290.015,95.246 	"/>
	<polygon fill="#D8D9D9" points="326.817,116.064 290.015,95.246 326.817,111.841 	"/>
	<polygon fill="#C5C5C7" points="327.747,120.897 290.015,95.246 326.817,116.064 	"/>
	<polygon fill="#9B9B9D" points="290.015,108.072 305.349,137.16 290.015,95.246 	"/>
	<polygon fill="#B0B2B3" points="325.888,132.607 305.349,137.16 290.015,95.246 	"/>
	<polygon fill="#9B9B9D" points="338.435,158.072 325.888,132.607 305.349,137.16 	"/>
	<polygon fill="#868788" points="338.435,158.072 362.297,174.242 345.592,152.496 	"/>
	<path fill="#B0B2B3" d="M325.888,132.607c0.466,0.557,19.704,19.889,19.704,19.889l-7.157,5.576L325.888,132.607z"/>
	<polygon fill="#B0B2B3" points="325.888,132.607 327.747,120.897 290.015,95.246 	"/>
	<polygon fill="#D8D9D9" points="325.888,132.607 342.246,133.537 327.747,120.897 	"/>
	<polygon fill="#EAEBEC" points="325.888,132.607 345.592,152.496 342.246,133.537 	"/>
	<polygon fill="#F5F5F6" points="267.524,223.023 288.155,203.229 294.29,159.369 	"/>
	<polygon fill="#D8D9D9" points="276.725,223.023 288.155,203.229 267.524,223.023 	"/>
	<polygon fill="#EAEBEC" points="251.385,191.141 294.29,159.369 267.524,223.023 	"/>
	<polygon fill="#C5C5C7" points="225.702,149.43 294.29,159.369 251.385,191.141 	"/>
	<polygon fill="#D8D9D9" points="299.029,137.16 294.29,159.369 225.702,149.43 	"/>
	<polygon fill="#EAEBEC" points="282.858,108.072 299.029,137.16 225.702,149.43 	"/>
	<path fill="#F5F5F6" d="M204.233,97.848c1.395,0.278,78.625,10.224,78.625,10.224l-57.156,41.358L204.233,97.848z"/>
	<polygon fill="#FFFFFF" points="249.122,97.848 204.233,97.848 282.858,108.072 	"/>
	<polygon fill="#707072" points="282.858,108.072 305.349,137.16 299.029,137.16 	"/>
	<polygon fill="#3E3D3F" points="282.858,108.072 290.015,108.072 305.349,137.16 	"/>
	<polygon fill="#D8D9D9" points="147.448,100.452 204.233,97.848 225.702,149.43 	"/>
	<polygon fill="#3E3D3F" points="163.619,182.236 225.702,149.43 225.702,161.791 	"/>
	<polygon fill="#868788" points="251.385,191.141 225.702,161.791 225.702,149.43 	"/>
	<polygon fill="#EAEBEC" points="106.37,117.181 147.448,100.452 90.385,137.16 	"/>
	<polygon fill="#D8D9D9" points="121.426,128.75 90.385,137.16 147.448,100.452 	"/>
	<polygon fill="#C5C5C7" points="157.113,149.43 225.702,149.43 147.448,100.452 	"/>
	<polygon fill="#D8D9D9" points="136.296,140.414 157.113,149.43 147.448,100.452 	"/>
	<polygon fill="#C5C5C7" points="121.426,128.75 136.296,140.414 147.448,100.452 	"/>
	<polygon fill="#C5C5C7" points="93.173,143.762 90.385,137.16 121.426,128.75 	"/>
	<polygon fill="#9B9B9D" points="106.928,141.717 93.173,143.762 121.426,128.75 	"/>
	<polygon fill="#868788" points="118.917,147.479 121.426,128.75 106.928,141.717 	"/>
	<polygon fill="#57575A" points="118.917,147.479 136.296,140.414 121.426,128.75 	"/>
	<polygon fill="#707072" points="129.977,168.668 136.296,140.414 118.917,147.479 	"/>
	<polygon fill="#57575A" points="157.113,149.43 129.977,168.668 136.296,140.414 	"/>
	<polygon fill="#707072" points="176.259,163.369 225.702,149.43 157.113,149.43 	"/>
	<polygon fill="#57575A" points="163.619,182.236 176.259,163.369 225.702,149.43 	"/>
	<polygon fill="#B0B2B3" points="157.113,149.43 163.619,182.236 176.259,163.369 	"/>
	<polygon fill="#F5F5F6" points="141.872,192.459 163.619,182.236 157.113,149.43 	"/>
	<polygon fill="#C5C5C7" points="141.872,192.459 154.232,193.76 163.619,182.236 	"/>
	<polygon fill="#EAEBEC" points="129.977,168.668 141.872,192.459 157.113,149.43 	"/>
	<polygon fill="#F5F5F6" points="127.606,187.068 129.977,168.668 141.872,192.459 	"/>
	<polygon fill="#D8D9D9" points="114.177,214.393 127.606,187.068 141.872,192.459 	"/>
	<polygon fill="#B0B2B3" points="127.606,187.068 121.426,192.459 114.177,214.393 	"/>
	<polygon fill="#C79C63" points="115.153,194.666 121.426,192.459 114.177,214.393 	"/>
	<path fill="#C5C5C7" d="M102.652,211.605"/>
	<polygon fill="#A28878" points="110.087,203.426 115.153,194.666 114.177,214.393 	"/>
	<polygon fill="#CABA9C" points="100.607,211.605 110.087,203.426 114.177,214.393 	"/>
	<polygon fill="#5F4C3F" points="100.607,225.127 114.177,214.393 100.607,219.758 	"/>
	<polygon fill="#786854" points="89.642,225.127 100.607,219.758 100.607,225.127 	"/>
	<polygon fill="#A28878" points="114.177,214.393 95.961,216.252 100.607,219.758 	"/>
	<polygon fill="#CABA9C" points="89.642,225.127 95.961,216.252 100.607,219.758 	"/>
	<polygon fill="#A28878" points="85.18,209.934 100.607,211.605 87.968,212.535 	"/>
	<polygon fill="#CABA9C" points="79.046,218.668 85.18,209.934 87.968,212.535 	"/>
	<polygon fill="#CABA9C" points="89.642,214.299 95.961,216.252 83.507,222.443 	"/>
	<polygon fill="#A28878" points="105.069,212.535 89.642,214.299 95.961,216.252 	"/>
	<polygon fill="#41281A" points="83.507,222.443 91.552,222.443 95.961,216.252 	"/>
	<polygon fill="#41281A" points="105.069,212.535 114.177,214.393 95.961,216.252 	"/>
	<polygon fill="#905E35" points="79.046,218.668 89.642,214.299 87.968,212.535 	"/>
	<polygon fill="#663A16" points="100.607,211.605 87.968,212.535 89.642,214.299 	"/>
	<polygon fill="#41281A" points="100.607,211.605 105.069,212.535 89.642,214.299 	"/>
	<polygon fill="#41281A" points="87.198,217.543 79.046,218.668 89.642,214.299 	"/>
	<polygon fill="#CABA9C" points="102.189,176.475 98.215,191.459 85.18,190.832 	"/>
	<polygon fill="#CABA9C" points="75.562,200.033 70.683,197.314 75.562,195.643 	"/>
	<polygon fill="#CABA9C" points="79.674,197.594 85.18,190.832 75.562,195.643 	"/>
	<polygon fill="#CABA9C" points="84.344,201.775 75.562,204.146 74.516,207.979 	"/>
	<polygon fill="#CABA9C" points="98.215,191.459 84.344,201.775 85.18,197.523 	"/>
	<polygon fill="#CABA9C" points="75.562,200.033 79.674,197.594 85.18,197.523 	"/>
	<path fill="#CABA9C" d="M129.977,168.668"/>
	<polygon fill="#B0B2B3" points="120.451,172.5 116.478,182.236 129.977,168.668 	"/>
	<polygon fill="#C5C5C7" points="111.111,170.945 120.451,172.5 98.215,191.459 	"/>
	<polygon fill="#B0B2B3" points="110.087,186.301 116.478,182.236 120.451,172.5 	"/>
	<polygon fill="#D8D9D9" points="98.215,191.459 110.087,186.301 120.451,172.5 	"/>
	<polygon fill="#C79C63" points="74.168,209.652 74.516,207.979 84.344,201.775 	"/>
	<polygon fill="#C79C63" points="75.562,195.643 79.674,197.594 75.562,200.033 	"/>
	<polygon fill="#C79C63" points="85.18,190.832 98.215,191.459 85.18,197.523 	"/>
	<polygon fill="#C79C63" points="75.562,204.146 85.18,197.523 84.344,201.775 	"/>
	<polygon fill="#A28878" points="85.18,190.832 85.18,197.523 79.674,197.594 	"/>
	<polygon fill="#5F4C3F" points="88.248,202.752 110.087,186.301 98.215,191.459 	"/>
	<polygon fill="#5F4C3F" points="74.168,209.652 88.248,202.752 84.344,201.775 	"/>
	<polygon fill="#786854" points="88.248,202.752 98.215,191.459 84.344,201.775 	"/>
	<polygon fill="#707072" points="116.478,182.236 127.606,187.068 129.977,168.668 	"/>
	<polygon fill="#868788" points="102.189,176.475 111.111,170.945 98.215,191.459 	"/>
	<polygon fill="#EFAC32" points="175.516,93.481 184.159,78.796 186.575,83.722 	"/>
	<polygon fill="#EFB380" points="169.94,87.347 175.516,93.481 184.159,78.796 	"/>
	<polygon fill="#EFB380" points="197.264,95.247 186.575,83.722 175.516,93.481 	"/>
	<g>
		<polygon fill="#96BD0D" points="31.955,56.025 119.269,49.401 37.598,76.843 		"/>
		<polygon fill="#96BD0D" points="186.482,48.693 119.269,49.401 141.872,53.982 		"/>
		<polygon fill="#DEDA03" points="171.43,57.144 141.872,53.982 186.482,48.693 		"/>
		<polygon fill="#DEDA03" points="37.598,76.843 141.872,53.982 119.269,49.401 		"/>
		<polygon fill="#DEDA03" points="29.725,42.777 31.955,56.025 119.269,49.401 		"/>
		<polygon fill="#172559" points="25.821,59.185 32.394,92.83 31.955,56.025 		"/>
		<polygon fill="#172559" points="28.888,54.539 25.821,59.185 31.955,56.025 		"/>
		<polygon fill="#070D0F" points="28.888,54.539 29.725,42.777 31.955,56.025 		"/>
		<polygon fill="#40A42C" points="23.286,81.209 29.707,83.387 32.394,92.83 		"/>
		<polygon fill="#0471B2" points="15.665,83.943 23.286,81.209 23.286,85.67 		"/>
		<polygon fill="#172559" points="23.286,85.67 32.394,92.83 23.286,81.209 		"/>
		<polygon fill="#093280" points="32.394,92.83 32.858,77.774 31.955,56.025 		"/>
		<polygon fill="#36A7DA" points="143.615,57.144 32.394,92.83 37.598,76.843 		"/>
		<polygon fill="#093280" points="141.872,53.982 143.615,57.144 37.598,76.843 		"/>
		<polygon fill="#093280" points="145.705,61.142 169.013,66.624 143.615,57.144 		"/>
		<polygon fill="#080614" points="171.43,57.144 169.013,66.624 141.872,53.982 		"/>
		<polygon fill="#172559" points="141.872,53.982 169.013,66.624 143.615,57.144 		"/>
		<polygon fill="#E97EAA" points="162.643,15.785 169.43,14.019 178.496,28.434 		"/>
		<polygon fill="#E20A6F" points="181.836,39.391 178.496,28.434 162.643,15.785 		"/>
		<polygon fill="#622580" points="172.728,49.409 170.498,32.421 177.093,44.042 		"/>
		<polygon fill="#D20050" points="162.643,15.785 170.498,32.421 181.836,39.391 		"/>
		<polygon fill="#E97EAA" points="181.836,48.693 181.836,39.391 177.093,44.042 		"/>
		<polygon fill="#F7CDDE" points="186.482,37.625 186.482,48.035 181.836,48.693 181.836,39.391 		"/>
		<polygon fill="#95506F" points="172.728,49.409 181.836,48.693 177.093,44.042 		"/>
		<polygon fill="#E97EAA" points="186.482,37.625 178.496,28.434 181.836,39.391 		"/>
		<polygon fill="#E0027A" points="169.43,14.019 186.482,37.625 178.496,28.434 		"/>
		<polygon fill="#F7B235" points="186.482,48.035 186.482,48.693 181.836,48.693 		"/>
		<polygon fill="#B28329" points="200.535,58.628 197.264,63.328 214.734,68.667 		"/>
		<polygon fill="#6F531A" points="208.974,69.689 197.264,63.328 214.734,68.667 		"/>
		<polygon fill="#BA882C" points="186.482,48.693 202.282,55.935 200.535,58.628 		"/>
		<polygon fill="#C38E2C" points="187.969,58.628 197.264,63.328 200.535,58.628 		"/>
		<polygon fill="#F4AF32" points="186.482,48.693 187.969,58.628 200.535,58.628 		"/>
		<polygon fill="#D79B2E" points="184.159,78.796 187.969,58.628 186.482,48.693 		"/>
		<polyline fill="#C58F2D" points="186.575,83.722 184.159,78.796 187.969,58.628 		"/>
		<polygon fill="#A37926" points="178.496,58.628 184.159,78.796 186.482,48.693 		"/>
		<polygon fill="#7E5D1D" points="171.43,57.144 178.496,58.628 186.482,48.693 		"/>
		<polygon fill="#574021" points="167.895,82.421 178.496,58.628 169.013,66.624 		"/>
		<polygon fill="#382B11" points="171.43,57.144 178.496,58.628 169.013,66.624 		"/>
		<polygon fill="#382B11" points="167.895,82.421 178.955,80.191 178.496,58.628 		"/>
		<polygon fill="#5D4417" points="178.955,80.191 184.159,78.796 178.496,58.628 		"/>
		<polygon fill="#5D4417" points="187.488,67.277 195.219,69.689 187.189,72.656 		"/>
		<polygon fill="#F7B235" points="204.698,69.41 195.219,69.689 187.189,72.656 		"/>
		<polygon fill="#463514" points="187.189,75.265 199.122,72.656 196.721,70.888 		"/>
		<polygon fill="#AD8029" points="196.721,70.888 187.189,72.656 187.189,75.265 		"/>
		<polygon fill="#7C5A1D" points="208.603,70.525 199.122,72.656 196.721,70.888 		"/>
		<polygon fill="#AD8029" points="204.698,69.41 208.603,70.525 196.721,70.888 		"/>
		<polygon fill="#41281A" points="163.713,89.02 167.895,82.421 178.955,80.191 		"/>
		<polygon fill="#7C4D24" points="178.955,80.191 169.94,87.347 163.713,89.02 		"/>
		<polygon fill="#C79C63" points="178.955,80.191 184.159,78.796 169.94,87.347 		"/>
		<polygon fill="#41281A" points="165.967,65.907 168.52,73.597 169.013,66.624 		"/>
		<polygon fill="#172559" points="31.955,56.025 37.598,76.843 32.858,77.774 		"/>
		<polygon fill="#0471B2" points="37.598,76.843 32.394,92.83 32.858,77.774 		"/>
		<polygon fill="#009E94" points="35.064,91.346 145.705,61.142 143.615,57.144 		"/>
		<polygon fill="#9F0E59" points="181.836,39.391 177.093,44.042 170.498,32.421 		"/>
		<polygon fill="#9F0E59" points="154.141,78.796 156.313,76.196 163.713,89.02 		"/>
		<polygon fill="#BD0C27" points="156.313,76.196 165.097,86.837 163.713,89.02 		"/>
		<polygon fill="#C79C63" points="216.641,139.67 205.349,131.445 199.122,137.301 		"/>
		<polygon fill="#905E35" points="191.955,136.324 194.252,131.445 205.349,131.445 		"/>
		<polygon fill="#AF7F48" points="205.349,131.445 199.122,137.301 191.955,136.324 		"/>
		<polygon fill="#AF7F48" points="202.661,120.154 194.252,131.445 205.349,131.445 		"/>
		<polygon fill="#C79C63" points="194.381,110.117 195.943,129.174 202.661,120.154 		"/>
		<polygon fill="#AF7F48" points="204.698,103.146 202.661,120.154 194.381,110.117 		"/>
		<polygon fill="#C79C63" points="197.264,95.247 204.698,103.146 194.381,110.117 		"/>
		<polygon fill="#AF7F48" points="182.489,100.08 194.381,110.117 197.264,95.247 		"/>
		<polygon fill="#905E35" points="161.993,92.83 171.43,98.963 169.94,87.347 		"/>
		<polygon fill="#7C4D24" points="182.489,100.08 175.516,93.481 171.43,98.963 		"/>
		<polygon fill="#C79C63" points="197.264,95.247 175.516,93.481 182.489,100.08 		"/>
		<polygon fill="#663A16" points="163.713,89.02 161.993,92.83 169.94,87.347 		"/>
		<polygon fill="#663A16" points="171.43,98.963 169.94,87.347 175.516,93.481 		"/>
		<polygon fill="#7C4D24" points="194.252,131.445 194.381,110.117 195.943,129.174 		"/>
		<polygon fill="#41281A" points="179.79,101.938 194.381,110.117 182.489,100.08 		"/>
		<polygon fill="#905E35" points="172.014,99.022 179.79,101.938 182.489,100.08 		"/>
		<polygon fill="#36A7DA" points="194.252,92 199.801,89.765 205.999,95.247 		"/>
		<polygon fill="#0471B2" points="201.165,88.557 205.999,95.247 199.801,89.765 		"/>
		<polygon fill="#0471B2" points="205.999,95.247 201.165,88.557 208.603,89.485 		"/>
		<polygon fill="#36A7DA" points="213.805,96.271 208.603,89.485 205.999,95.247 		"/>
		<polygon fill="#093280" points="208.135,107.795 213.805,96.271 205.999,95.247 		"/>
		<polygon fill="#0471B2" points="194.252,92 197.264,95.247 205.999,95.247 		"/>
		<polygon fill="#36A7DA" points="204.698,103.146 205.999,95.247 197.264,95.247 		"/>
		<polygon fill="#172559" points="203.908,109.742 208.135,107.795 204.698,103.146 		"/>
		<polygon fill="#093280" points="208.135,107.795 205.999,95.247 204.698,103.146 		"/>
		<polyline fill="#36A7DA" points="161.993,92.83 157.671,94.503 158.764,108.724 158.764,108.724 		"/>
		<polygon fill="#093280" points="194.252,115.323 177.252,118.854 194.381,110.117 		"/>
		<polygon fill="#0471B2" points="179.79,101.938 177.252,118.854 194.381,110.117 		"/>
		<polygon fill="#093280" points="158.764,108.724 171.43,98.963 179.79,101.938 		"/>
		<polygon fill="#0471B2" points="158.764,108.724 161.993,92.83 171.43,98.963 		"/>
		<polygon fill="#172559" points="158.764,108.724 177.252,118.854 179.79,101.938 		"/>
		<line fill="#57575A" x1="191.955" y1="136.324" x2="194.252" y2="131.445"/>
		<path fill="#57575A" d="M189.255,139.67"/>
	</g>
	<polygon fill="#F7F4C6" points="37.598,76.843 171.43,57.144 143.545,52.918 	"/>
</g>
</svg>
