<?xml version="1.0" encoding="utf-8"?>
<!-- Generator: Adobe Illustrator 15.0.2, SVG Export Plug-In . SVG Version: 6.00 Build 0)  -->
<!DOCTYPE svg PUBLIC "-//W3C//DTD SVG 1.1//EN" "http://www.w3.org/Graphics/SVG/1.1/DTD/svg11.dtd">
<svg version="1.1" xmlns="http://www.w3.org/2000/svg" xmlns:xlink="http://www.w3.org/1999/xlink" x="0px" y="0px" width="400px"
	 height="250px" viewBox="0 0 400 250" enable-background="new 0 0 400 250" xml:space="preserve">
<g id="Capa_1">
</g>
<g id="Capa_2">
	<g>
		<polygon fill="#9B9B9D" points="186.575,152.676 187.411,178.17 194.66,185.605 		"/>
		<polygon fill="#9B9B9D" points="220.909,141.369 216.594,156.891 194.66,185.605 		"/>
		<polygon fill="#3E3D3F" points="186.575,152.676 203.287,147.174 194.66,185.605 		"/>
		<polygon fill="#57575A" points="203.287,147.174 220.909,141.369 194.66,185.605 		"/>
	</g>
	<polygon fill="#F7B235" points="200.535,58.628 202.282,55.935 214.734,68.667 	"/>
	<polygon fill="#7C4D24" points="216.408,68.201 221.055,71.59 208.603,71.033 	"/>
	<polygon fill="#41281A" points="208.974,69.689 216.408,68.201 208.603,71.033 	"/>
	<g>
		<g>
			<g>
				<path fill="#302D30" d="M204.233,71.59c2.851,0.366,4.725,0.622,8.024,0.568l1.948,0l1.358,0.025l1.114,0.038l1.266,0.062
					c0.855,0.048,1.733,0.115,2.629,0.199c1.79,0.169,3.652,0.417,5.545,0.773c0.932,0.18,1.935,0.383,2.821,0.624
					c0.901,0.255,1.794,0.599,2.668,1.021c3.513,1.694,6.661,4.487,9.877,7.088c3.202,2.622,6.587,5.102,10.186,6.614
					c3.58,1.551,7.239,2.046,10.261,1.935c3.037-0.1,5.465-0.669,7.114-1.116c1.652-0.457,2.552-0.798,2.554-0.792
					c-0.002-0.005,0.916-0.3,2.49-0.945c0.787-0.309,1.754-0.788,2.737-1.16c1.019-0.371,2.208-0.681,3.517-0.737
					c1.307-0.061,2.729,0.154,4.129,0.757c1.4,0.596,2.769,1.562,4.013,2.8c2.505,2.481,4.525,5.923,6.188,9.597
					c1.664,3.689,2.985,7.656,4.073,11.567c0.544,1.956,1.028,3.901,1.461,5.803l0.611,2.816l0.524,2.642
					c0.409,2.155,0.702,3.932,0.849,4.819c0.528,3.279,1.151,5.085,2.138,7.786c0.395-2.852,0.512-4.805,0.01-8.129
					c-0.14-0.9-0.431-2.7-0.844-4.885l-0.531-2.678l-0.62-2.857c-0.439-1.931-0.932-3.909-1.486-5.903
					c-1.111-3.987-2.461-8.048-4.19-11.881c-1.735-3.817-3.841-7.461-6.646-10.249c-1.395-1.387-2.99-2.53-4.693-3.254
					c-1.698-0.734-3.485-1.005-5.077-0.928c-1.6,0.07-3.003,0.444-4.176,0.872c-1.202,0.46-2.051,0.894-2.814,1.191
					c-1.505,0.618-2.374,0.898-2.373,0.903c-0.001-0.006-0.858,0.318-2.415,0.748c-1.553,0.42-3.824,0.947-6.606,1.036
					c-2.773,0.097-6.06-0.346-9.339-1.766c-3.297-1.385-6.497-3.708-9.662-6.303c-3.184-2.563-6.401-5.465-10.308-7.365
					c-0.973-0.469-1.986-0.861-3.023-1.155c-1.058-0.285-2.011-0.473-3.009-0.668c-1.97-0.37-3.897-0.626-5.745-0.8
					c-0.925-0.086-1.829-0.155-2.709-0.204l-1.303-0.063l-1.146-0.038l-1.396-0.023l-1.999,0.011
					C208.846,70.072,206.928,70.575,204.233,71.59z"/>
			</g>
		</g>
	</g>
	<g>
		<g>
			<g>
				<path fill="#302D30" d="M196.721,73.078c2.829,0.518,4.708,0.831,8.019,0.85c0.68,0.007,1.875,0.021,3.364,0.08
					c2.25,0.089,4.977,0.273,7.74,0.708c2.738,0.442,5.606,1.132,7.639,2.401c0.502,0.314,0.933,0.667,1.266,1.042
					c0.346,0.388,0.668,0.854,0.926,1.292c0.526,0.889,0.862,1.785,1.106,2.555c0.474,1.55,0.629,2.586,0.64,2.58l0.43,2.338
					c0.139,0.744,0.299,1.648,0.584,2.687c0.292,1.027,0.696,2.239,1.591,3.376c0.875,1.155,2.34,1.981,3.793,2.263
					c0.182,0.043,0.364,0.069,0.547,0.101l0.466,0.075l0.931,0.178c0.621,0.132,1.243,0.29,1.861,0.468
					c2.473,0.713,4.856,1.762,6.895,2.813c1.936,0.999,3.464,1.946,4.222,2.419c2.771,1.766,4.482,2.556,7.076,3.792
					c-1.715-2.312-3.067-3.777-5.913-5.631c-0.78-0.498-2.359-1.483-4.38-2.527c-2.128-1.099-4.634-2.205-7.293-2.972
					c-0.664-0.191-1.337-0.361-2.014-0.505c-0.339-0.071-0.678-0.136-1.018-0.194l-0.507-0.082c-0.139-0.025-0.28-0.044-0.415-0.077
					c-1.098-0.228-1.959-0.735-2.542-1.484c-0.596-0.744-0.947-1.698-1.198-2.599c-0.251-0.905-0.407-1.769-0.543-2.494
					l-0.439-2.371c-0.014,0.001-0.164-1.06-0.693-2.809c-0.276-0.87-0.662-1.918-1.306-3.009c-0.326-0.55-0.688-1.086-1.175-1.638
					c-0.502-0.564-1.094-1.038-1.726-1.435c-2.55-1.571-5.583-2.237-8.466-2.72c-2.896-0.456-5.694-0.641-7.999-0.731
					c-1.524-0.057-2.744-0.067-3.438-0.067C201.378,71.767,199.465,72.208,196.721,73.078z"/>
			</g>
		</g>
	</g>
	<polygon fill="#9B9B9D" points="290.015,108.072 305.349,137.16 290.015,95.246 	"/>
	<g>
		<polygon fill="#F5F5F6" points="385.161,178.522 359.785,140.521 341.84,131.089 		"/>
		<polygon fill="#C5C5C7" points="364.528,170.385 379.087,178.924 385.161,178.522 		"/>
		<polygon fill="#C5C5C7" points="346.426,149.786 364.528,170.385 385.161,178.522 		"/>
		<polygon fill="#D8D9D9" points="346.426,149.786 341.84,131.089 385.161,178.522 		"/>
		<polygon fill="#F5F5F6" points="341.84,131.089 336.257,119.907 325.014,110.457 		"/>
		<path fill="#D8D9D9" d="M287.197,96.322c0.583,0.334,24.392,5.468,24.392,5.468l14.398,9.295L287.197,96.322z"/>
		<polygon fill="#707072" points="326.538,119.432 325.292,114.671 341.84,131.089 		"/>
		<polygon fill="#D8D9D9" points="325.014,110.457 325.292,114.671 341.84,131.089 		"/>
		<polygon fill="#868788" points="285.662,101.267 288.043,109.122 287.197,96.322 		"/>
		<polygon fill="#D8D9D9" points="325.292,114.671 287.197,96.322 325.014,110.457 		"/>
		<polygon fill="#C5C5C7" points="326.538,119.432 287.197,96.322 325.292,114.671 		"/>
		<polygon fill="#B0B2B3" points="325.455,131.239 305.261,137.136 287.197,96.322 		"/>
		<polygon fill="#9B9B9D" points="339.653,155.822 325.455,131.239 305.261,137.136 		"/>
		<polygon fill="#868788" points="339.653,155.822 364.528,170.385 346.426,149.786 		"/>
		<path fill="#B0B2B3" d="M325.455,131.239c0.501,0.525,20.971,18.547,20.971,18.547l-6.772,6.036L325.455,131.239z"/>
		<polygon fill="#B0B2B3" points="325.455,131.239 326.538,119.432 287.197,96.322 		"/>
		<polygon fill="#D8D9D9" points="325.455,131.239 341.84,131.089 326.538,119.432 		"/>
		<polygon fill="#EAEBEC" points="325.455,131.239 346.426,149.786 341.84,131.089 		"/>
	</g>
	<polygon fill="#F5F5F6" points="267.524,204.023 288.155,191.229 294.29,156.369 	"/>
	<polygon fill="#D8D9D9" points="276.725,204.023 288.155,191.229 267.524,204.023 	"/>
	<polygon fill="#EAEBEC" points="240.385,176.141 294.29,156.369 267.524,204.023 	"/>
	<polygon fill="#C5C5C7" points="225.702,149.43 294.29,156.369 240.385,176.141 	"/>
	<polygon fill="#D8D9D9" points="299.029,137.16 294.29,156.369 225.702,149.43 	"/>
	<polygon fill="#EAEBEC" points="282.858,108.072 299.029,137.16 225.702,149.43 	"/>
	<path fill="#F5F5F6" d="M204.233,97.848c1.395,0.278,78.625,10.224,78.625,10.224l-57.156,41.358L204.233,97.848z"/>
	<polygon fill="#FFFFFF" points="249.122,97.848 204.233,97.848 282.858,108.072 	"/>
	<polygon fill="#707072" points="282.858,108.072 305.349,137.16 299.029,137.16 	"/>
	<polygon fill="#3E3D3F" points="282.858,108.072 290.015,108.072 305.349,137.16 	"/>
	<polygon fill="#D8D9D9" points="147.448,100.452 204.233,97.848 225.702,149.43 	"/>
	<polygon fill="#3E3D3F" points="163.619,182.236 225.702,149.43 225.702,161.791 	"/>
	<polygon fill="#868788" points="240.385,176.141 225.702,161.791 225.702,149.43 	"/>
	<polygon fill="#EAEBEC" points="106.37,117.181 147.448,100.452 90.385,129.16 	"/>
	<polygon fill="#D8D9D9" points="121.426,128.75 90.385,129.16 147.448,100.452 	"/>
	<polygon fill="#C5C5C7" points="157.113,149.43 225.702,149.43 147.448,100.452 	"/>
	<polygon fill="#D8D9D9" points="136.296,140.414 157.113,149.43 147.448,100.452 	"/>
	<polygon fill="#C5C5C7" points="121.426,128.75 136.296,140.414 147.448,100.452 	"/>
	<polygon fill="#C5C5C7" points="93.173,135.762 90.385,129.16 121.426,128.75 	"/>
	<polygon fill="#9B9B9D" points="106.928,141.717 93.173,135.762 121.426,128.75 	"/>
	<polygon fill="#868788" points="118.917,147.479 121.426,128.75 106.928,141.717 	"/>
	<polygon fill="#57575A" points="118.917,147.479 136.296,140.414 121.426,128.75 	"/>
	<polygon fill="#707072" points="129.977,168.668 136.296,140.414 118.917,147.479 	"/>
	<polygon fill="#57575A" points="157.113,149.43 129.977,168.668 136.296,140.414 	"/>
	<polygon fill="#707072" points="176.259,163.369 225.702,149.43 157.113,149.43 	"/>
	<polygon fill="#57575A" points="163.619,182.236 176.259,163.369 225.702,149.43 	"/>
	<polygon fill="#B0B2B3" points="157.113,149.43 163.619,182.236 176.259,163.369 	"/>
	<polygon fill="#F5F5F6" points="141.872,189.459 163.619,182.236 157.113,149.43 	"/>
	<polygon fill="#C5C5C7" points="141.872,189.459 154.232,190.76 163.619,182.236 	"/>
	<polygon fill="#EAEBEC" points="129.977,168.668 141.872,189.459 157.113,149.43 	"/>
	<polygon fill="#F5F5F6" points="127.606,187.068 129.977,168.668 141.872,189.459 	"/>
	<g>
		<polygon fill="#D8D9D9" points="114.177,220.393 127.606,187.068 141.872,189.459 		"/>
		<polygon fill="#B0B2B3" points="127.606,187.068 121.426,192.459 114.177,220.393 		"/>
		<polygon fill="#C79C63" points="115.153,197.666 121.426,192.459 114.177,220.393 		"/>
		<path fill="#C5C5C7" d="M102.652,217.605"/>
		<polygon fill="#A28878" points="110.087,206.426 115.153,197.666 114.177,220.393 		"/>
		<polygon fill="#CABA9C" points="100.607,217.605 110.087,206.426 114.177,220.393 		"/>
		<polygon fill="#5F4C3F" points="100.607,231.127 114.177,220.393 100.607,225.758 		"/>
		<polygon fill="#786854" points="89.642,231.127 100.607,225.758 100.607,231.127 		"/>
		<polygon fill="#A28878" points="114.177,220.393 95.961,222.252 100.607,225.758 		"/>
		<polygon fill="#CABA9C" points="89.642,231.127 95.961,222.252 100.607,225.758 		"/>
		<polygon fill="#A28878" points="85.18,215.934 100.607,217.605 87.968,218.535 		"/>
		<polygon fill="#CABA9C" points="79.046,224.668 85.18,215.934 87.968,218.535 		"/>
		<polygon fill="#CABA9C" points="89.642,220.299 95.961,222.252 83.507,228.443 		"/>
		<polygon fill="#A28878" points="105.069,218.535 89.642,220.299 95.961,222.252 		"/>
		<polygon fill="#41281A" points="83.507,228.443 91.552,228.443 95.961,222.252 		"/>
		<polygon fill="#41281A" points="105.069,218.535 114.177,220.393 95.961,222.252 		"/>
		<polygon fill="#905E35" points="79.046,224.668 89.642,220.299 87.968,218.535 		"/>
		<polygon fill="#663A16" points="100.607,217.605 87.968,218.535 89.642,220.299 		"/>
		<polygon fill="#41281A" points="100.607,217.605 105.069,218.535 89.642,220.299 		"/>
		<polygon fill="#41281A" points="87.198,223.543 79.046,224.668 89.642,220.299 		"/>
	</g>
	<polygon fill="#CABA9C" points="102.189,172.475 98.215,184.459 85.18,183.832 	"/>
	<polygon fill="#CABA9C" points="75.562,193.033 70.683,190.314 75.562,188.643 	"/>
	<polygon fill="#CABA9C" points="79.674,190.594 85.18,183.832 75.562,188.643 	"/>
	<polygon fill="#CABA9C" points="84.344,194.775 75.562,197.146 74.516,200.979 	"/>
	<polygon fill="#CABA9C" points="98.215,184.459 84.344,194.775 85.18,190.523 	"/>
	<polygon fill="#CABA9C" points="75.562,193.033 79.674,190.594 85.18,190.523 	"/>
	<path fill="#CABA9C" d="M129.977,168.668"/>
	<polygon fill="#B0B2B3" points="120.451,172.5 116.478,182.236 129.977,168.668 	"/>
	<polygon fill="#C5C5C7" points="111.111,166.945 120.451,172.5 98.215,184.459 	"/>
	<polygon fill="#B0B2B3" points="110.087,182.301 116.478,182.236 120.451,172.5 	"/>
	<polygon fill="#D8D9D9" points="98.215,184.459 110.087,182.301 120.451,172.5 	"/>
	<polygon fill="#C79C63" points="74.168,205.652 74.516,200.979 84.344,194.775 	"/>
	<polygon fill="#C79C63" points="75.562,188.643 79.674,190.594 75.562,193.033 	"/>
	<polygon fill="#C79C63" points="85.18,183.832 98.215,184.459 85.18,190.523 	"/>
	<polygon fill="#C79C63" points="75.562,197.146 85.18,190.523 84.344,194.775 	"/>
	<polygon fill="#A28878" points="85.18,183.832 85.18,190.523 79.674,190.594 	"/>
	<polygon fill="#5F4C3F" points="88.248,195.752 110.087,182.301 98.215,184.459 	"/>
	<polygon fill="#5F4C3F" points="74.168,205.652 88.248,195.752 84.344,194.775 	"/>
	<polygon fill="#786854" points="88.248,195.752 98.215,184.459 84.344,194.775 	"/>
	<polygon fill="#707072" points="116.478,182.236 127.606,187.068 129.977,168.668 	"/>
	<polygon fill="#868788" points="102.189,172.475 111.111,166.945 98.215,184.459 	"/>
	<polygon fill="#EFAC32" points="175.516,93.481 184.159,78.796 186.575,83.722 	"/>
	<polygon fill="#EFB380" points="169.94,87.347 175.516,93.481 184.159,78.796 	"/>
	<polygon fill="#EFB380" points="197.264,95.247 186.575,83.722 175.516,93.481 	"/>
	<g>
		<polygon fill="#96BD0D" points="31.955,55.025 119.269,52.401 37.598,71.843 		"/>
		<polygon fill="#96BD0D" points="186.482,48.693 119.269,52.401 141.872,53.982 		"/>
		<polygon fill="#DEDA03" points="171.43,57.144 141.872,53.982 186.482,48.693 		"/>
		<polygon fill="#DEDA03" points="37.598,71.843 141.872,53.982 119.269,52.401 		"/>
		<polygon fill="#DEDA03" points="29.725,41.777 31.955,55.025 119.269,52.401 		"/>
		<polygon fill="#172559" points="22.821,54.185 32.394,87.83 31.955,55.025 		"/>
		<polygon fill="#172559" points="28.888,53.539 22.821,54.185 31.955,55.025 		"/>
		<polygon fill="#070D0F" points="28.888,53.539 29.725,41.777 31.955,55.025 		"/>
		<polygon fill="#40A42C" points="23.286,81.209 29.707,78.387 32.394,87.83 		"/>
		<polygon fill="#0471B2" points="18.665,86.943 23.286,81.209 23.286,85.67 		"/>
		<polygon fill="#172559" points="23.286,85.67 32.394,87.83 23.286,81.209 		"/>
		<polygon fill="#093280" points="32.394,87.83 32.858,72.774 31.955,55.025 		"/>
		<polygon fill="#36A7DA" points="143.615,57.144 32.394,87.83 37.598,71.843 		"/>
		<polygon fill="#093280" points="141.872,53.982 143.615,57.144 37.598,71.843 		"/>
		<polygon fill="#093280" points="145.705,61.142 169.013,66.624 143.615,57.144 		"/>
		<polygon fill="#080614" points="171.43,57.144 169.013,66.624 141.872,53.982 		"/>
		<polygon fill="#172559" points="141.872,53.982 169.013,66.624 143.615,57.144 		"/>
		<polygon fill="#E97EAA" points="163.643,15.785 170.43,14.019 179.496,28.434 		"/>
		<polygon fill="#E20A6F" points="181.836,39.391 179.496,28.434 163.643,15.785 		"/>
		<polygon fill="#622580" points="172.728,49.409 170.498,32.421 177.093,44.042 		"/>
		<polygon fill="#D20050" points="163.643,15.785 170.498,32.421 181.836,39.391 		"/>
		<polygon fill="#E97EAA" points="181.836,48.693 181.836,39.391 177.093,44.042 		"/>
		<polygon fill="#F7CDDE" points="186.482,37.625 186.482,48.035 181.836,48.693 181.836,39.391 		"/>
		<polygon fill="#95506F" points="172.728,49.409 181.836,48.693 177.093,44.042 		"/>
		<polygon fill="#E97EAA" points="186.482,37.625 179.496,28.434 181.836,39.391 		"/>
		<polygon fill="#E0027A" points="170.43,14.019 186.482,37.625 179.496,28.434 		"/>
		<polygon fill="#F7B235" points="186.482,48.035 186.482,48.693 181.836,48.693 		"/>
		<polygon fill="#B28329" points="200.535,58.628 197.264,63.328 214.734,68.667 		"/>
		<polygon fill="#6F531A" points="208.974,69.689 197.264,63.328 214.734,68.667 		"/>
		<polygon fill="#BA882C" points="186.482,48.693 202.282,55.935 200.535,58.628 		"/>
		<polygon fill="#C38E2C" points="187.969,58.628 197.264,63.328 200.535,58.628 		"/>
		<polygon fill="#F4AF32" points="186.482,48.693 187.969,58.628 200.535,58.628 		"/>
		<polygon fill="#D79B2E" points="184.159,78.796 187.969,58.628 186.482,48.693 		"/>
		<polyline fill="#C58F2D" points="186.575,83.722 184.159,78.796 187.969,58.628 		"/>
		<polygon fill="#A37926" points="178.496,58.628 184.159,78.796 186.482,48.693 		"/>
		<polygon fill="#7E5D1D" points="171.43,57.144 178.496,58.628 186.482,48.693 		"/>
		<polygon fill="#574021" points="167.895,82.421 178.496,58.628 169.013,66.624 		"/>
		<polygon fill="#382B11" points="171.43,57.144 178.496,58.628 169.013,66.624 		"/>
		<polygon fill="#382B11" points="167.895,82.421 178.955,80.191 178.496,58.628 		"/>
		<polygon fill="#5D4417" points="178.955,80.191 184.159,78.796 178.496,58.628 		"/>
		<polygon fill="#5D4417" points="187.488,67.277 195.219,69.689 187.189,72.656 		"/>
		<polygon fill="#F7B235" points="204.698,69.41 195.219,69.689 187.189,72.656 		"/>
		<polygon fill="#463514" points="187.189,75.265 199.122,72.656 196.721,70.888 		"/>
		<polygon fill="#AD8029" points="196.721,70.888 187.189,72.656 187.189,75.265 		"/>
		<polygon fill="#7C5A1D" points="208.603,70.525 199.122,72.656 196.721,70.888 		"/>
		<polygon fill="#AD8029" points="204.698,69.41 208.603,70.525 196.721,70.888 		"/>
		<polygon fill="#41281A" points="163.713,89.02 167.895,82.421 178.955,80.191 		"/>
		<polygon fill="#7C4D24" points="178.955,80.191 169.94,87.347 163.713,89.02 		"/>
		<polygon fill="#C79C63" points="178.955,80.191 184.159,78.796 169.94,87.347 		"/>
		<polygon fill="#41281A" points="165.967,65.907 168.52,73.597 169.013,66.624 		"/>
		<polygon fill="#172559" points="31.955,55.025 37.598,71.843 32.858,72.774 		"/>
		<polygon fill="#0471B2" points="37.598,71.843 32.394,87.83 32.858,72.774 		"/>
		<polygon fill="#009E94" points="35.064,86.346 145.705,61.142 143.615,57.144 		"/>
		<polygon fill="#9F0E59" points="181.836,39.391 177.093,44.042 170.498,32.421 		"/>
		<polygon fill="#9F0E59" points="153.141,80.796 155.313,78.196 163.713,89.02 		"/>
		<polygon fill="#BD0C27" points="155.313,78.196 165.097,86.837 163.713,89.02 		"/>
		<polygon fill="#C79C63" points="216.641,139.67 205.349,131.445 199.122,137.301 		"/>
		<polygon fill="#905E35" points="191.955,136.324 194.252,131.445 205.349,131.445 		"/>
		<polygon fill="#AF7F48" points="205.349,131.445 199.122,137.301 191.955,136.324 		"/>
		<polygon fill="#AF7F48" points="202.661,120.154 194.252,131.445 205.349,131.445 		"/>
		<polygon fill="#C79C63" points="194.381,110.117 195.943,129.174 202.661,120.154 		"/>
		<polygon fill="#AF7F48" points="204.698,103.146 202.661,120.154 194.381,110.117 		"/>
		<polygon fill="#C79C63" points="197.264,95.247 204.698,103.146 194.381,110.117 		"/>
		<polygon fill="#AF7F48" points="182.489,100.08 194.381,110.117 197.264,95.247 		"/>
		<polygon fill="#905E35" points="161.993,92.83 171.43,98.963 169.94,87.347 		"/>
		<polygon fill="#7C4D24" points="182.489,100.08 175.516,93.481 171.43,98.963 		"/>
		<polygon fill="#C79C63" points="197.264,95.247 175.516,93.481 182.489,100.08 		"/>
		<polygon fill="#663A16" points="163.713,89.02 161.993,92.83 169.94,87.347 		"/>
		<polygon fill="#663A16" points="171.43,98.963 169.94,87.347 175.516,93.481 		"/>
		<polygon fill="#7C4D24" points="194.252,131.445 194.381,110.117 195.943,129.174 		"/>
		<polygon fill="#41281A" points="179.79,101.938 194.381,110.117 182.489,100.08 		"/>
		<polygon fill="#905E35" points="172.014,99.022 179.79,101.938 182.489,100.08 		"/>
		<polygon fill="#36A7DA" points="194.252,92 199.801,89.765 205.999,95.247 		"/>
		<polygon fill="#0471B2" points="201.165,88.557 205.999,95.247 199.801,89.765 		"/>
		<polygon fill="#0471B2" points="205.999,95.247 201.165,88.557 208.603,89.485 		"/>
		<polygon fill="#36A7DA" points="213.805,96.271 208.603,89.485 205.999,95.247 		"/>
		<polygon fill="#093280" points="208.135,107.795 213.805,96.271 205.999,95.247 		"/>
		<polygon fill="#0471B2" points="194.252,92 197.264,95.247 205.999,95.247 		"/>
		<polygon fill="#36A7DA" points="204.698,103.146 205.999,95.247 197.264,95.247 		"/>
		<polygon fill="#172559" points="203.908,109.742 208.135,107.795 204.698,103.146 		"/>
		<polygon fill="#093280" points="208.135,107.795 205.999,95.247 204.698,103.146 		"/>
		<polyline fill="#36A7DA" points="161.993,92.83 157.671,94.503 158.764,108.724 158.764,108.724 		"/>
		<polygon fill="#093280" points="194.252,115.323 177.252,118.854 194.381,110.117 		"/>
		<polygon fill="#0471B2" points="179.79,101.938 177.252,118.854 194.381,110.117 		"/>
		<polygon fill="#093280" points="158.764,108.724 171.43,98.963 179.79,101.938 		"/>
		<polygon fill="#0471B2" points="158.764,108.724 161.993,92.83 171.43,98.963 		"/>
		<polygon fill="#172559" points="158.764,108.724 177.252,118.854 179.79,101.938 		"/>
		<line fill="#57575A" x1="191.955" y1="136.324" x2="194.252" y2="131.445"/>
		<path fill="#57575A" d="M189.255,139.67"/>
	</g>
	<polygon fill="#F7F4C6" points="37.598,71.843 171.43,57.144 143.545,52.918 	"/>
</g>
</svg>
