<?xml version="1.0" encoding="utf-8"?>
<!-- Generator: Adobe Illustrator 15.0.2, SVG Export Plug-In . SVG Version: 6.00 Build 0)  -->
<!DOCTYPE svg PUBLIC "-//W3C//DTD SVG 1.1//EN" "http://www.w3.org/Graphics/SVG/1.1/DTD/svg11.dtd">
<svg version="1.1" xmlns="http://www.w3.org/2000/svg" xmlns:xlink="http://www.w3.org/1999/xlink" x="0px" y="0px" width="400px"
	 height="250px" viewBox="0 0 400 250" enable-background="new 0 0 400 250" xml:space="preserve">
<g id="Capa_1">
</g>
<g id="Capa_2">
	<g>
		<polygon fill="#9B9B9D" points="186.575,163.676 187.411,189.17 194.66,196.605 		"/>
		<polygon fill="#9B9B9D" points="220.909,152.369 216.594,167.891 194.66,196.605 		"/>
		<polygon fill="#3E3D3F" points="186.575,163.676 203.287,158.174 194.66,196.605 		"/>
		<polygon fill="#57575A" points="203.287,158.174 220.909,152.369 194.66,196.605 		"/>
	</g>
	<polygon fill="#F7B235" points="200.535,58.628 202.282,55.935 214.734,68.667 	"/>
	<polygon fill="#7C4D24" points="216.408,68.201 221.055,71.59 208.603,71.033 	"/>
	<polygon fill="#41281A" points="208.974,69.689 216.408,68.201 208.603,71.033 	"/>
	<g>
		<g>
			<g>
				<path fill="#302D30" d="M204.233,71.59c2.851,0.366,4.725,0.622,8.024,0.568l1.948,0l1.358,0.025l1.065,0.036l1.209,0.058
					c0.816,0.046,1.653,0.105,2.509,0.184c1.709,0.156,3.487,0.383,5.298,0.707c0.904,0.163,1.819,0.35,2.731,0.565
					c0.888,0.21,1.766,0.482,2.626,0.822c3.448,1.325,6.542,3.953,10.077,5.943c3.506,2.03,7.276,3.387,10.793,4.254
					c3.523,0.876,6.811,1.337,9.599,1.638c5.583,0.571,9.19,0.569,9.189,0.592l2.499,0.051l2.852,0.028
					c1.053,0.041,2.243,0.167,3.51,0.475c2.537,0.591,5.372,1.971,7.912,4.234c2.555,2.242,4.806,5.277,6.656,8.642
					c3.709,6.725,5.956,14.776,7.301,21.367c0.438,2.143,0.733,3.915,0.88,4.799c0.525,3.271,1.131,5.074,2.059,7.795
					c0.456-2.843,0.591-4.807,0.089-8.14c-0.141-0.902-0.437-2.706-0.882-4.891c-1.373-6.721-3.649-14.944-7.53-21.988
					c-1.94-3.522-4.328-6.765-7.129-9.224c-2.779-2.479-5.982-4.052-8.846-4.714c-1.43-0.347-2.767-0.487-3.941-0.532l-2.902-0.028
					l-2.465-0.049c0.004-0.022-3.562-0.024-9.019-0.585c-5.411-0.604-12.892-1.761-19.538-5.625
					c-1.667-0.947-3.28-2.052-4.962-3.155c-1.676-1.102-3.471-2.173-5.396-2.926c-0.96-0.379-1.942-0.683-2.925-0.917
					c-0.96-0.226-1.909-0.419-2.851-0.589c-1.882-0.336-3.723-0.571-5.486-0.731c-0.882-0.081-1.745-0.142-2.586-0.188l-1.242-0.06
					l-1.096-0.036l-1.396-0.023l-1.999,0.011C208.846,70.072,206.928,70.575,204.233,71.59z"/>
			</g>
		</g>
	</g>
	<g>
		<g>
			<g>
				<path fill="#302D30" d="M196.721,73.078c2.829,0.518,4.708,0.831,8.019,0.85c0.68,0.007,1.875,0.021,3.364,0.08
					c2.166,0.086,4.79,0.259,7.454,0.664c2.647,0.406,5.396,1.042,7.452,2.166c0.508,0.28,0.964,0.591,1.341,0.925
					c0.19,0.166,0.354,0.341,0.504,0.515l0.515,0.64c0.66,0.842,1.215,1.633,1.672,2.307l1.468,2.219
					c0.009-0.002,0.455,0.735,1.358,1.949c0.458,0.602,1.048,1.325,1.843,2.046c0.792,0.72,1.811,1.409,2.976,1.907
					c1.16,0.505,2.459,0.826,3.75,1.018c1.136,0.172,2.279,0.523,3.371,1.012c2.191,0.977,4.146,2.498,5.702,4.005
					c1.54,1.49,2.644,2.892,3.188,3.587c1.961,2.594,3.232,3.965,5.118,6.131c-0.65-2.803-1.352-4.702-3.395-7.457
					c-0.567-0.741-1.729-2.226-3.389-3.836c-1.68-1.625-3.818-3.308-6.331-4.43c-1.252-0.56-2.59-0.972-3.932-1.174
					c-1.185-0.175-2.27-0.451-3.217-0.861c-1.905-0.797-3.127-2.177-3.95-3.265c-0.817-1.094-1.274-1.837-1.278-1.831l-1.479-2.242
					c-0.473-0.698-1.055-1.532-1.758-2.43l-0.55-0.686c-0.227-0.266-0.471-0.523-0.734-0.756c-0.527-0.468-1.116-0.864-1.735-1.207
					c-2.494-1.35-5.4-1.981-8.18-2.419c-2.787-0.423-5.481-0.599-7.699-0.685c-1.524-0.057-2.744-0.067-3.438-0.067
					C201.378,71.767,199.465,72.208,196.721,73.078z"/>
			</g>
		</g>
	</g>
	<polygon fill="#9B9B9D" points="290.015,108.072 305.349,137.16 290.015,95.246 	"/>
	<g>
		<polygon fill="#F5F5F6" points="386.627,178.672 359.88,141.622 341.602,132.853 		"/>
		<polygon fill="#C5C5C7" points="365.711,171.293 380.571,179.295 386.627,178.672 		"/>
		<polygon fill="#C5C5C7" points="346.868,151.369 365.711,171.293 386.627,178.672 		"/>
		<polygon fill="#D8D9D9" points="346.868,151.369 341.602,132.853 386.627,178.672 		"/>
		<polygon fill="#F5F5F6" points="341.602,132.853 335.614,121.882 324.033,112.849 		"/>
		<path fill="#D8D9D9" d="M285.726,100.106c0.595,0.312,24.575,4.573,24.575,4.573l14.729,8.763L285.726,100.106z"/>
		<polygon fill="#707072" points="325.885,121.762 324.465,117.05 341.602,132.853 		"/>
		<polygon fill="#D8D9D9" points="324.033,112.849 324.465,117.05 341.602,132.853 		"/>
		<polygon fill="#868788" points="284.371,105.103 287.038,112.865 285.726,100.106 		"/>
		<polygon fill="#D8D9D9" points="324.465,117.05 285.726,100.106 324.033,112.849 		"/>
		<polygon fill="#C5C5C7" points="325.885,121.762 285.726,100.106 324.465,117.05 		"/>
		<polygon fill="#B0B2B3" points="325.233,133.602 305.268,140.231 285.726,100.106 		"/>
		<polygon fill="#9B9B9D" points="340.32,157.649 325.233,133.602 305.268,140.231 		"/>
		<polygon fill="#868788" points="340.32,157.649 365.711,171.293 346.868,151.369 		"/>
		<path fill="#B0B2B3" d="M325.233,133.602c0.521,0.506,21.635,17.768,21.635,17.768l-6.548,6.28L325.233,133.602z"/>
		<polygon fill="#B0B2B3" points="325.233,133.602 325.885,121.762 285.726,100.106 		"/>
		<polygon fill="#D8D9D9" points="325.233,133.602 341.602,132.853 325.885,121.762 		"/>
		<polygon fill="#EAEBEC" points="325.233,133.602 346.868,151.369 341.602,132.853 		"/>
	</g>
	<polygon fill="#F5F5F6" points="267.524,214.023 288.155,194.229 294.29,156.369 	"/>
	<polygon fill="#D8D9D9" points="276.725,214.023 288.155,194.229 267.524,214.023 	"/>
	<polygon fill="#EAEBEC" points="251.385,179.141 294.29,156.369 267.524,214.023 	"/>
	<polygon fill="#C5C5C7" points="225.702,149.43 294.29,156.369 251.385,179.141 	"/>
	<polygon fill="#D8D9D9" points="299.029,137.16 294.29,156.369 225.702,149.43 	"/>
	<polygon fill="#EAEBEC" points="282.858,108.072 299.029,137.16 225.702,149.43 	"/>
	<path fill="#F5F5F6" d="M204.233,97.848c1.395,0.278,78.625,10.224,78.625,10.224l-57.156,41.358L204.233,97.848z"/>
	<polygon fill="#FFFFFF" points="249.122,97.848 204.233,97.848 282.858,108.072 	"/>
	<polygon fill="#707072" points="282.858,108.072 305.349,137.16 299.029,137.16 	"/>
	<polygon fill="#3E3D3F" points="282.858,108.072 290.015,108.072 305.349,137.16 	"/>
	<polygon fill="#D8D9D9" points="147.448,100.452 204.233,97.848 225.702,149.43 	"/>
	<polygon fill="#3E3D3F" points="163.619,182.236 225.702,149.43 225.702,161.791 	"/>
	<polygon fill="#868788" points="251.385,179.141 225.702,161.791 225.702,149.43 	"/>
	<polygon fill="#EAEBEC" points="106.37,117.181 147.448,100.452 90.385,134.16 	"/>
	<polygon fill="#D8D9D9" points="121.426,128.75 90.385,134.16 147.448,100.452 	"/>
	<polygon fill="#C5C5C7" points="157.113,149.43 225.702,149.43 147.448,100.452 	"/>
	<polygon fill="#D8D9D9" points="136.296,140.414 157.113,149.43 147.448,100.452 	"/>
	<polygon fill="#C5C5C7" points="121.426,128.75 136.296,140.414 147.448,100.452 	"/>
	<polygon fill="#C5C5C7" points="93.173,140.762 90.385,134.16 121.426,128.75 	"/>
	<polygon fill="#9B9B9D" points="106.928,141.717 93.173,140.762 121.426,128.75 	"/>
	<polygon fill="#868788" points="118.917,147.479 121.426,128.75 106.928,141.717 	"/>
	<polygon fill="#57575A" points="118.917,147.479 136.296,140.414 121.426,128.75 	"/>
	<polygon fill="#707072" points="129.977,168.668 136.296,140.414 118.917,147.479 	"/>
	<polygon fill="#57575A" points="157.113,149.43 129.977,168.668 136.296,140.414 	"/>
	<polygon fill="#707072" points="176.259,163.369 225.702,149.43 157.113,149.43 	"/>
	<polygon fill="#57575A" points="163.619,182.236 176.259,163.369 225.702,149.43 	"/>
	<polygon fill="#B0B2B3" points="157.113,149.43 163.619,182.236 176.259,163.369 	"/>
	<polygon fill="#F5F5F6" points="141.872,192.459 163.619,182.236 157.113,149.43 	"/>
	<polygon fill="#C5C5C7" points="141.872,192.459 154.232,193.76 163.619,182.236 	"/>
	<polygon fill="#EAEBEC" points="129.977,168.668 141.872,192.459 157.113,149.43 	"/>
	<polygon fill="#F5F5F6" points="127.606,187.068 129.977,168.668 141.872,192.459 	"/>
	<g>
		<polygon fill="#D8D9D9" points="114.177,217.393 127.606,187.068 141.872,192.459 		"/>
		<polygon fill="#B0B2B3" points="127.606,187.068 121.426,192.459 114.177,217.393 		"/>
		<polygon fill="#C79C63" points="115.153,197.666 121.426,192.459 114.177,217.393 		"/>
		<path fill="#C5C5C7" d="M102.652,214.605"/>
		<polygon fill="#A28878" points="110.087,206.426 115.153,197.666 114.177,217.393 		"/>
		<polygon fill="#CABA9C" points="100.607,214.605 110.087,206.426 114.177,217.393 		"/>
		<polygon fill="#5F4C3F" points="100.607,228.127 114.177,217.393 100.607,222.758 		"/>
		<polygon fill="#786854" points="89.642,228.127 100.607,222.758 100.607,228.127 		"/>
		<polygon fill="#A28878" points="114.177,217.393 95.961,219.252 100.607,222.758 		"/>
		<polygon fill="#CABA9C" points="89.642,228.127 95.961,219.252 100.607,222.758 		"/>
		<polygon fill="#A28878" points="85.18,212.934 100.607,214.605 87.968,215.535 		"/>
		<polygon fill="#CABA9C" points="79.046,221.668 85.18,212.934 87.968,215.535 		"/>
		<polygon fill="#CABA9C" points="89.642,217.299 95.961,219.252 83.507,225.443 		"/>
		<polygon fill="#A28878" points="105.069,215.535 89.642,217.299 95.961,219.252 		"/>
		<polygon fill="#41281A" points="83.507,225.443 91.552,225.443 95.961,219.252 		"/>
		<polygon fill="#41281A" points="105.069,215.535 114.177,217.393 95.961,219.252 		"/>
		<polygon fill="#905E35" points="79.046,221.668 89.642,217.299 87.968,215.535 		"/>
		<polygon fill="#663A16" points="100.607,214.605 87.968,215.535 89.642,217.299 		"/>
		<polygon fill="#41281A" points="100.607,214.605 105.069,215.535 89.642,217.299 		"/>
		<polygon fill="#41281A" points="87.198,220.543 79.046,221.668 89.642,217.299 		"/>
	</g>
	<polygon fill="#CABA9C" points="102.189,176.475 98.215,191.459 85.18,190.832 	"/>
	<polygon fill="#CABA9C" points="75.562,200.033 70.683,197.314 75.562,195.643 	"/>
	<polygon fill="#CABA9C" points="79.674,197.594 85.18,190.832 75.562,195.643 	"/>
	<polygon fill="#CABA9C" points="84.344,201.775 75.562,204.146 74.516,207.979 	"/>
	<polygon fill="#CABA9C" points="98.215,191.459 84.344,201.775 85.18,197.523 	"/>
	<polygon fill="#CABA9C" points="75.562,200.033 79.674,197.594 85.18,197.523 	"/>
	<path fill="#CABA9C" d="M129.977,168.668"/>
	<polygon fill="#B0B2B3" points="120.451,172.5 116.478,182.236 129.977,168.668 	"/>
	<polygon fill="#C5C5C7" points="111.111,170.945 120.451,172.5 98.215,191.459 	"/>
	<polygon fill="#B0B2B3" points="110.087,186.301 116.478,182.236 120.451,172.5 	"/>
	<polygon fill="#D8D9D9" points="98.215,191.459 110.087,186.301 120.451,172.5 	"/>
	<polygon fill="#C79C63" points="74.168,209.652 74.516,207.979 84.344,201.775 	"/>
	<polygon fill="#C79C63" points="75.562,195.643 79.674,197.594 75.562,200.033 	"/>
	<polygon fill="#C79C63" points="85.18,190.832 98.215,191.459 85.18,197.523 	"/>
	<polygon fill="#C79C63" points="75.562,204.146 85.18,197.523 84.344,201.775 	"/>
	<polygon fill="#A28878" points="85.18,190.832 85.18,197.523 79.674,197.594 	"/>
	<polygon fill="#5F4C3F" points="88.248,202.752 110.087,186.301 98.215,191.459 	"/>
	<polygon fill="#5F4C3F" points="74.168,209.652 88.248,202.752 84.344,201.775 	"/>
	<polygon fill="#786854" points="88.248,202.752 98.215,191.459 84.344,201.775 	"/>
	<polygon fill="#707072" points="116.478,182.236 127.606,187.068 129.977,168.668 	"/>
	<polygon fill="#868788" points="102.189,176.475 111.111,170.945 98.215,191.459 	"/>
	<polygon fill="#EFAC32" points="175.516,93.481 184.159,78.796 186.575,83.722 	"/>
	<polygon fill="#EFB380" points="169.94,87.347 175.516,93.481 184.159,78.796 	"/>
	<polygon fill="#EFB380" points="197.264,95.247 186.575,83.722 175.516,93.481 	"/>
	<g>
		<polygon fill="#96BD0D" points="33.955,60.025 119.269,52.401 39.598,76.843 		"/>
		<polygon fill="#96BD0D" points="186.482,48.693 119.269,52.401 141.872,53.982 		"/>
		<polygon fill="#DEDA03" points="171.43,57.144 141.872,53.982 186.482,48.693 		"/>
		<polygon fill="#DEDA03" points="39.598,76.843 141.872,53.982 119.269,52.401 		"/>
		<polygon fill="#DEDA03" points="31.725,46.777 33.955,60.025 119.269,52.401 		"/>
		<polygon fill="#172559" points="24.821,59.185 34.394,92.83 33.955,60.025 		"/>
		<polygon fill="#172559" points="30.888,58.539 24.821,59.185 33.955,60.025 		"/>
		<polygon fill="#070D0F" points="30.888,58.539 31.725,46.777 33.955,60.025 		"/>
		<polygon fill="#40A42C" points="25.286,86.209 31.707,83.387 34.394,92.83 		"/>
		<polygon fill="#0471B2" points="20.665,91.943 25.286,86.209 25.286,90.67 		"/>
		<polygon fill="#172559" points="25.286,90.67 34.394,92.83 25.286,86.209 		"/>
		<polygon fill="#093280" points="34.394,92.83 34.858,77.774 33.955,60.025 		"/>
		<polygon fill="#36A7DA" points="143.615,57.144 34.394,92.83 39.598,76.843 		"/>
		<polygon fill="#093280" points="141.872,53.982 143.615,57.144 39.598,76.843 		"/>
		<polygon fill="#093280" points="145.705,61.142 169.013,66.624 143.615,57.144 		"/>
		<polygon fill="#080614" points="171.43,57.144 169.013,66.624 141.872,53.982 		"/>
		<polygon fill="#172559" points="141.872,53.982 169.013,66.624 143.615,57.144 		"/>
		<polygon fill="#E97EAA" points="161.643,15.785 168.43,14.019 179.496,28.434 		"/>
		<polygon fill="#E20A6F" points="181.836,39.391 179.496,28.434 161.643,15.785 		"/>
		<polygon fill="#622580" points="172.728,49.409 170.498,32.421 177.093,44.042 		"/>
		<polygon fill="#D20050" points="161.643,15.785 170.498,32.421 181.836,39.391 		"/>
		<polygon fill="#E97EAA" points="181.836,48.693 181.836,39.391 177.093,44.042 		"/>
		<polygon fill="#F7CDDE" points="186.482,37.625 186.482,48.035 181.836,48.693 181.836,39.391 		"/>
		<polygon fill="#95506F" points="172.728,49.409 181.836,48.693 177.093,44.042 		"/>
		<polygon fill="#E97EAA" points="186.482,37.625 179.496,28.434 181.836,39.391 		"/>
		<polygon fill="#E0027A" points="168.43,14.019 186.482,37.625 179.496,28.434 		"/>
		<polygon fill="#F7B235" points="186.482,48.035 186.482,48.693 181.836,48.693 		"/>
		<polygon fill="#B28329" points="200.535,58.628 197.264,63.328 214.734,68.667 		"/>
		<polygon fill="#6F531A" points="208.974,69.689 197.264,63.328 214.734,68.667 		"/>
		<polygon fill="#BA882C" points="186.482,48.693 202.282,55.935 200.535,58.628 		"/>
		<polygon fill="#C38E2C" points="187.969,58.628 197.264,63.328 200.535,58.628 		"/>
		<polygon fill="#F4AF32" points="186.482,48.693 187.969,58.628 200.535,58.628 		"/>
		<polygon fill="#D79B2E" points="184.159,78.796 187.969,58.628 186.482,48.693 		"/>
		<polyline fill="#C58F2D" points="186.575,83.722 184.159,78.796 187.969,58.628 		"/>
		<polygon fill="#A37926" points="178.496,58.628 184.159,78.796 186.482,48.693 		"/>
		<polygon fill="#7E5D1D" points="171.43,57.144 178.496,58.628 186.482,48.693 		"/>
		<polygon fill="#574021" points="167.895,82.421 178.496,58.628 169.013,66.624 		"/>
		<polygon fill="#382B11" points="171.43,57.144 178.496,58.628 169.013,66.624 		"/>
		<polygon fill="#382B11" points="167.895,82.421 178.955,80.191 178.496,58.628 		"/>
		<polygon fill="#5D4417" points="178.955,80.191 184.159,78.796 178.496,58.628 		"/>
		<polygon fill="#5D4417" points="187.488,67.277 195.219,69.689 187.189,72.656 		"/>
		<polygon fill="#F7B235" points="204.698,69.41 195.219,69.689 187.189,72.656 		"/>
		<polygon fill="#463514" points="187.189,75.265 199.122,72.656 196.721,70.888 		"/>
		<polygon fill="#AD8029" points="196.721,70.888 187.189,72.656 187.189,75.265 		"/>
		<polygon fill="#7C5A1D" points="208.603,70.525 199.122,72.656 196.721,70.888 		"/>
		<polygon fill="#AD8029" points="204.698,69.41 208.603,70.525 196.721,70.888 		"/>
		<polygon fill="#41281A" points="163.713,89.02 167.895,82.421 178.955,80.191 		"/>
		<polygon fill="#7C4D24" points="178.955,80.191 169.94,87.347 163.713,89.02 		"/>
		<polygon fill="#C79C63" points="178.955,80.191 184.159,78.796 169.94,87.347 		"/>
		<polygon fill="#41281A" points="165.967,65.907 168.52,73.597 169.013,66.624 		"/>
		<polygon fill="#172559" points="33.955,60.025 39.598,76.843 34.858,77.774 		"/>
		<polygon fill="#0471B2" points="39.598,76.843 34.394,92.83 34.858,77.774 		"/>
		<polygon fill="#009E94" points="37.064,91.346 145.705,61.142 143.615,57.144 		"/>
		<polygon fill="#9F0E59" points="181.836,39.391 177.093,44.042 170.498,32.421 		"/>
		<polygon fill="#9F0E59" points="154.141,78.796 156.313,76.196 163.713,89.02 		"/>
		<polygon fill="#BD0C27" points="156.313,76.196 165.097,86.837 163.713,89.02 		"/>
		<polygon fill="#C79C63" points="216.641,139.67 205.349,131.445 199.122,137.301 		"/>
		<polygon fill="#905E35" points="191.955,136.324 194.252,131.445 205.349,131.445 		"/>
		<polygon fill="#AF7F48" points="205.349,131.445 199.122,137.301 191.955,136.324 		"/>
		<polygon fill="#AF7F48" points="202.661,120.154 194.252,131.445 205.349,131.445 		"/>
		<polygon fill="#C79C63" points="194.381,110.117 195.943,129.174 202.661,120.154 		"/>
		<polygon fill="#AF7F48" points="204.698,103.146 202.661,120.154 194.381,110.117 		"/>
		<polygon fill="#C79C63" points="197.264,95.247 204.698,103.146 194.381,110.117 		"/>
		<polygon fill="#AF7F48" points="182.489,100.08 194.381,110.117 197.264,95.247 		"/>
		<polygon fill="#905E35" points="161.993,92.83 171.43,98.963 169.94,87.347 		"/>
		<polygon fill="#7C4D24" points="182.489,100.08 175.516,93.481 171.43,98.963 		"/>
		<polygon fill="#C79C63" points="197.264,95.247 175.516,93.481 182.489,100.08 		"/>
		<polygon fill="#663A16" points="163.713,89.02 161.993,92.83 169.94,87.347 		"/>
		<polygon fill="#663A16" points="171.43,98.963 169.94,87.347 175.516,93.481 		"/>
		<polygon fill="#7C4D24" points="194.252,131.445 194.381,110.117 195.943,129.174 		"/>
		<polygon fill="#41281A" points="179.79,101.938 194.381,110.117 182.489,100.08 		"/>
		<polygon fill="#905E35" points="172.014,99.022 179.79,101.938 182.489,100.08 		"/>
		<polygon fill="#36A7DA" points="194.252,92 199.801,89.765 205.999,95.247 		"/>
		<polygon fill="#0471B2" points="201.165,88.557 205.999,95.247 199.801,89.765 		"/>
		<polygon fill="#0471B2" points="205.999,95.247 201.165,88.557 208.603,89.485 		"/>
		<polygon fill="#36A7DA" points="213.805,96.271 208.603,89.485 205.999,95.247 		"/>
		<polygon fill="#093280" points="208.135,107.795 213.805,96.271 205.999,95.247 		"/>
		<polygon fill="#0471B2" points="194.252,92 197.264,95.247 205.999,95.247 		"/>
		<polygon fill="#36A7DA" points="204.698,103.146 205.999,95.247 197.264,95.247 		"/>
		<polygon fill="#172559" points="203.908,109.742 208.135,107.795 204.698,103.146 		"/>
		<polygon fill="#093280" points="208.135,107.795 205.999,95.247 204.698,103.146 		"/>
		<polyline fill="#36A7DA" points="161.993,92.83 157.671,94.503 158.764,108.724 158.764,108.724 		"/>
		<polygon fill="#093280" points="194.252,115.323 177.252,118.854 194.381,110.117 		"/>
		<polygon fill="#0471B2" points="179.79,101.938 177.252,118.854 194.381,110.117 		"/>
		<polygon fill="#093280" points="158.764,108.724 171.43,98.963 179.79,101.938 		"/>
		<polygon fill="#0471B2" points="158.764,108.724 161.993,92.83 171.43,98.963 		"/>
		<polygon fill="#172559" points="158.764,108.724 177.252,118.854 179.79,101.938 		"/>
		<line fill="#57575A" x1="191.955" y1="136.324" x2="194.252" y2="131.445"/>
		<path fill="#57575A" d="M189.255,139.67"/>
	</g>
	<polygon fill="#F7F4C6" points="39.598,76.843 171.43,57.144 143.545,52.918 	"/>
</g>
</svg>
