<?xml version="1.0" encoding="utf-8"?>
<!-- Generator: Adobe Illustrator 15.0.2, SVG Export Plug-In . SVG Version: 6.00 Build 0)  -->
<!DOCTYPE svg PUBLIC "-//W3C//DTD SVG 1.1//EN" "http://www.w3.org/Graphics/SVG/1.1/DTD/svg11.dtd">
<svg version="1.1" xmlns="http://www.w3.org/2000/svg" xmlns:xlink="http://www.w3.org/1999/xlink" x="0px" y="0px" width="400px"
	 height="250px" viewBox="0 0 400 250" enable-background="new 0 0 400 250" xml:space="preserve">
<g id="Capa_1">
</g>
<g id="Capa_2">
	<g>
		<polygon fill="#9B9B9D" points="186.575,168.676 187.411,194.17 194.66,201.605 		"/>
		<polygon fill="#9B9B9D" points="220.909,157.369 216.594,172.891 194.66,201.605 		"/>
		<polygon fill="#3E3D3F" points="186.575,168.676 203.287,163.174 194.66,201.605 		"/>
		<polygon fill="#57575A" points="203.287,163.174 220.909,157.369 194.66,201.605 		"/>
	</g>
	<polygon fill="#F7B235" points="200.535,58.628 202.282,55.935 214.734,68.667 	"/>
	<polygon fill="#7C4D24" points="216.408,68.201 221.055,71.59 208.603,71.033 	"/>
	<polygon fill="#41281A" points="208.974,69.689 216.408,68.201 208.603,71.033 	"/>
	<g>
		<g>
			<g>
				<path fill="#302D30" d="M204.233,71.59c2.851,0.366,4.725,0.622,8.024,0.568l1.948,0l1.358,0.025l1.046,0.035l1.186,0.057
					c0.8,0.044,1.622,0.102,2.46,0.178c1.677,0.151,3.421,0.369,5.197,0.682c0.889,0.155,1.784,0.336,2.683,0.543
					c0.873,0.194,1.696,0.459,2.51,0.821c3.264,1.422,5.931,4.359,8.907,6.909c2.952,2.598,6.273,4.758,9.562,6.199
					c3.284,1.464,6.466,2.328,9.176,2.899c5.438,1.103,9.003,1.21,8.997,1.246l2.459,0.16c0.786,0.04,1.744,0.079,2.849,0.105
					l3.67,0.056c2.575,0.104,5.604,0.761,8.487,2.392c2.895,1.602,5.57,4.142,7.765,7.166c4.409,6.052,7.035,13.857,8.583,20.24
					c0.514,2.121,0.858,3.88,1.028,4.758c0.606,3.25,1.242,5.036,2.2,7.746c0.425-2.848,0.524-4.821-0.062-8.147
					c-0.165-0.9-0.513-2.699-1.037-4.872c-1.593-6.54-4.259-14.568-8.944-21.014c-2.334-3.216-5.243-6-8.466-7.783
					c-3.209-1.815-6.616-2.553-9.458-2.663c-5.507-0.012-8.88-0.309-8.904-0.311c0.01-0.034-3.484-0.146-8.718-1.211
					c-2.605-0.55-5.642-1.38-8.733-2.76c-3.103-1.365-6.177-3.359-9.021-5.86c-1.437-1.237-2.837-2.587-4.355-3.887
					c-1.514-1.295-3.195-2.534-5.095-3.369c-0.939-0.42-1.939-0.739-2.906-0.954c-0.938-0.216-1.872-0.405-2.795-0.566
					c-1.847-0.325-3.651-0.549-5.382-0.705c-0.864-0.078-1.711-0.137-2.535-0.183l-1.219-0.058l-1.075-0.035l-1.396-0.023
					l-1.999,0.011C208.846,70.072,206.928,70.575,204.233,71.59z"/>
			</g>
		</g>
	</g>
	<g>
		<g>
			<g>
				<path fill="#302D30" d="M196.721,73.078c2.829,0.518,4.708,0.831,8.019,0.85c0.68,0.007,1.875,0.021,3.364,0.08
					c2.194,0.087,4.854,0.264,7.552,0.679c2.68,0.417,5.468,1.073,7.52,2.243c0.508,0.291,0.957,0.617,1.319,0.966
					c0.339,0.322,0.682,0.777,0.985,1.198c0.602,0.849,1.048,1.677,1.387,2.396c0.667,1.443,0.979,2.423,0.988,2.417
					c0.008,0.002,0.277,0.804,0.82,2.216c0.282,0.703,0.642,1.569,1.226,2.501c0.576,0.928,1.426,1.903,2.522,2.646
					c1.091,0.748,2.368,1.27,3.677,1.619c0.655,0.175,1.322,0.312,1.991,0.42c0.66,0.103,1.217,0.201,1.822,0.354
					c2.375,0.586,4.597,1.731,6.396,2.973c1.759,1.208,3.051,2.426,3.685,3.033c1.163,1.124,2.071,2.015,2.979,2.84
					c0.901,0.833,1.809,1.591,2.841,2.589c-0.446-1.371-0.951-2.49-1.601-3.593c-0.657-1.098-1.475-2.185-2.703-3.396
					c-0.671-0.655-2.047-1.961-3.961-3.279c-1.958-1.352-4.416-2.629-7.106-3.293c-0.656-0.168-1.384-0.295-2.003-0.39
					c-0.608-0.098-1.203-0.221-1.773-0.373c-1.142-0.303-2.179-0.738-3.009-1.307c-1.677-1.124-2.438-2.849-2.958-4.147
					c-0.507-1.31-0.799-2.17-0.804-2.164c-0.013,0.003-0.319-0.985-1.06-2.596c-0.376-0.8-0.883-1.749-1.577-2.729
					c-0.353-0.484-0.711-0.984-1.254-1.513c-0.521-0.501-1.112-0.922-1.736-1.281c-2.515-1.419-5.464-2.065-8.279-2.517
					c-2.824-0.435-5.554-0.613-7.802-0.701c-1.524-0.057-2.744-0.067-3.438-0.067C201.378,71.767,199.465,72.208,196.721,73.078z"/>
			</g>
		</g>
	</g>
	<polygon fill="#9B9B9D" points="290.015,108.072 305.349,137.16 290.015,95.246 	"/>
	<g>
		<polygon fill="#F5F5F6" points="384.97,180.755 359.771,142.635 341.869,133.12 		"/>
		<polygon fill="#C5C5C7" points="364.375,172.521 378.894,181.128 384.97,180.755 		"/>
		<polygon fill="#C5C5C7" points="346.369,151.838 364.375,172.521 384.97,180.755 		"/>
		<polygon fill="#D8D9D9" points="346.369,151.838 341.869,133.12 384.97,180.755 		"/>
		<polygon fill="#F5F5F6" points="341.869,133.12 336.339,121.912 325.14,112.41 		"/>
		<path fill="#D8D9D9" d="M287.39,98.1c0.581,0.337,24.366,5.582,24.366,5.582l14.354,9.362L287.39,98.1z"/>
		<polygon fill="#707072" points="326.623,121.392 325.398,116.625 341.869,133.12 		"/>
		<polygon fill="#D8D9D9" points="325.14,112.41 325.398,116.625 341.869,133.12 		"/>
		<polygon fill="#868788" points="285.83,103.037 288.176,110.902 287.39,98.1 		"/>
		<polygon fill="#D8D9D9" points="325.398,116.625 287.39,98.1 325.14,112.41 		"/>
		<polygon fill="#C5C5C7" points="326.623,121.392 287.39,98.1 325.398,116.625 		"/>
		<polygon fill="#B0B2B3" points="325.484,133.194 305.263,138.996 287.39,98.1 		"/>
		<polygon fill="#9B9B9D" points="339.567,157.843 325.484,133.194 305.263,138.996 		"/>
		<polygon fill="#868788" points="339.567,157.843 364.375,172.521 346.369,151.838 		"/>
		<path fill="#B0B2B3" d="M325.484,133.194c0.499,0.526,20.885,18.644,20.885,18.644l-6.802,6.005L325.484,133.194z"/>
		<polygon fill="#B0B2B3" points="325.484,133.194 326.623,121.392 287.39,98.1 		"/>
		<polygon fill="#D8D9D9" points="325.484,133.194 341.869,133.12 326.623,121.392 		"/>
		<polygon fill="#EAEBEC" points="325.484,133.194 346.369,151.838 341.869,133.12 		"/>
	</g>
	<polygon fill="#F5F5F6" points="267.524,219.023 288.155,199.229 294.29,159.369 	"/>
	<polygon fill="#D8D9D9" points="276.725,219.023 288.155,199.229 267.524,219.023 	"/>
	<polygon fill="#EAEBEC" points="251.385,187.141 294.29,159.369 267.524,219.023 	"/>
	<polygon fill="#C5C5C7" points="225.702,149.43 294.29,159.369 251.385,187.141 	"/>
	<polygon fill="#D8D9D9" points="299.029,137.16 294.29,159.369 225.702,149.43 	"/>
	<polygon fill="#EAEBEC" points="282.858,108.072 299.029,137.16 225.702,149.43 	"/>
	<path fill="#F5F5F6" d="M204.233,97.848c1.395,0.278,78.625,10.224,78.625,10.224l-57.156,41.358L204.233,97.848z"/>
	<polygon fill="#FFFFFF" points="249.122,97.848 204.233,97.848 282.858,108.072 	"/>
	<polygon fill="#707072" points="282.858,108.072 305.349,137.16 299.029,137.16 	"/>
	<polygon fill="#3E3D3F" points="282.858,108.072 290.015,108.072 305.349,137.16 	"/>
	<polygon fill="#D8D9D9" points="147.448,100.452 204.233,97.848 225.702,149.43 	"/>
	<polygon fill="#3E3D3F" points="163.619,182.236 225.702,149.43 225.702,161.791 	"/>
	<polygon fill="#868788" points="251.385,187.141 225.702,161.791 225.702,149.43 	"/>
	<polygon fill="#EAEBEC" points="106.37,117.181 147.448,100.452 90.385,134.16 	"/>
	<polygon fill="#D8D9D9" points="121.426,128.75 90.385,134.16 147.448,100.452 	"/>
	<polygon fill="#C5C5C7" points="157.113,149.43 225.702,149.43 147.448,100.452 	"/>
	<polygon fill="#D8D9D9" points="136.296,140.414 157.113,149.43 147.448,100.452 	"/>
	<polygon fill="#C5C5C7" points="121.426,128.75 136.296,140.414 147.448,100.452 	"/>
	<polygon fill="#C5C5C7" points="93.173,140.762 90.385,134.16 121.426,128.75 	"/>
	<polygon fill="#9B9B9D" points="106.928,141.717 93.173,140.762 121.426,128.75 	"/>
	<polygon fill="#868788" points="118.917,147.479 121.426,128.75 106.928,141.717 	"/>
	<polygon fill="#57575A" points="118.917,147.479 136.296,140.414 121.426,128.75 	"/>
	<polygon fill="#707072" points="129.977,168.668 136.296,140.414 118.917,147.479 	"/>
	<polygon fill="#57575A" points="157.113,149.43 129.977,168.668 136.296,140.414 	"/>
	<polygon fill="#707072" points="176.259,163.369 225.702,149.43 157.113,149.43 	"/>
	<polygon fill="#57575A" points="163.619,182.236 176.259,163.369 225.702,149.43 	"/>
	<polygon fill="#B0B2B3" points="157.113,149.43 163.619,182.236 176.259,163.369 	"/>
	<polygon fill="#F5F5F6" points="141.872,192.459 163.619,182.236 157.113,149.43 	"/>
	<polygon fill="#C5C5C7" points="141.872,192.459 154.232,193.76 163.619,182.236 	"/>
	<polygon fill="#EAEBEC" points="129.977,168.668 141.872,192.459 157.113,149.43 	"/>
	<polygon fill="#F5F5F6" points="127.606,187.068 129.977,168.668 141.872,192.459 	"/>
	<polygon fill="#D8D9D9" points="114.177,214.393 127.606,187.068 141.872,192.459 	"/>
	<polygon fill="#B0B2B3" points="127.606,187.068 121.426,192.459 114.177,214.393 	"/>
	<polygon fill="#C79C63" points="115.153,194.666 121.426,192.459 114.177,214.393 	"/>
	<path fill="#C5C5C7" d="M102.652,211.605"/>
	<polygon fill="#A28878" points="110.087,203.426 115.153,194.666 114.177,214.393 	"/>
	<polygon fill="#CABA9C" points="100.607,211.605 110.087,203.426 114.177,214.393 	"/>
	<polygon fill="#5F4C3F" points="100.607,225.127 114.177,214.393 100.607,219.758 	"/>
	<polygon fill="#786854" points="89.642,225.127 100.607,219.758 100.607,225.127 	"/>
	<polygon fill="#A28878" points="114.177,214.393 95.961,216.252 100.607,219.758 	"/>
	<polygon fill="#CABA9C" points="89.642,225.127 95.961,216.252 100.607,219.758 	"/>
	<polygon fill="#A28878" points="85.18,209.934 100.607,211.605 87.968,212.535 	"/>
	<polygon fill="#CABA9C" points="79.046,218.668 85.18,209.934 87.968,212.535 	"/>
	<polygon fill="#CABA9C" points="89.642,214.299 95.961,216.252 83.507,222.443 	"/>
	<polygon fill="#A28878" points="105.069,212.535 89.642,214.299 95.961,216.252 	"/>
	<polygon fill="#41281A" points="83.507,222.443 91.552,222.443 95.961,216.252 	"/>
	<polygon fill="#41281A" points="105.069,212.535 114.177,214.393 95.961,216.252 	"/>
	<polygon fill="#905E35" points="79.046,218.668 89.642,214.299 87.968,212.535 	"/>
	<polygon fill="#663A16" points="100.607,211.605 87.968,212.535 89.642,214.299 	"/>
	<polygon fill="#41281A" points="100.607,211.605 105.069,212.535 89.642,214.299 	"/>
	<polygon fill="#41281A" points="87.198,217.543 79.046,218.668 89.642,214.299 	"/>
	<polygon fill="#CABA9C" points="102.189,176.475 98.215,191.459 85.18,190.832 	"/>
	<polygon fill="#CABA9C" points="75.562,200.033 70.683,197.314 75.562,195.643 	"/>
	<polygon fill="#CABA9C" points="79.674,197.594 85.18,190.832 75.562,195.643 	"/>
	<polygon fill="#CABA9C" points="84.344,201.775 75.562,204.146 74.516,207.979 	"/>
	<polygon fill="#CABA9C" points="98.215,191.459 84.344,201.775 85.18,197.523 	"/>
	<polygon fill="#CABA9C" points="75.562,200.033 79.674,197.594 85.18,197.523 	"/>
	<path fill="#CABA9C" d="M129.977,168.668"/>
	<polygon fill="#B0B2B3" points="120.451,172.5 116.478,182.236 129.977,168.668 	"/>
	<polygon fill="#C5C5C7" points="111.111,170.945 120.451,172.5 98.215,191.459 	"/>
	<polygon fill="#B0B2B3" points="110.087,186.301 116.478,182.236 120.451,172.5 	"/>
	<polygon fill="#D8D9D9" points="98.215,191.459 110.087,186.301 120.451,172.5 	"/>
	<polygon fill="#C79C63" points="74.168,209.652 74.516,207.979 84.344,201.775 	"/>
	<polygon fill="#C79C63" points="75.562,195.643 79.674,197.594 75.562,200.033 	"/>
	<polygon fill="#C79C63" points="85.18,190.832 98.215,191.459 85.18,197.523 	"/>
	<polygon fill="#C79C63" points="75.562,204.146 85.18,197.523 84.344,201.775 	"/>
	<polygon fill="#A28878" points="85.18,190.832 85.18,197.523 79.674,197.594 	"/>
	<polygon fill="#5F4C3F" points="88.248,202.752 110.087,186.301 98.215,191.459 	"/>
	<polygon fill="#5F4C3F" points="74.168,209.652 88.248,202.752 84.344,201.775 	"/>
	<polygon fill="#786854" points="88.248,202.752 98.215,191.459 84.344,201.775 	"/>
	<polygon fill="#707072" points="116.478,182.236 127.606,187.068 129.977,168.668 	"/>
	<polygon fill="#868788" points="102.189,176.475 111.111,170.945 98.215,191.459 	"/>
	<polygon fill="#EFAC32" points="175.516,93.481 184.159,78.796 186.575,83.722 	"/>
	<polygon fill="#EFB380" points="169.94,87.347 175.516,93.481 184.159,78.796 	"/>
	<polygon fill="#EFB380" points="197.264,95.247 186.575,83.722 175.516,93.481 	"/>
	<g>
		<polygon fill="#96BD0D" points="31.955,56.025 119.269,49.401 37.598,76.843 		"/>
		<polygon fill="#96BD0D" points="186.482,48.693 119.269,49.401 141.872,53.982 		"/>
		<polygon fill="#DEDA03" points="171.43,57.144 141.872,53.982 186.482,48.693 		"/>
		<polygon fill="#DEDA03" points="37.598,76.843 141.872,53.982 119.269,49.401 		"/>
		<polygon fill="#DEDA03" points="29.725,42.777 31.955,56.025 119.269,49.401 		"/>
		<polygon fill="#172559" points="22.821,59.185 32.394,92.83 31.955,56.025 		"/>
		<polygon fill="#172559" points="28.888,54.539 22.821,59.185 31.955,56.025 		"/>
		<polygon fill="#070D0F" points="28.888,54.539 29.725,42.777 31.955,56.025 		"/>
		<polygon fill="#40A42C" points="23.286,86.209 29.707,83.387 32.394,92.83 		"/>
		<polygon fill="#0471B2" points="18.665,91.943 23.286,86.209 23.286,90.67 		"/>
		<polygon fill="#172559" points="23.286,90.67 32.394,92.83 23.286,86.209 		"/>
		<polygon fill="#093280" points="32.394,92.83 32.858,77.774 31.955,56.025 		"/>
		<polygon fill="#36A7DA" points="143.615,57.144 32.394,92.83 37.598,76.843 		"/>
		<polygon fill="#093280" points="141.872,53.982 143.615,57.144 37.598,76.843 		"/>
		<polygon fill="#093280" points="145.705,61.142 169.013,66.624 143.615,57.144 		"/>
		<polygon fill="#080614" points="171.43,57.144 169.013,66.624 141.872,53.982 		"/>
		<polygon fill="#172559" points="141.872,53.982 169.013,66.624 143.615,57.144 		"/>
		<polygon fill="#E97EAA" points="163.643,15.785 170.43,14.019 179.496,28.434 		"/>
		<polygon fill="#E20A6F" points="181.836,39.391 179.496,28.434 163.643,15.785 		"/>
		<polygon fill="#622580" points="172.728,49.409 170.498,32.421 177.093,44.042 		"/>
		<polygon fill="#D20050" points="163.643,15.785 170.498,32.421 181.836,39.391 		"/>
		<polygon fill="#E97EAA" points="181.836,48.693 181.836,39.391 177.093,44.042 		"/>
		<polygon fill="#F7CDDE" points="186.482,37.625 186.482,48.035 181.836,48.693 181.836,39.391 		"/>
		<polygon fill="#95506F" points="172.728,49.409 181.836,48.693 177.093,44.042 		"/>
		<polygon fill="#E97EAA" points="186.482,37.625 179.496,28.434 181.836,39.391 		"/>
		<polygon fill="#E0027A" points="170.43,14.019 186.482,37.625 179.496,28.434 		"/>
		<polygon fill="#F7B235" points="186.482,48.035 186.482,48.693 181.836,48.693 		"/>
		<polygon fill="#B28329" points="200.535,58.628 197.264,63.328 214.734,68.667 		"/>
		<polygon fill="#6F531A" points="208.974,69.689 197.264,63.328 214.734,68.667 		"/>
		<polygon fill="#BA882C" points="186.482,48.693 202.282,55.935 200.535,58.628 		"/>
		<polygon fill="#C38E2C" points="187.969,58.628 197.264,63.328 200.535,58.628 		"/>
		<polygon fill="#F4AF32" points="186.482,48.693 187.969,58.628 200.535,58.628 		"/>
		<polygon fill="#D79B2E" points="184.159,78.796 187.969,58.628 186.482,48.693 		"/>
		<polyline fill="#C58F2D" points="186.575,83.722 184.159,78.796 187.969,58.628 		"/>
		<polygon fill="#A37926" points="178.496,58.628 184.159,78.796 186.482,48.693 		"/>
		<polygon fill="#7E5D1D" points="171.43,57.144 178.496,58.628 186.482,48.693 		"/>
		<polygon fill="#574021" points="167.895,82.421 178.496,58.628 169.013,66.624 		"/>
		<polygon fill="#382B11" points="171.43,57.144 178.496,58.628 169.013,66.624 		"/>
		<polygon fill="#382B11" points="167.895,82.421 178.955,80.191 178.496,58.628 		"/>
		<polygon fill="#5D4417" points="178.955,80.191 184.159,78.796 178.496,58.628 		"/>
		<polygon fill="#5D4417" points="187.488,67.277 195.219,69.689 187.189,72.656 		"/>
		<polygon fill="#F7B235" points="204.698,69.41 195.219,69.689 187.189,72.656 		"/>
		<polygon fill="#463514" points="187.189,75.265 199.122,72.656 196.721,70.888 		"/>
		<polygon fill="#AD8029" points="196.721,70.888 187.189,72.656 187.189,75.265 		"/>
		<polygon fill="#7C5A1D" points="208.603,70.525 199.122,72.656 196.721,70.888 		"/>
		<polygon fill="#AD8029" points="204.698,69.41 208.603,70.525 196.721,70.888 		"/>
		<polygon fill="#41281A" points="163.713,89.02 167.895,82.421 178.955,80.191 		"/>
		<polygon fill="#7C4D24" points="178.955,80.191 169.94,87.347 163.713,89.02 		"/>
		<polygon fill="#C79C63" points="178.955,80.191 184.159,78.796 169.94,87.347 		"/>
		<polygon fill="#41281A" points="165.967,65.907 168.52,73.597 169.013,66.624 		"/>
		<polygon fill="#172559" points="31.955,56.025 37.598,76.843 32.858,77.774 		"/>
		<polygon fill="#0471B2" points="37.598,76.843 32.394,92.83 32.858,77.774 		"/>
		<polygon fill="#009E94" points="35.064,91.346 145.705,61.142 143.615,57.144 		"/>
		<polygon fill="#9F0E59" points="181.836,39.391 177.093,44.042 170.498,32.421 		"/>
		<polygon fill="#9F0E59" points="154.141,78.796 156.313,76.196 163.713,89.02 		"/>
		<polygon fill="#BD0C27" points="156.313,76.196 165.097,86.837 163.713,89.02 		"/>
		<polygon fill="#C79C63" points="216.641,139.67 205.349,131.445 199.122,137.301 		"/>
		<polygon fill="#905E35" points="191.955,136.324 194.252,131.445 205.349,131.445 		"/>
		<polygon fill="#AF7F48" points="205.349,131.445 199.122,137.301 191.955,136.324 		"/>
		<polygon fill="#AF7F48" points="202.661,120.154 194.252,131.445 205.349,131.445 		"/>
		<polygon fill="#C79C63" points="194.381,110.117 195.943,129.174 202.661,120.154 		"/>
		<polygon fill="#AF7F48" points="204.698,103.146 202.661,120.154 194.381,110.117 		"/>
		<polygon fill="#C79C63" points="197.264,95.247 204.698,103.146 194.381,110.117 		"/>
		<polygon fill="#AF7F48" points="182.489,100.08 194.381,110.117 197.264,95.247 		"/>
		<polygon fill="#905E35" points="161.993,92.83 171.43,98.963 169.94,87.347 		"/>
		<polygon fill="#7C4D24" points="182.489,100.08 175.516,93.481 171.43,98.963 		"/>
		<polygon fill="#C79C63" points="197.264,95.247 175.516,93.481 182.489,100.08 		"/>
		<polygon fill="#663A16" points="163.713,89.02 161.993,92.83 169.94,87.347 		"/>
		<polygon fill="#663A16" points="171.43,98.963 169.94,87.347 175.516,93.481 		"/>
		<polygon fill="#7C4D24" points="194.252,131.445 194.381,110.117 195.943,129.174 		"/>
		<polygon fill="#41281A" points="179.79,101.938 194.381,110.117 182.489,100.08 		"/>
		<polygon fill="#905E35" points="172.014,99.022 179.79,101.938 182.489,100.08 		"/>
		<polygon fill="#36A7DA" points="194.252,92 199.801,89.765 205.999,95.247 		"/>
		<polygon fill="#0471B2" points="201.165,88.557 205.999,95.247 199.801,89.765 		"/>
		<polygon fill="#0471B2" points="205.999,95.247 201.165,88.557 208.603,89.485 		"/>
		<polygon fill="#36A7DA" points="213.805,96.271 208.603,89.485 205.999,95.247 		"/>
		<polygon fill="#093280" points="208.135,107.795 213.805,96.271 205.999,95.247 		"/>
		<polygon fill="#0471B2" points="194.252,92 197.264,95.247 205.999,95.247 		"/>
		<polygon fill="#36A7DA" points="204.698,103.146 205.999,95.247 197.264,95.247 		"/>
		<polygon fill="#172559" points="203.908,109.742 208.135,107.795 204.698,103.146 		"/>
		<polygon fill="#093280" points="208.135,107.795 205.999,95.247 204.698,103.146 		"/>
		<polyline fill="#36A7DA" points="161.993,92.83 157.671,94.503 158.764,108.724 158.764,108.724 		"/>
		<polygon fill="#093280" points="194.252,115.323 177.252,118.854 194.381,110.117 		"/>
		<polygon fill="#0471B2" points="179.79,101.938 177.252,118.854 194.381,110.117 		"/>
		<polygon fill="#093280" points="158.764,108.724 171.43,98.963 179.79,101.938 		"/>
		<polygon fill="#0471B2" points="158.764,108.724 161.993,92.83 171.43,98.963 		"/>
		<polygon fill="#172559" points="158.764,108.724 177.252,118.854 179.79,101.938 		"/>
		<line fill="#57575A" x1="191.955" y1="136.324" x2="194.252" y2="131.445"/>
		<path fill="#57575A" d="M189.255,139.67"/>
	</g>
	<polygon fill="#F7F4C6" points="37.598,76.843 171.43,57.144 143.545,52.918 	"/>
</g>
</svg>
