<svg version="1.1" id="Capa_3" xmlns="http://www.w3.org/2000/svg" xmlns:xlink="http://www.w3.org/1999/xlink" x="0" y="0" width="400" height="250" viewBox="0 0 400 250" enable-background="new 0 0 400 250" xml:space="preserve"><polygon fill="#F7B235" points="209.997,53.122 211.744,50.428 224.196,63.16"/><polygon fill="#7C4D24" points="225.87,62.694 230.517,66.083 218.064,65.526"/><polygon fill="#41281A" points="218.436,64.182 225.87,62.694 218.064,65.526"/><g><g><g><path fill="#302D30" d="M213.695,66.083c2.851,0.366,4.725,0.622,8.024,0.568l1.948,0l1.358,0.025l1.019,0.034l1.151,0.054 c0.778,0.042,1.577,0.098,2.392,0.17c1.631,0.144,3.327,0.351,5.056,0.646c0.864,0.148,1.736,0.317,2.611,0.512 c0.456,0.104,0.845,0.188,1.219,0.319c0.381,0.129,0.752,0.294,1.114,0.485c1.452,0.773,2.72,2.041,3.862,3.451 c1.145,1.416,2.185,2.978,3.221,4.534c2.057,3.125,4.15,6.232,6.454,8.839c2.286,2.621,4.745,4.735,7.012,6.258 c2.265,1.534,4.302,2.51,5.733,3.124c1.437,0.611,2.274,0.88,2.272,0.884c-0.003-0.03,3.3,1.319,8.667,2.046 c1.338,0.181,2.8,0.326,4.357,0.411c0.779,0.044,1.582,0.075,2.405,0.089c0.837,0.019,1.658,0.001,2.46,0.039 c3.259,0.129,6.761,0.871,9.961,2.49c3.209,1.595,6.052,4.044,8.283,6.865c1.121,1.407,2.104,2.899,2.956,4.412 c0.428,0.756,0.823,1.518,1.188,2.277l0.528,1.138l0.457,1.061c0.828,1.992,1.364,3.687,1.626,4.532 c0.933,3.139,1.69,4.853,2.759,7.518c0.308-2.863,0.263-4.875-0.678-8.149c-0.264-0.884-0.817-2.652-1.685-4.741l-0.479-1.114 l-0.555-1.196c-0.385-0.8-0.802-1.604-1.254-2.404c-0.902-1.601-1.947-3.19-3.151-4.7c-2.391-3.025-5.491-5.707-9.015-7.457 c-3.513-1.777-7.349-2.581-10.851-2.716c-0.891-0.04-1.731-0.021-2.513-0.04c-0.796-0.013-1.571-0.042-2.322-0.084 c-1.502-0.082-2.906-0.221-4.188-0.393c-5.138-0.695-8.235-1.965-8.236-1.937c0.002-0.004-0.788-0.258-2.138-0.833 c-1.346-0.578-3.252-1.493-5.368-2.929c-2.119-1.426-4.419-3.401-6.591-5.893c-2.19-2.48-4.21-5.471-6.274-8.61 c-1.042-1.565-2.105-3.169-3.343-4.702c-1.234-1.519-2.677-3.01-4.531-4.005c-0.461-0.245-0.942-0.458-1.438-0.626 c-0.5-0.174-1.014-0.285-1.45-0.384c-0.913-0.203-1.821-0.379-2.72-0.533c-1.795-0.307-3.551-0.52-5.232-0.668 c-0.84-0.073-1.663-0.13-2.464-0.174l-1.185-0.055l-1.047-0.034l-1.396-0.023l-1.999,0.011 C218.308,64.565,216.391,65.068,213.695,66.083z"/></g></g></g><g><g><g><path fill="#302D30" d="M206.183,67.571c2.829,0.518,4.708,0.831,8.019,0.85c0.68,0.007,1.875,0.021,3.364,0.08 c2.234,0.089,4.942,0.271,7.688,0.7c2.721,0.436,5.568,1.113,7.605,2.356c0.5,0.31,0.943,0.651,1.284,1.02 c0.333,0.364,0.68,0.845,0.95,1.271c0.559,0.88,0.949,1.758,1.246,2.513c0.58,1.52,0.833,2.531,0.842,2.524l0.637,2.277 c0.429,1.427,0.909,3.535,2.231,5.792c0.668,1.113,1.614,2.229,2.829,3.055c1.205,0.837,2.616,1.371,4.014,1.666 c0.346,0.074,0.712,0.135,1.041,0.187l0.936,0.16c0.62,0.117,1.231,0.255,1.828,0.411c1.194,0.312,2.331,0.694,3.375,1.11 c1.997,0.792,3.543,1.664,4.303,2.106c1.396,0.816,2.487,1.465,3.56,2.057c1.066,0.602,2.122,1.128,3.342,1.884 c-0.728-1.246-1.479-2.223-2.367-3.147c-0.896-0.919-1.949-1.782-3.431-2.668c-0.806-0.479-2.453-1.415-4.597-2.267 c-1.12-0.447-2.343-0.859-3.631-1.195c-0.645-0.168-1.305-0.317-1.975-0.444l-1.013-0.173c-0.323-0.051-0.61-0.099-0.913-0.163 c-1.19-0.251-2.308-0.686-3.229-1.325c-0.929-0.631-1.65-1.473-2.202-2.385c-1.093-1.841-1.59-3.843-2.002-5.247l-0.647-2.302 c-0.012,0.001-0.262-1.027-0.9-2.707c-0.328-0.836-0.769-1.838-1.431-2.887c-0.345-0.533-0.692-1.035-1.198-1.594 c-0.508-0.548-1.104-0.998-1.731-1.388c-2.54-1.53-5.55-2.187-8.414-2.662c-2.876-0.45-5.655-0.634-7.944-0.723 c-1.524-0.057-2.744-0.067-3.438-0.067C210.84,66.26,208.927,66.702,206.183,67.571z"/></g></g></g><polygon fill="#F5F5F6" points="276.986,229.517 297.617,209.722 303.752,157.863"/><polygon fill="#D8D9D9" points="286.187,229.517 297.617,209.722 276.986,229.517"/><polygon fill="#EAEBEC" points="260.847,189.633 303.752,157.863 276.986,229.517"/><polygon fill="#C5C5C7" points="235.164,143.922 303.752,157.863 260.847,189.633"/><polygon fill="#D8D9D9" points="308.491,131.654 303.752,157.863 235.164,143.922"/><polygon fill="#EAEBEC" points="292.32,102.565 308.491,131.654 235.164,143.922"/><path fill="#F5F5F6" d="M213.695,92.341c1.395,0.278,78.625,10.224,78.625,10.224l-57.156,41.357L213.695,92.341z"/><polygon fill="#FFF" points="258.584,92.341 213.695,92.341 292.32,102.565"/><polygon fill="#707072" points="292.32,102.565 314.811,131.654 308.491,131.654"/><polygon fill="#3E3D3F" points="292.32,102.565 299.477,102.565 314.811,131.654"/><polygon fill="#D8D9D9" points="156.91,94.945 213.695,92.341 235.164,143.922"/><polygon fill="#3E3D3F" points="173.081,176.729 235.164,143.922 235.164,156.283"/><polygon fill="#868788" points="260.847,189.633 235.164,156.283 235.164,143.922"/><polygon fill="#EAEBEC" points="115.832,111.674 156.91,94.945 99.847,131.654"/><polygon fill="#D8D9D9" points="130.888,123.243 99.847,131.654 156.91,94.945"/><polygon fill="#C5C5C7" points="166.575,143.922 235.164,143.922 156.91,94.945"/><polygon fill="#D8D9D9" points="145.758,134.908 166.575,143.922 156.91,94.945"/><polygon fill="#C5C5C7" points="130.888,123.243 145.758,134.908 156.91,94.945"/><polygon fill="#C5C5C7" points="102.636,138.254 99.847,131.654 130.888,123.243"/><polygon fill="#9B9B9D" points="116.39,136.209 102.636,138.254 130.888,123.243"/><polygon fill="#868788" points="128.378,141.971 130.888,123.243 116.39,136.209"/><polygon fill="#57575A" points="128.378,141.971 145.758,134.908 130.888,123.243"/><polygon fill="#707072" points="139.438,163.16 145.758,134.908 128.378,141.971"/><polygon fill="#57575A" points="166.575,143.922 139.438,163.16 145.758,134.908"/><polygon fill="#707072" points="185.721,157.863 235.164,143.922 166.575,143.922"/><polygon fill="#57575A" points="173.081,176.729 185.721,157.863 235.164,143.922"/><polygon fill="#B0B2B3" points="166.575,143.922 173.081,176.729 185.721,157.863"/><polygon fill="#F5F5F6" points="151.334,186.953 173.081,176.729 166.575,143.922"/><polygon fill="#C5C5C7" points="151.334,186.953 163.694,188.254 173.081,176.729"/><polygon fill="#EAEBEC" points="139.438,163.16 151.334,186.953 166.575,143.922"/><polygon fill="#F5F5F6" points="137.067,181.562 139.438,163.16 151.334,186.953"/><polygon fill="#D8D9D9" points="123.639,208.886 137.067,181.562 151.334,186.953"/><polygon fill="#9B9B9D" points="196.037,169.17 196.873,198.662 204.122,206.099"/><polygon fill="#9B9B9D" points="230.371,157.863 226.056,173.383 204.122,206.099"/><polygon fill="#3E3D3F" points="196.037,169.17 212.749,163.666 204.122,206.099"/><polygon fill="#B0B2B3" points="137.067,181.562 130.888,186.953 123.639,208.886"/><polygon fill="#C79C63" points="124.615,189.16 130.888,186.953 123.639,208.886"/><path fill="#C5C5C7" d="M112.114,206.099"/><polygon fill="#A28878" points="119.549,197.92 124.615,189.16 123.639,208.886"/><polygon fill="#CABA9C" points="110.069,206.099 119.549,197.92 123.639,208.886"/><polygon fill="#5F4C3F" points="110.069,219.62 123.639,208.886 110.069,214.251"/><polygon fill="#786854" points="99.104,219.62 110.069,214.251 110.069,219.62"/><polygon fill="#A28878" points="123.639,208.886 105.423,210.745 110.069,214.251"/><polygon fill="#CABA9C" points="99.104,219.62 105.423,210.745 110.069,214.251"/><polygon fill="#A28878" points="94.642,204.427 110.069,206.099 97.431,207.028"/><polygon fill="#CABA9C" points="88.509,213.161 94.642,204.427 97.431,207.028"/><polygon fill="#CABA9C" points="99.104,208.792 105.423,210.745 92.97,216.937"/><polygon fill="#A28878" points="114.53,207.028 99.104,208.792 105.423,210.745"/><polygon fill="#41281A" points="92.97,216.937 101.015,216.937 105.423,210.745"/><polygon fill="#41281A" points="114.53,207.028 123.639,208.886 105.423,210.745"/><polygon fill="#905E35" points="88.509,213.161 99.104,208.792 97.431,207.028"/><polygon fill="#663A16" points="110.069,206.099 97.431,207.028 99.104,208.792"/><polygon fill="#41281A" points="110.069,206.099 114.53,207.028 99.104,208.792"/><polygon fill="#41281A" points="96.66,212.036 88.509,213.161 99.104,208.792"/><polygon fill="#CABA9C" points="111.651,170.967 107.677,185.951 94.642,185.326"/><polygon fill="#CABA9C" points="85.023,194.527 80.145,191.807 85.023,190.135"/><polygon fill="#CABA9C" points="89.136,192.088 94.642,185.326 85.023,190.135"/><polygon fill="#CABA9C" points="93.806,196.27 85.023,198.639 83.978,202.472"/><polygon fill="#CABA9C" points="107.677,185.951 93.806,196.27 94.642,192.018"/><polygon fill="#CABA9C" points="85.023,194.527 89.136,192.088 94.642,192.018"/><path fill="#CABA9C" d="M139.438,163.16"/><polygon fill="#B0B2B3" points="129.913,166.992 125.939,176.729 139.438,163.16"/><polygon fill="#C5C5C7" points="120.573,165.438 129.913,166.992 107.677,185.951"/><polygon fill="#B0B2B3" points="119.549,180.795 125.939,176.729 129.913,166.992"/><polygon fill="#D8D9D9" points="107.677,185.951 119.549,180.795 129.913,166.992"/><polygon fill="#C79C63" points="83.63,204.146 83.978,202.472 93.806,196.27"/><polygon fill="#C79C63" points="85.023,190.135 89.136,192.088 85.023,194.527"/><polygon fill="#C79C63" points="94.642,185.326 107.677,185.951 94.642,192.018"/><polygon fill="#C79C63" points="85.023,198.639 94.642,192.018 93.806,196.27"/><polygon fill="#A28878" points="94.642,185.326 94.642,192.018 89.136,192.088"/><polygon fill="#5F4C3F" points="97.71,197.244 119.549,180.795 107.677,185.951"/><polygon fill="#5F4C3F" points="83.63,204.146 97.71,197.244 93.806,196.27"/><polygon fill="#786854" points="97.71,197.244 107.677,185.951 93.806,196.27"/><polygon fill="#707072" points="125.939,176.729 137.067,181.562 139.438,163.16"/><polygon fill="#57575A" points="212.749,163.666 230.371,157.863 204.122,206.099"/><polygon fill="#868788" points="111.651,170.967 120.573,165.438 107.677,185.951"/><polygon fill="#EFAC32" points="184.978,87.974 193.621,73.29 196.037,78.215"/><polygon fill="#EFB380" points="179.402,81.84 184.978,87.974 193.621,73.29"/><polygon fill="#EFB380" points="206.726,89.74 196.037,78.215 184.978,87.974"/><g><g><polygon fill="#E97EAA" points="193.02,16.209 200.03,16.036 203.628,31.682"/><polygon fill="#E20A6F" points="204.386,43.111 203.628,31.682 193.02,16.209"/><polygon fill="#622580" points="193.234,50.791 194.933,33.742 198.707,46.56"/><polygon fill="#D20050" points="193.02,16.209 194.933,33.742 204.386,43.111"/><polygon fill="#E97EAA" points="202.267,52.168 204.386,43.111 198.707,46.56"/><polygon fill="#F7CDDE" points="209.312,42.449 206.94,52.586 202.267,52.168 204.386,43.111"/><polygon fill="#95506F" points="193.234,50.791 202.267,52.168 198.707,46.56"/><polygon fill="#E97EAA" points="209.312,42.449 203.628,31.682 204.386,43.111"/><polygon fill="#E0027A" points="200.03,16.036 209.312,42.449 203.628,31.682"/><polygon fill="#9F0E59" points="204.386,43.111 198.707,46.56 194.933,33.742"/></g><polygon fill="#96BD0D" points="38.417,40.518 124.73,46.894 47.06,61.336"/><polygon fill="#96BD0D" points="199.944,49.186 124.73,46.894 151.334,48.475"/><polygon fill="#DEDA03" points="184.892,57.637 151.334,48.475 199.944,49.186"/><polygon fill="#DEDA03" points="47.06,61.336 151.334,48.475 124.73,46.894"/><polygon fill="#DEDA03" points="36.187,33.27 38.417,40.518 124.73,46.894"/><polygon fill="#172559" points="32.282,43.678 41.856,77.323 38.417,40.518"/><polygon fill="#172559" points="35.351,39.032 32.282,43.678 38.417,40.518"/><polygon fill="#070D0F" points="35.351,39.032 36.187,33.27 38.417,40.518"/><polygon fill="#40A42C" points="32.747,69.703 39.169,67.88 41.856,77.323"/><polygon fill="#0471B2" points="25.126,72.436 32.747,69.703 32.747,74.164"/><polygon fill="#172559" points="32.747,74.164 41.856,77.323 32.747,69.703"/><polygon fill="#093280" points="41.856,77.323 42.32,62.267 38.417,40.518"/><polygon fill="#36A7DA" points="153.077,51.637 41.856,77.323 47.06,61.336"/><polygon fill="#093280" points="151.334,48.475 153.077,51.637 47.06,61.336"/><polygon fill="#093280" points="155.167,55.635 182.475,67.117 153.077,51.637"/><polygon fill="#080614" points="184.892,57.637 182.475,67.117 151.334,48.475"/><polygon fill="#172559" points="151.334,48.475 182.475,67.117 153.077,51.637"/><polygon fill="#F7B235" points="199.944,48.528 199.944,49.186 195.298,49.186"/><polygon fill="#B28329" points="209.997,53.122 206.726,57.821 224.196,63.16"/><polygon fill="#6F531A" points="218.436,64.182 206.726,57.821 224.196,63.16"/><polygon fill="#BA882C" points="199.944,49.186 211.744,50.428 209.997,53.122"/><polygon fill="#C38E2C" points="201.431,59.122 206.726,57.821 209.997,53.122"/><polygon fill="#F4AF32" points="199.944,49.186 201.431,59.122 209.997,53.122"/><polygon fill="#D79B2E" points="193.621,73.29 201.431,59.122 199.944,49.186"/><polyline fill="#C58F2D" points="196.037,78.215 193.621,73.29 201.431,59.122"/><polygon fill="#A37926" points="191.958,59.122 193.621,73.29 199.944,49.186"/><polygon fill="#7E5D1D" points="184.892,57.637 191.958,59.122 199.944,49.186"/><polygon fill="#574021" points="177.356,76.915 191.958,59.122 178.475,61.117"/><polygon fill="#382B11" points="184.892,57.637 191.958,59.122 178.475,61.117"/><polygon fill="#382B11" points="177.356,76.915 188.417,74.684 191.958,59.122"/><polygon fill="#5D4417" points="188.417,74.684 193.621,73.29 191.958,59.122"/><polygon fill="#5D4417" points="196.95,61.77 204.681,64.182 196.651,67.149"/><polygon fill="#F7B235" points="214.16,63.903 204.681,64.182 196.651,67.149"/><polygon fill="#463514" points="196.651,69.758 208.584,67.149 206.183,65.381"/><polygon fill="#AD8029" points="206.183,65.381 196.651,67.149 196.651,69.758"/><polygon fill="#7C5A1D" points="218.064,65.018 208.584,67.149 206.183,65.381"/><polygon fill="#AD8029" points="214.16,63.903 218.064,65.018 206.183,65.381"/><polygon fill="#41281A" points="173.175,83.513 177.356,76.915 188.417,74.684"/><polygon fill="#7C4D24" points="188.417,74.684 179.402,81.84 173.175,83.513"/><polygon fill="#C79C63" points="188.417,74.684 193.621,73.29 179.402,81.84"/><polygon fill="#41281A" points="175.429,60.4 177.981,68.09 178.475,61.117"/><polygon fill="#172559" points="38.417,40.518 47.06,61.336 42.32,62.267"/><polygon fill="#0471B2" points="47.06,61.336 41.856,77.323 42.32,62.267"/><polygon fill="#009E94" points="44.526,75.839 155.167,55.635 153.077,51.637"/><polygon fill="#9F0E59" points="160.603,76.29 162.775,73.689 173.175,83.513"/><polygon fill="#BD0C27" points="162.775,73.689 174.559,81.331 173.175,83.513"/><polygon fill="#C79C63" points="226.103,134.162 214.811,125.938 208.584,131.793"/><polygon fill="#905E35" points="201.417,130.816 203.714,125.938 214.811,125.938"/><polygon fill="#AF7F48" points="214.811,125.938 208.584,131.793 201.417,130.816"/><polygon fill="#AF7F48" points="212.123,114.647 203.714,125.938 214.811,125.938"/><polygon fill="#C79C63" points="203.843,104.61 205.405,123.667 212.123,114.647"/><polygon fill="#AF7F48" points="214.16,97.639 212.123,114.647 203.843,104.61"/><polygon fill="#C79C63" points="206.726,89.74 214.16,97.639 203.843,104.61"/><polygon fill="#AF7F48" points="191.951,94.573 203.843,104.61 206.726,89.74"/><polygon fill="#905E35" points="171.455,87.323 180.892,93.457 179.402,81.84"/><polygon fill="#7C4D24" points="191.951,94.573 184.978,87.974 180.892,93.457"/><polygon fill="#C79C63" points="206.726,89.74 184.978,87.974 191.951,94.573"/><polygon fill="#663A16" points="173.175,83.513 171.455,87.323 179.402,81.84"/><polygon fill="#663A16" points="180.892,93.457 179.402,81.84 184.978,87.974"/><polygon fill="#7C4D24" points="203.714,125.938 203.843,104.61 205.405,123.667"/><polygon fill="#41281A" points="189.252,96.431 203.843,104.61 191.951,94.573"/><polygon fill="#905E35" points="181.476,93.515 189.252,96.431 191.951,94.573"/><polygon fill="#36A7DA" points="203.714,86.493 209.263,84.258 215.461,89.74"/><polygon fill="#0471B2" points="210.627,83.05 215.461,89.74 209.263,84.258"/><polygon fill="#0471B2" points="215.461,89.74 210.627,83.05 218.064,83.978"/><polygon fill="#36A7DA" points="223.267,90.764 218.064,83.978 215.461,89.74"/><polygon fill="#093280" points="217.597,102.289 223.267,90.764 215.461,89.74"/><polygon fill="#0471B2" points="203.714,86.493 206.726,89.74 215.461,89.74"/><polygon fill="#36A7DA" points="214.16,97.639 215.461,89.74 206.726,89.74"/><polygon fill="#172559" points="213.37,104.235 217.597,102.289 214.16,97.639"/><polygon fill="#093280" points="217.597,102.289 215.461,89.74 214.16,97.639"/><polyline fill="#36A7DA" points="171.455,87.323 167.133,88.997 168.226,103.217 168.226,103.217"/><polygon fill="#093280" points="203.714,109.816 186.714,113.347 203.843,104.61"/><polygon fill="#0471B2" points="189.252,96.431 186.714,113.347 203.843,104.61"/><polygon fill="#093280" points="168.226,103.217 180.892,93.457 189.252,96.431"/><polygon fill="#0471B2" points="168.226,103.217 171.455,87.323 180.892,93.457"/><polygon fill="#172559" points="168.226,103.217 186.714,113.347 189.252,96.431"/><line fill="#57575A" x1="201.417" y1="130.816" x2="203.714" y2="125.938"/><path fill="#57575A" d="M198.717,134.162"/><polygon fill="#F7F6D5" points="47.06,61.336 184.892,57.637 151.334,46.894"/></g><g><polygon fill="#F5F5F6" points="380.063,186.631 362.245,144.551 346.381,131.928"/><polygon fill="#C5C5C7" points="361.317,174.775 374.021,185.888 380.063,186.631"/><polygon fill="#C5C5C7" points="347.39,151.152 361.317,174.775 380.063,186.631"/><polygon fill="#D8D9D9" points="347.39,151.152 346.381,131.928 380.063,186.631"/><polygon fill="#F5F5F6" points="346.381,131.928 342.99,119.898 333.714,108.512"/><path fill="#D8D9D9" d="M299.21,87.552c0.51,0.437,22.938,9.935,22.938,9.935l12.404,11.825L299.21,87.552z"/><polygon fill="#707072" points="333.532,117.614 333.199,112.703 346.381,131.928"/><polygon fill="#D8D9D9" points="333.714,108.512 333.199,112.703 346.381,131.928"/><polygon fill="#868788" points="296.775,92.121 297.646,100.282 299.21,87.552"/><polygon fill="#D8D9D9" points="333.199,112.703 299.21,87.552 333.714,108.512"/><polygon fill="#C5C5C7" points="333.532,117.614 299.21,87.552 333.199,112.703"/><polygon fill="#9B9B9D" points="297.646,100.282 309.317,131.023 299.21,87.552"/><polygon fill="#B0B2B3" points="330.259,129.01 309.317,131.023 299.21,87.552"/><polygon fill="#9B9B9D" points="339.605,155.814 330.259,129.01 309.317,131.023"/><polygon fill="#868788" points="339.605,155.814 361.317,174.775 347.39,151.152"/><path fill="#B0B2B3" d="M330.259,129.01c0.395,0.609,17.131,22.143,17.131,22.143l-7.784,4.662L330.259,129.01z"/><polygon fill="#B0B2B3" points="330.259,129.01 333.532,117.614 299.21,87.552"/><polygon fill="#D8D9D9" points="330.259,129.01 346.381,131.928 333.532,117.614"/><polygon fill="#EAEBEC" points="330.259,129.01 347.39,151.152 346.381,131.928"/></g></svg>