<?xml version="1.0" encoding="utf-8"?>
<!-- Generator: Adobe Illustrator 15.0.2, SVG Export Plug-In . SVG Version: 6.00 Build 0)  -->
<!DOCTYPE svg PUBLIC "-//W3C//DTD SVG 1.1//EN" "http://www.w3.org/Graphics/SVG/1.1/DTD/svg11.dtd">
<svg version="1.1" id="Capa_1" xmlns="http://www.w3.org/2000/svg" xmlns:xlink="http://www.w3.org/1999/xlink" x="0px" y="0px"
	 width="400px" height="250px" viewBox="0 0 400 250" enable-background="new 0 0 400 250" xml:space="preserve">
<path fill="#ECECED" d="M248.499,109.806c0-1.3-31.325-32.285-31.325-32.285l-25.332-1.869v32.887l47.234,5.506L248.499,109.806z"/>
<g>
	<polygon fill="#CABA9C" points="105.045,148.838 101.071,163.821 88.036,163.196 	"/>
	<polygon fill="#CABA9C" points="78.417,172.397 73.539,169.677 78.417,168.005 	"/>
	<polygon fill="#CABA9C" points="82.53,169.958 88.036,163.196 78.417,168.005 	"/>
	<polygon fill="#CABA9C" points="87.2,174.14 78.417,176.509 77.372,180.343 	"/>
	<polygon fill="#CABA9C" points="101.071,163.821 87.2,174.14 88.036,169.888 	"/>
	<polygon fill="#CABA9C" points="78.417,172.397 82.53,169.958 88.036,169.888 	"/>
	<polygon fill="#B0B2B3" points="123.307,144.863 119.333,154.6 132.833,141.031 	"/>
	<polygon fill="#C5C5C7" points="113.967,143.309 123.307,144.863 101.071,163.821 	"/>
	<polygon fill="#B0B2B3" points="112.943,158.665 119.333,154.6 123.307,144.863 	"/>
	<polygon fill="#D8D9D9" points="101.071,163.821 112.943,158.665 123.307,144.863 	"/>
	<polygon fill="#C79C63" points="77.024,182.015 77.372,180.343 87.2,174.14 	"/>
	<polygon fill="#C79C63" points="78.417,168.005 82.53,169.958 78.417,172.397 	"/>
	<polygon fill="#C79C63" points="88.036,163.196 101.071,163.821 88.036,169.888 	"/>
	<polygon fill="#C79C63" points="78.417,176.509 88.036,169.888 87.2,174.14 	"/>
	<polygon fill="#A28878" points="88.036,163.196 88.036,169.888 82.53,169.958 	"/>
	<polygon fill="#5F4C3F" points="91.104,175.114 112.943,158.665 101.071,163.821 	"/>
	<polygon fill="#5F4C3F" points="77.024,182.015 91.104,175.114 87.2,174.14 	"/>
	<polygon fill="#786854" points="91.104,175.114 101.071,163.821 87.2,174.14 	"/>
	<polygon fill="#707072" points="119.333,154.6 130.462,159.433 132.833,141.031 	"/>
	<polygon fill="#868788" points="105.045,148.838 113.967,143.309 101.071,163.821 	"/>
</g>
<polygon fill="#F7B235" points="199.816,58.016 201.563,55.322 215.268,65.522 "/>
<polygon fill="#7C4D24" points="216.941,65.056 221.588,68.446 209.136,67.888 "/>
<polygon fill="#41281A" points="209.507,66.544 216.941,65.056 209.136,67.888 "/>
<g>
	<g>
		<g>
			<path fill="#302D30" d="M204.767,68.446c2.851,0.366,4.725,0.622,8.024,0.568l1.948,0l1.358,0.025l1.019,0.034l1.151,0.054
				c0.778,0.042,1.577,0.098,2.392,0.17c1.63,0.144,3.327,0.35,5.056,0.646c0.864,0.148,1.736,0.317,2.611,0.512
				c0.456,0.104,0.845,0.188,1.219,0.319c0.381,0.129,0.752,0.294,1.114,0.485c1.452,0.773,2.72,2.041,3.862,3.451
				c1.145,1.416,2.185,2.978,3.221,4.534c2.057,3.125,4.15,6.232,6.454,8.839c2.286,2.621,4.745,4.735,7.012,6.258
				c2.265,1.534,4.302,2.51,5.733,3.124c1.437,0.611,2.274,0.88,2.272,0.884c-0.003-0.03,3.3,1.319,8.667,2.046
				c1.338,0.181,2.8,0.326,4.357,0.411c0.779,0.044,1.582,0.075,2.405,0.089c0.837,0.019,1.658,0.001,2.46,0.039
				c3.259,0.129,6.761,0.871,9.961,2.49c3.209,1.595,6.052,4.044,8.283,6.865c1.121,1.407,2.104,2.899,2.956,4.412
				c0.428,0.756,0.823,1.518,1.188,2.277l0.528,1.138l0.457,1.061c0.828,1.992,1.364,3.687,1.626,4.532
				c0.933,3.138,1.69,4.853,2.759,7.519c0.308-2.863,0.263-4.876-0.678-8.15c-0.264-0.884-0.817-2.652-1.685-4.741l-0.479-1.114
				l-0.555-1.196c-0.385-0.8-0.802-1.604-1.254-2.404c-0.902-1.601-1.947-3.19-3.151-4.7c-2.391-3.025-5.491-5.707-9.015-7.457
				c-3.513-1.777-7.349-2.581-10.851-2.716c-0.891-0.04-1.731-0.021-2.513-0.04c-0.796-0.013-1.571-0.042-2.322-0.084
				c-1.502-0.082-2.906-0.221-4.188-0.393c-5.138-0.695-8.235-1.965-8.236-1.937c0.002-0.004-0.788-0.258-2.138-0.833
				c-1.346-0.578-3.252-1.493-5.368-2.929c-2.119-1.426-4.419-3.401-6.591-5.893c-2.19-2.48-4.21-5.471-6.274-8.61
				c-1.042-1.565-2.105-3.169-3.343-4.702c-1.234-1.519-2.677-3.01-4.531-4.005c-0.461-0.245-0.942-0.458-1.438-0.626
				c-0.5-0.174-1.014-0.285-1.45-0.384c-0.913-0.203-1.821-0.379-2.72-0.533c-1.796-0.307-3.55-0.52-5.231-0.668
				c-0.841-0.073-1.664-0.13-2.465-0.174l-1.186-0.055l-1.046-0.034l-1.396-0.023l-1.999,0.011
				C209.379,66.927,207.461,67.431,204.767,68.446z"/>
		</g>
	</g>
</g>
<g>
	<g>
		<g>
			<path fill="#302D30" d="M195.962,71.162c2.942,0.202,4.893,0.307,8.268-0.049c0.693-0.069,1.913-0.19,3.438-0.297
				c2.305-0.16,5.107-0.277,7.972-0.13c2.838,0.157,5.842,0.566,8.011,1.688c1.117,0.565,1.724,1.256,2.331,2.227
				c0.576,0.91,0.98,1.816,1.285,2.596c0.598,1.57,0.849,2.614,0.858,2.608l0.632,2.352c0.417,1.478,0.873,3.638,2.081,6.019
				c0.61,1.177,1.483,2.392,2.669,3.35c1.176,0.967,2.622,1.621,4.068,1.982c0.729,0.191,1.474,0.289,2.08,0.403
				c0.639,0.12,1.268,0.264,1.883,0.427c1.229,0.326,2.397,0.732,3.468,1.175c2.032,0.841,3.599,1.764,4.366,2.233
				c1.412,0.867,2.515,1.558,3.599,2.191c1.078,0.643,2.146,1.21,3.378,2.017c-0.713-1.296-1.459-2.317-2.347-3.288
				c-0.896-0.964-1.957-1.876-3.457-2.817c-0.816-0.51-2.49-1.503-4.68-2.411c-1.153-0.479-2.417-0.918-3.751-1.271
				c-0.666-0.177-1.351-0.333-2.045-0.463c-0.728-0.135-1.342-0.214-1.939-0.372c-1.206-0.302-2.317-0.815-3.209-1.547
				c-0.898-0.726-1.583-1.659-2.099-2.649c-1.024-1.995-1.499-4.08-1.905-5.546l-0.646-2.395c-0.013,0.002-0.264-1.066-0.921-2.806
				c-0.339-0.865-0.794-1.901-1.479-2.986c-0.352-0.539-0.711-1.083-1.289-1.664c-0.555-0.549-1.204-0.991-1.887-1.348
				c-2.761-1.402-5.94-1.762-8.937-1.948c-3.009-0.155-5.887-0.031-8.25,0.135c-1.561,0.112-2.805,0.24-3.512,0.318
				C200.559,69.292,198.658,69.96,195.962,71.162z"/>
		</g>
	</g>
</g>
<polygon fill="#F5F5F6" points="382.882,180.579 346.125,127.195 342.779,130.393 "/>
<polygon fill="#C5C5C7" points="362.83,171.099 376.794,180.579 382.882,180.579 "/>
<polygon fill="#C5C5C7" points="346.125,149.352 362.83,171.099 382.882,180.579 "/>
<polygon fill="#D8D9D9" points="346.125,149.352 342.779,130.393 382.882,180.579 "/>
<path fill="#ECECED" d="M290.548,92.101c0.559,0.372,23.979,7.063,23.979,7.063l11.533,15.26L290.548,92.101z"/>
<polygon fill="#707072" points="327.815,124 326.886,119.167 342.779,130.393 "/>
<polygon fill="#D8D9D9" points="326.886,114.944 326.886,119.167 342.779,130.393 "/>
<polygon fill="#868788" points="288.688,96.933 290.548,104.927 290.548,92.101 "/>
<polygon fill="#D8D9D9" points="326.886,119.167 290.548,92.101 326.886,114.944 "/>
<polygon fill="#C5C5C7" points="327.815,124 290.548,92.101 326.886,119.167 "/>
<polygon fill="#9B9B9D" points="290.548,104.927 305.882,134.016 290.548,92.101 "/>
<polygon fill="#B0B2B3" points="326.421,129.463 305.882,134.016 290.548,92.101 "/>
<polygon fill="#9B9B9D" points="337.968,157.927 326.421,129.463 305.882,134.016 "/>
<polygon fill="#868788" points="337.968,157.927 362.83,171.099 346.125,149.352 "/>
<path fill="#B0B2B3" d="M326.421,129.463c0.466,0.557,19.704,19.889,19.704,19.889l-8.157,8.575L326.421,129.463z"/>
<polygon fill="#B0B2B3" points="326.421,129.463 327.815,124 290.548,92.101 "/>
<polygon fill="#D8D9D9" points="326.421,129.463 342.779,130.393 327.815,124 "/>
<polygon fill="#EAEBEC" points="326.421,129.463 346.125,149.352 342.779,130.393 "/>
<polygon fill="#F5F5F6" points="269.917,243.752 290.548,223.957 299.562,176.397 "/>
<polygon fill="#D8D9D9" points="279.117,243.752 290.548,223.957 269.917,243.752 "/>
<polygon fill="#EAEBEC" points="251.918,191.995 299.562,176.397 269.917,243.752 "/>
<polygon fill="#C5C5C7" points="226.235,146.285 299.562,176.397 251.918,191.995 "/>
<polygon fill="#D8D9D9" points="299.562,134.016 299.562,176.397 226.235,146.285 "/>
<polygon fill="#EAEBEC" points="283.392,104.927 299.562,134.016 226.235,146.285 "/>
<path fill="#F5F5F6" d="M204.767,94.704c1.395,0.278,78.625,10.224,78.625,10.224l-57.156,41.358L204.767,94.704z"/>
<polygon fill="#FFFFFF" points="249.655,94.704 204.767,94.704 283.392,104.927 "/>
<polygon fill="#707072" points="283.392,104.927 305.882,134.016 299.562,134.016 "/>
<polygon fill="#3E3D3F" points="283.392,104.927 290.548,104.927 305.882,134.016 "/>
<polygon fill="#D8D9D9" points="147.981,97.307 204.767,94.704 226.235,146.285 "/>
<polygon fill="#3E3D3F" points="164.152,179.091 226.235,146.285 226.235,158.646 "/>
<polygon fill="#868788" points="251.918,191.995 226.235,158.646 226.235,146.285 "/>
<polygon fill="#EAEBEC" points="110.62,114.045 147.981,97.307 89.746,122.305 "/>
<polygon fill="#D8D9D9" points="121.959,125.605 89.746,122.305 147.981,97.307 "/>
<polygon fill="#C5C5C7" points="157.646,146.285 226.235,146.285 147.981,97.307 "/>
<polygon fill="#D8D9D9" points="136.829,137.27 157.646,146.285 147.981,97.307 "/>
<polygon fill="#C5C5C7" points="121.959,125.605 136.829,137.27 147.981,97.307 "/>
<polygon fill="#C5C5C7" points="92.534,128.905 89.746,122.305 121.959,125.605 "/>
<polygon fill="#9B9B9D" points="107.461,138.572 92.534,128.905 121.959,125.605 "/>
<polygon fill="#868788" points="119.45,144.334 121.959,125.605 107.461,138.572 "/>
<polygon fill="#57575A" points="119.45,144.334 136.829,137.27 121.959,125.605 "/>
<polygon fill="#707072" points="130.51,165.522 136.829,137.27 119.45,144.334 "/>
<polygon fill="#57575A" points="157.646,146.285 130.51,165.522 136.829,137.27 "/>
<polygon fill="#707072" points="176.792,160.226 226.235,146.285 157.646,146.285 "/>
<polygon fill="#57575A" points="164.152,179.091 176.792,160.226 226.235,146.285 "/>
<polygon fill="#B0B2B3" points="157.646,146.285 164.152,179.091 176.792,160.226 "/>
<polygon fill="#F5F5F6" points="142.405,189.315 164.152,179.091 157.646,146.285 "/>
<polygon fill="#C5C5C7" points="142.405,189.315 154.766,190.616 164.152,179.091 "/>
<polygon fill="#EAEBEC" points="130.51,165.522 142.405,189.315 157.646,146.285 "/>
<polygon fill="#F5F5F6" points="128.139,183.925 130.51,165.522 142.405,189.315 "/>
<polygon fill="#D8D9D9" points="115.454,217.66 128.139,183.925 142.405,189.315 "/>
<polygon fill="#B0B2B3" points="128.139,183.925 121.959,189.315 115.454,217.66 "/>
<polygon fill="#C79C63" points="115.687,191.522 121.959,189.315 115.454,217.66 "/>
<path fill="#C5C5C7" d="M103.929,214.873"/>
<polygon fill="#A28878" points="111.364,206.694 115.687,191.522 115.454,217.66 "/>
<polygon fill="#CABA9C" points="101.884,214.873 111.364,206.694 115.454,217.66 "/>
<polygon fill="#5F4C3F" points="101.884,228.395 115.454,217.66 101.884,223.026 "/>
<polygon fill="#786854" points="90.918,228.395 101.884,223.026 101.884,228.395 "/>
<polygon fill="#A28878" points="115.454,217.66 97.238,219.52 101.884,223.026 "/>
<polygon fill="#CABA9C" points="90.918,228.395 97.238,219.52 101.884,223.026 "/>
<polygon fill="#A28878" points="86.457,213.201 101.884,214.873 89.245,215.803 "/>
<polygon fill="#CABA9C" points="80.323,221.936 86.457,213.201 89.245,215.803 "/>
<polygon fill="#CABA9C" points="90.918,217.567 97.238,219.52 84.784,225.711 "/>
<polygon fill="#A28878" points="106.346,215.803 90.918,217.567 97.238,219.52 "/>
<polygon fill="#41281A" points="84.784,225.711 92.829,225.711 97.238,219.52 "/>
<polygon fill="#41281A" points="106.346,215.803 115.454,217.66 97.238,219.52 "/>
<polygon fill="#905E35" points="80.323,221.936 90.918,217.567 89.245,215.803 "/>
<polygon fill="#663A16" points="101.884,214.873 89.245,215.803 90.918,217.567 "/>
<polygon fill="#41281A" points="101.884,214.873 106.346,215.803 90.918,217.567 "/>
<polygon fill="#41281A" points="88.475,220.811 80.323,221.936 90.918,217.567 "/>
<path fill="#CABA9C" d="M130.51,165.522"/>
<polygon fill="#EFAC32" points="176.049,90.336 184.692,75.652 187.108,80.578 "/>
<polygon fill="#EFB380" points="170.474,84.203 176.049,90.336 184.692,75.652 "/>
<polygon fill="#EFB380" points="197.797,92.102 187.108,80.578 176.049,90.336 "/>
<g>
	<polygon fill="#5D4417" points="188.021,64.132 194.46,69.288 187.723,69.511 	"/>
	<polygon fill="#F7B235" points="205.231,66.265 194.46,69.288 195.962,70.487 	"/>
	<polygon fill="#905E36" points="187.723,69.511 194.46,69.288 195.962,70.487 	"/>
	<polygon fill="#463514" points="187.723,72.121 198.363,72.254 195.962,70.487 	"/>
	<polygon fill="#AD8029" points="195.962,70.487 187.723,69.511 187.723,72.121 	"/>
	<polygon fill="#7C5A1D" points="209.136,67.38 198.363,72.254 195.962,70.487 	"/>
	<polygon fill="#AD8029" points="205.231,66.265 209.136,67.38 195.962,70.487 	"/>
	<g>
		<polygon fill="#E97EAA" points="166.967,16.361 173.754,14.596 180.82,29.011 		"/>
		<polygon fill="#E20A6F" points="184.16,39.968 180.82,29.011 166.967,16.361 		"/>
		<polygon fill="#622580" points="176.522,50.837 172.822,32.998 179.417,44.619 		"/>
		<polygon fill="#D20050" points="166.967,16.361 172.822,32.998 184.16,39.968 		"/>
		<polygon fill="#E97EAA" points="185.119,51.496 184.16,39.968 179.417,44.619 		"/>
		<polygon fill="#F7CDDE" points="188.807,38.201 188.807,50.837 185.119,51.496 184.16,39.968 		"/>
		<polygon fill="#95506F" points="176.522,50.837 185.119,51.496 179.417,44.619 		"/>
		<polygon fill="#E97EAA" points="188.807,38.201 180.82,29.011 184.16,39.968 		"/>
		<polygon fill="#E0027A" points="173.754,14.596 188.807,38.201 180.82,29.011 		"/>
		<polygon fill="#9F0E59" points="184.16,39.968 179.417,44.619 172.822,32.998 		"/>
	</g>
	<polygon fill="#96BD0D" points="29.488,38.88 115.802,43.256 38.131,73.699 	"/>
	<polygon fill="#96BD0D" points="188.807,51.496 115.802,43.256 142.405,50.837 	"/>
	<polygon fill="#DEDA03" points="173.754,57.721 142.405,50.837 188.807,51.496 	"/>
	<polygon fill="#DEDA03" points="38.131,73.699 142.405,50.837 115.802,43.256 	"/>
	<polygon fill="#DEDA03" points="27.258,31.632 29.488,38.88 115.802,43.256 	"/>
	<polygon fill="#172559" points="23.354,42.041 32.927,87.685 29.488,38.88 	"/>
	<polygon fill="#172559" points="26.421,37.394 23.354,42.041 29.488,38.88 	"/>
	<polygon fill="#070D0F" points="26.421,37.394 27.258,31.632 29.488,38.88 	"/>
	<polygon fill="#40A42C" points="23.819,75.065 30.189,74.629 32.927,87.685 	"/>
	<polygon fill="#0471B2" points="16.198,82.798 23.819,75.065 23.819,79.526 	"/>
	<polygon fill="#172559" points="23.819,79.526 32.927,87.685 23.819,75.065 	"/>
	<polygon fill="#093280" points="32.927,87.685 33.392,74.629 29.488,38.88 	"/>
	<polygon fill="#36A7DA" points="144.148,54 32.927,87.685 38.131,73.699 	"/>
	<polygon fill="#093280" points="142.405,50.837 144.148,54 38.131,73.699 	"/>
	<polygon fill="#093280" points="144.148,54 168.428,65.522 145.939,57.721 	"/>
	<polygon fill="#080614" points="173.754,57.721 171.337,67.2 142.405,50.837 	"/>
	<polygon fill="#172559" points="142.405,50.837 171.337,67.2 144.148,54 	"/>
	<polygon fill="#F7B235" points="188.807,50.837 188.807,51.496 185.119,51.496 	"/>
	<polygon fill="#B28329" points="199.816,58.016 196.545,62.715 215.268,65.522 	"/>
	<polygon fill="#6F531A" points="209.507,66.544 196.545,62.715 215.268,65.522 	"/>
	<polygon fill="#BA882C" points="188.807,51.496 201.563,55.322 199.816,58.016 	"/>
	<polygon fill="#C38E2C" points="190.293,59.205 196.545,62.715 199.816,58.016 	"/>
	<polygon fill="#F4AF32" points="188.807,51.496 190.293,59.205 199.816,58.016 	"/>
	<polygon fill="#D79B2E" points="184.692,75.652 190.293,59.205 188.807,51.496 	"/>
	<polyline fill="#C58F2D" points="187.108,80.578 184.692,75.652 190.293,59.205 	"/>
	<polygon fill="#A37926" points="180.82,59.205 184.692,75.652 188.807,51.496 	"/>
	<polygon fill="#7E5D1D" points="173.754,57.721 180.82,59.205 188.807,51.496 	"/>
	<polygon fill="#574021" points="168.428,79.277 180.82,59.205 169.546,63.479 	"/>
	<polygon fill="#382B11" points="173.754,57.721 180.82,59.205 169.546,63.479 	"/>
	<polygon fill="#382B11" points="168.428,79.277 179.488,77.046 180.82,59.205 	"/>
	<polygon fill="#5D4417" points="179.488,77.046 184.692,75.652 180.82,59.205 	"/>
	<polygon fill="#41281A" points="164.246,85.875 168.428,79.277 179.488,77.046 	"/>
	<polygon fill="#7C4D24" points="179.488,77.046 170.474,84.203 164.246,85.875 	"/>
	<polygon fill="#C79C63" points="179.488,77.046 184.692,75.652 170.474,84.203 	"/>
	<polygon fill="#41281A" points="168.291,66.483 169.053,70.453 169.546,63.479 	"/>
	<polygon fill="#172559" points="29.488,38.88 38.131,73.699 33.392,74.629 	"/>
	<polygon fill="#0471B2" points="38.131,73.699 32.927,87.685 33.392,74.629 	"/>
	<polygon fill="#009E94" points="35.598,86.202 146.238,57.998 144.148,54 	"/>
	<polygon fill="#9F0E59" points="154.674,75.652 156.847,73.051 164.246,85.875 	"/>
	<polygon fill="#BD0C27" points="156.847,73.051 165.63,83.693 164.246,85.875 	"/>
	<polygon fill="#C79C63" points="217.174,136.525 205.882,128.301 199.655,134.156 	"/>
	<polygon fill="#905E35" points="192.488,133.18 194.785,128.301 205.882,128.301 	"/>
	<polygon fill="#AF7F48" points="205.882,128.301 199.655,134.156 192.488,133.18 	"/>
	<polygon fill="#AF7F48" points="203.194,117.009 194.785,128.301 205.882,128.301 	"/>
	<polygon fill="#C79C63" points="194.914,106.972 196.477,126.029 203.194,117.009 	"/>
	<polygon fill="#AF7F48" points="205.231,100.001 203.194,117.009 194.914,106.972 	"/>
	<polygon fill="#C79C63" points="197.797,92.102 205.231,100.001 194.914,106.972 	"/>
	<polygon fill="#AF7F48" points="183.022,96.935 194.914,106.972 197.797,92.102 	"/>
	<polygon fill="#905E35" points="162.526,89.685 171.963,95.819 170.474,84.203 	"/>
	<polygon fill="#7C4D24" points="183.022,96.935 176.049,90.336 171.963,95.819 	"/>
	<polygon fill="#C79C63" points="197.797,92.102 176.049,90.336 183.022,96.935 	"/>
	<polygon fill="#663A16" points="164.246,85.875 162.526,89.685 170.474,84.203 	"/>
	<polygon fill="#663A16" points="171.963,95.819 170.474,84.203 176.049,90.336 	"/>
	<polygon fill="#7C4D24" points="194.785,128.301 194.914,106.972 196.477,126.029 	"/>
	<polygon fill="#41281A" points="180.323,98.793 194.914,106.972 183.022,96.935 	"/>
	<polygon fill="#905E35" points="172.547,95.877 180.323,98.793 183.022,96.935 	"/>
	<polygon fill="#36A7DA" points="194.785,88.855 200.334,86.621 206.532,92.102 	"/>
	<polygon fill="#0471B2" points="201.698,85.413 206.532,92.102 200.334,86.621 	"/>
	<polygon fill="#0471B2" points="206.532,92.102 201.698,85.413 209.136,86.34 	"/>
	<polygon fill="#36A7DA" points="214.338,93.126 209.136,86.34 206.532,92.102 	"/>
	<polygon fill="#093280" points="208.668,104.651 214.338,93.126 206.532,92.102 	"/>
	<polygon fill="#0471B2" points="194.785,88.855 197.797,92.102 206.532,92.102 	"/>
	<polygon fill="#36A7DA" points="205.231,100.001 206.532,92.102 197.797,92.102 	"/>
	<polygon fill="#172559" points="204.441,106.597 208.668,104.651 205.231,100.001 	"/>
	<polygon fill="#093280" points="208.668,104.651 206.532,92.102 205.231,100.001 	"/>
	<polyline fill="#36A7DA" points="162.526,89.685 158.204,91.359 159.297,105.58 159.297,105.58 	"/>
	<polygon fill="#093280" points="194.785,112.178 177.785,115.709 194.914,106.972 	"/>
	<polygon fill="#0471B2" points="180.323,98.793 177.785,115.709 194.914,106.972 	"/>
	<polygon fill="#093280" points="159.297,105.58 171.963,95.819 180.323,98.793 	"/>
	<polygon fill="#0471B2" points="159.297,105.58 162.526,89.685 171.963,95.819 	"/>
	<polygon fill="#172559" points="159.297,105.58 177.785,115.709 180.323,98.793 	"/>
	<line fill="#57575A" x1="192.488" y1="133.18" x2="194.785" y2="128.301"/>
	<path fill="#57575A" d="M189.788,136.525"/>
</g>
<polygon fill="#EAEBEC" points="326.06,114.424 346.125,127.195 342.779,130.393 "/>
<polygon fill="#F5F5F6" points="314.526,99.165 346.125,127.195 326.06,114.424 "/>
<polygon fill="#F7F4C6" points="38.131,73.699 173.754,57.721 142.405,49.506 "/>
</svg>
