<?xml version="1.0" encoding="utf-8"?>
<!-- Generator: Adobe Illustrator 15.0.2, SVG Export Plug-In . SVG Version: 6.00 Build 0)  -->
<!DOCTYPE svg PUBLIC "-//W3C//DTD SVG 1.1//EN" "http://www.w3.org/Graphics/SVG/1.1/DTD/svg11.dtd">
<svg version="1.1" id="Capa_1" xmlns="http://www.w3.org/2000/svg" xmlns:xlink="http://www.w3.org/1999/xlink" x="0px" y="0px"
	 width="170px" height="1024px" viewBox="0 0 170 1024" enable-background="new 0 0 170 1024" xml:space="preserve">
<g>
	<path fill="#0E8AC6" d="M20.746,19.114l45.549,316.721l-6.665,184.808L38.393,649.408L52.181,804.6L0,970.667v39.666L40.742,1024
		H96.29l73.71-10.333v-27.334l-28.16-93.406L129.62,775.51l14.443-75.235l-21.109-150.325c0,0-6.665-146.02-4.445-150.079
		c2.224-4.06,33.33-104.249,33.33-104.249L129.62,191.374l-2.222-90.279l44.437-81.981L102.957,0H35.188L20.746,19.114z"/>
	<polygon fill="#172559" points="0,1010.333 40.742,1024 52.181,804.6 	"/>
	<polygon fill="#172559" points="52.181,664.594 38.393,649.408 52.181,804.6 	"/>
	<polygon fill="#083381" points="59.629,520.643 52.181,664.594 38.393,649.408 	"/>
	<polygon fill="#083381" points="83.514,328.412 66.294,335.835 59.629,520.643 	"/>
	<polygon fill="#083381" points="35.188,0 66.294,335.835 1.667,31.334 	"/>
	<polygon fill="#2172B4" points="102.957,0 83.514,328.412 35.188,0 	"/>
	<polygon fill="#3658A0" points="35.188,0 66.294,335.835 83.514,328.412 	"/>
	<polygon fill="#0C71B3" points="83.514,335.835 71.57,543.231 59.629,520.643 	"/>
	<polygon fill="#2E61A6" points="69.071,796.011 71.57,543.231 59.629,520.643 	"/>
	<path fill="#0362A6" d="M89.621,1024c0-10.385-20.55-227.989-20.55-227.989L40.742,1024H89.621z"/>
	<polygon fill="#0C71B3" points="52.181,804.6 69.071,796.011 40.742,1024 	"/>
	<polygon fill="#0C71B3" points="52.181,656.353 69.071,796.011 52.181,804.6 	"/>
	<polygon fill="#0362A6" points="59.629,520.643 68.737,793.242 52.181,656.353 	"/>
	<polygon fill="#38A8DB" points="125.283,6.196 127.398,101.095 171.835,19.114 	"/>
	<polygon fill="#8098C9" points="111.726,195.69 127.398,101.095 129.62,191.374 	"/>
	<polygon fill="#94BFE3" points="151.839,295.622 111.726,195.69 129.62,191.374 	"/>
	<polygon fill="#94BFE3" points="118.509,399.87 125.283,299.395 151.839,295.622 	"/>
	<polygon fill="#38A8DB" points="111.726,195.69 125.283,299.395 151.839,295.622 	"/>
	<polygon fill="#38A8DB" points="105.193,407.425 118.509,399.87 125.283,299.395 	"/>
	<polygon fill="#B3DEF4" points="122.954,549.949 105.193,407.425 118.509,399.87 	"/>
	<polygon fill="#38A8DB" points="107.704,618.538 105.193,407.425 122.954,549.949 	"/>
	<polygon fill="#B3DEF4" points="144.063,703.109 107.704,618.538 122.954,549.949 	"/>
	<polygon fill="#7BB4DE" points="105.193,793.242 122.954,700.274 144.063,703.109 	"/>
	<polygon fill="#B3DEF4" points="141.84,892.927 141.188,891.154 105.193,793.242 129.62,775.51 	"/>
	<polygon fill="#0CA4DA" points="129.62,775.51 105.193,793.242 144.063,703.109 	"/>
	<polygon fill="#94BFE3" points="117.294,1021.056 141.84,892.927 170,1013.667 	"/>
	<polygon fill="#38A8DB" points="105.193,793.242 117.294,1021.056 141.84,892.927 	"/>
	<polygon fill="#38A8DB" points="107.704,618.538 105.193,793.242 122.954,700.274 	"/>
	<polygon fill="#259CD3" points="144.063,703.109 107.704,618.538 122.954,700.274 	"/>
</g>
</svg>
