<?xml version="1.0" encoding="utf-8"?>
<!-- Generator: Adobe Illustrator 15.0.2, SVG Export Plug-In . SVG Version: 6.00 Build 0)  -->
<!DOCTYPE svg PUBLIC "-//W3C//DTD SVG 1.1//EN" "http://www.w3.org/Graphics/SVG/1.1/DTD/svg11.dtd">
<svg version="1.1" id="Capa_1" xmlns="http://www.w3.org/2000/svg" xmlns:xlink="http://www.w3.org/1999/xlink" x="0px" y="0px"
	 width="170px" height="1024px" viewBox="0 0 170 1024" enable-background="new 0 0 170 1024" xml:space="preserve">
<g>
	<path fill="#0E8AC6" d="M25.239,19.114l19.864,328.062L29.919,526.021l-11.316,125.01l6.636,165.597L0,968.667v40L44.488,1024
		h53.469L170,1012.331v-32.666l-28.197-86.736L130.041,775.51l13.9-75.235l-20.317-150.325c0,0-6.418-146.02-4.279-150.078
		c2.141-4.061,12.779-94.632,12.779-94.632l-2.083-113.865l-2.139-90.28l39.764-82.766L104.374,0H39.14L25.239,19.114z"/>
	<polygon fill="#172559" points="0,1008.667 44.488,1024 25.239,816.628 4.497,965.022 	"/>
	<polygon fill="#172559" points="31.875,666.218 18.603,651.031 25.239,816.628 	"/>
	<polygon fill="#083381" points="29.919,526.021 31.875,666.218 18.603,651.031 	"/>
	<polygon fill="#083381" points="61.678,339.753 45.103,347.176 29.919,526.021 	"/>
	<polygon fill="#083381" points="39.14,0 45.103,347.176 25.239,19.114 	"/>
	<polygon fill="#2172B4" points="104.374,0 61.678,339.753 39.14,0 	"/>
	<polygon fill="#3658A0" points="39.14,0 45.103,347.176 61.678,339.753 	"/>
	<polygon fill="#0C71B3" points="61.678,347.176 74.163,543.231 29.919,526.021 	"/>
	<polygon fill="#2E61A6" points="71.756,796.011 74.163,543.231 29.919,526.021 	"/>
	<path fill="#0362A6" d="M91.538,1024c0-10.383-19.782-227.989-19.782-227.989L44.488,1024H91.538z"/>
	<polygon fill="#0C71B3" points="25.239,816.628 71.756,796.011 44.488,1024 	"/>
	<polygon fill="#0C71B3" points="31.875,657.977 71.756,796.011 25.239,816.628 	"/>
	<polygon fill="#0362A6" points="29.919,526.021 71.434,793.24 31.875,657.977 	"/>
	<polygon fill="#38A8DB" points="125.865,6.195 127.902,101.094 167.666,18.329 	"/>
	<polygon fill="#8098C9" points="112.814,195.69 127.902,101.094 130.041,191.374 	"/>
	<polygon fill="#94BFE3" points="132.124,305.239 112.814,195.69 130.041,191.374 	"/>
	<polygon fill="#94BFE3" points="119.345,399.871 106.563,309.013 132.124,305.239 	"/>
	<polygon fill="#38A8DB" points="112.814,195.69 106.563,309.013 132.124,305.239 	"/>
	<polygon fill="#38A8DB" points="106.529,407.424 119.345,399.871 106.563,309.013 	"/>
	<polygon fill="#B3DEF4" points="123.624,549.949 106.529,407.424 119.345,399.871 	"/>
	<polygon fill="#38A8DB" points="108.944,618.538 106.529,407.424 123.624,549.949 	"/>
	<polygon fill="#B3DEF4" points="143.941,703.109 108.944,618.538 123.624,549.949 	"/>
	<polygon fill="#7BB4DE" points="106.529,793.24 123.624,700.274 143.941,703.109 	"/>
	<polygon fill="#B3DEF4" points="141.803,892.929 141.177,891.156 106.529,793.24 130.041,775.51 	"/>
	<polygon fill="#0CA4DA" points="130.041,775.51 106.529,793.24 143.941,703.109 	"/>
	<polygon fill="#94BFE3" points="136.846,1017.701 141.803,892.929 170,1012.331 	"/>
	<polygon fill="#38A8DB" points="106.529,793.24 136.846,1017.701 141.803,892.929 	"/>
	<polygon fill="#38A8DB" points="108.944,618.538 106.529,793.24 123.624,700.274 	"/>
	<polygon fill="#259CD3" points="143.941,703.109 108.944,618.538 123.624,700.274 	"/>
</g>
</svg>
