<svg version="1.1" id="Capa_1" xmlns="http://www.w3.org/2000/svg" xmlns:xlink="http://www.w3.org/1999/xlink" x="0" y="0" width="170" height="1024" viewBox="0 0 170 1024" enable-background="new 0 0 170 1024" xml:space="preserve"><g><path fill="#0E8AC6" d="M30.965,7.667l40.367,290.597L64.701,493.16L29.864,617.966l3.931,181.702L0,967v44.5l45.916,12.5h55.251 l69.147-11.964L170,970.5l-23.525-84.729l14.955-114.478l-1.65-81.21l-3.738-187.733c0,0-11.784-119.946-9.574-124.228 c2.211-4.28-6.623-115.015-6.623-115.015l-5.524-117.193l-2.209-95.209L136.47,7L87.79,0H48.679L30.965,7.667z"/><polygon fill="#172559" points="0,1011.5 45.916,1024 33.795,799.668"/><polygon fill="#172559" points="43.579,633.983 29.864,617.966 33.795,799.668"/><polygon fill="#083381" points="64.701,493.16 43.579,633.983 29.864,617.966"/><polygon fill="#083381" points="88.46,290.435 71.332,298.263 64.701,493.16"/><polygon fill="#083381" points="48.679,0 71.332,298.263 30.965,7.667"/><polygon fill="#2172B4" points="87.79,0 88.46,290.435 48.679,0"/><polygon fill="#3658A0" points="48.679,0 71.332,298.263 88.46,290.435"/><polygon fill="#0C71B3" points="88.46,298.263 76.579,516.983 64.701,493.16"/><polygon fill="#2E61A6" points="74.094,783.563 76.579,516.983 64.701,493.16"/><path fill="#0362A6" d="M94.535,1024c0-10.948-20.441-240.437-20.441-240.437L45.916,1024H94.535z"/><polygon fill="#0C71B3" points="33.795,799.668 74.094,783.563 45.916,1024"/><polygon fill="#0C71B3" points="43.579,625.289 74.094,783.563 33.795,799.668"/><polygon fill="#0362A6" points="64.701,493.16 73.76,780.643 43.579,633.983"/><polygon fill="#8098C9" points="116.521,150.467 132.11,50.706 134.319,145.915"/><polygon fill="#94BFE3" points="139.844,263.108 116.521,150.467 134.319,145.915"/><polygon fill="#94BFE3" points="146.467,378.123 130.007,259.834 139.844,263.108"/><polygon fill="#38A8DB" points="116.521,150.467 130.007,259.834 139.844,263.108"/><polygon fill="#38A8DB" points="133.222,386.092 146.467,378.123 130.007,259.834"/><polygon fill="#B3DEF4" points="156.041,502.351 133.222,386.092 146.467,378.123"/><polygon fill="#38A8DB" points="140.872,574.687 133.222,386.092 156.041,502.351"/><polygon fill="#B3DEF4" points="159.779,693.074 140.872,574.687 156.041,502.351"/><polygon fill="#7BB4DE" points="137.134,789.992 138.784,690.084 159.779,693.074"/><polygon fill="#B3DEF4" points="146.475,885.771 145.826,883.904 137.134,789.992 161.43,771.294"/><polygon fill="#0CA4DA" points="161.43,771.294 137.134,789.992 159.779,693.074"/><polygon fill="#94BFE3" points="130.487,1018.927 146.475,885.771 170.314,1012.036"/><polygon fill="#38A8DB" points="137.134,789.992 130.487,1018.927 146.475,885.771"/><polygon fill="#38A8DB" points="140.872,574.687 137.134,789.992 138.784,690.084"/><polygon fill="#259CD3" points="159.779,693.074 140.872,574.687 138.784,690.084"/></g></svg>