<?xml version="1.0" encoding="utf-8"?>
<!-- Generator: Adobe Illustrator 15.0.2, SVG Export Plug-In . SVG Version: 6.00 Build 0)  -->
<!DOCTYPE svg PUBLIC "-//W3C//DTD SVG 1.1//EN" "http://www.w3.org/Graphics/SVG/1.1/DTD/svg11.dtd">
<svg version="1.1" xmlns="http://www.w3.org/2000/svg" xmlns:xlink="http://www.w3.org/1999/xlink" x="0px" y="0px" width="800px"
	 height="800px" viewBox="0 0 800 800" enable-background="new 0 0 800 800" xml:space="preserve">
<g id="Capa_2">
	<g>
		<rect fill="#E3342E" width="802.223" height="751.092"/>
		<rect y="91.54" opacity="0.09" fill="#FAE608" width="802.223" height="591.734"/>
		<rect y="235.728" opacity="0.09" fill="#FAE608" width="802.223" height="447.546"/>
		<rect y="375.549" opacity="0.09" fill="#FAE608" width="802.223" height="307.724"/>
		<rect y="484.432" opacity="0.09" fill="#FAE608" width="802.223" height="198.842"/>
		<rect y="559.807" opacity="0.09" fill="#FAE608" width="802.223" height="123.467"/>
		<rect y="605.943" opacity="0.09" fill="#FAE608" width="802.223" height="77.33"/>
		<rect y="644.609" opacity="0.09" fill="#FAE608" width="802.223" height="38.664"/>
		<rect y="683.273" opacity="0.98" fill="#FCE917" width="802.223" height="34.67"/>
	</g>
</g>
<g id="Capa_14">
	<linearGradient id="SVGID_1_" gradientUnits="userSpaceOnUse" x1="393.5005" y1="816" x2="393.5005" y2="-18.1343">
		<stop  offset="0" style="stop-color:#00632E"/>
		<stop  offset="0.2945" style="stop-color:#E1007A"/>
		<stop  offset="0.7301" style="stop-color:#13235B"/>
	</linearGradient>
	<rect x="-38" y="-18.135" fill="url(#SVGID_1_)" width="863" height="834.135"/>
</g>
<g id="Capa_3">
	<g>
		<g>
			<path fill="#FFFFFF" d="M226.761,666.164"/>
			<polygon fill="#EAEAEC" points="228.916,737.944 222.917,737.944 223.046,675.345 228.916,674.229 			"/>
			<polygon fill="#B1DEF4" points="228.916,735.56 234.697,735.56 234.697,675.039 228.916,674.229 			"/>
			<polygon opacity="0.68" fill="#FFFFFF" points="238.957,736.099 231.4,736.099 231.4,674.577 238.957,675.636 			"/>
			<polygon fill="#EAEAEC" points="226.761,666.164 222.973,675.566 228.916,674.229 			"/>
			<polygon fill="#B1DEF4" points="226.761,666.164 234.697,675.039 228.916,674.229 			"/>
			<polygon opacity="0.59" fill="#FFFFFF" points="226.794,666.365 231.4,674.577 238.957,675.636 			"/>
			<polygon opacity="0.82" fill="#FFFFFF" points="226.761,666.164 223.958,675.345 220.281,676.172 			"/>
			<polygon opacity="0.56" fill="#FFFFFF" points="223.958,675.345 220.281,676.166 220.281,736.208 223.958,736.208 			"/>
			<polygon fill="#FFFFFF" points="238.957,675.636 226.794,666.365 238.253,675.566 			"/>
			<polygon fill="#FFFFFF" points="238.253,736.579 238.957,736.579 238.957,675.636 238.253,675.566 			"/>
			<polygon fill="#FFFFFF" points="220.979,697.648 220.979,676.693 222.479,676.337 			"/>
		</g>
		<g>
			<path fill="#FFFFFF" d="M218.982,674.956"/>
			<polygon fill="#229AD2" points="218.741,739.849 213.951,739.849 214.054,689.853 218.741,688.962 			"/>
			<polygon fill="#BDE3F5" points="218.741,737.944 223.359,737.944 223.359,689.608 218.741,688.962 			"/>
			<polygon opacity="0.68" fill="#FFFFFF" points="226.761,738.375 220.726,738.375 220.726,689.24 226.761,690.085 			"/>
			<polygon fill="#229AD2" points="218.982,674.956 213.995,690.029 218.741,688.962 			"/>
			<polygon fill="#CCE9F7" points="218.982,674.956 223.359,689.608 218.741,688.962 			"/>
			<polygon opacity="0.59" fill="#FFFFFF" points="219.009,675.116 220.726,689.24 226.761,690.085 			"/>
			<polygon opacity="0.82" fill="#FFFFFF" points="218.982,674.956 214.781,689.853 211.845,690.513 			"/>
			<polygon opacity="0.56" fill="#FFFFFF" points="214.781,689.853 211.845,690.509 211.845,738.463 214.781,738.463 			"/>
			<polygon fill="#FFFFFF" points="226.761,690.085 219.009,675.116 226.199,690.029 			"/>
			<polygon fill="#FFFFFF" points="226.199,738.759 226.761,738.759 226.761,690.085 226.199,690.029 			"/>
			<polygon fill="#FFFFFF" points="212.402,707.666 212.402,690.93 213.601,690.646 			"/>
		</g>
		<polygon fill="#FFFFFF" points="227.547,667.753 229.674,673.513 235.849,674.229 		"/>
		<polygon fill="#FFFFFF" points="229.795,675.745 237.132,675.745 229.795,674.943 		"/>
	</g>
</g>
<g id="Capa_5">
	<g>
		<g>
			<polygon opacity="0.63" fill="#FFFFFF" points="286.177,703.006 302.491,682.147 311.534,703.006 			"/>
			<polygon opacity="0.76" fill="#FFFFFF" points="319.938,703.006 302.491,682.147 311.534,703.006 			"/>
			<polygon opacity="0.61" fill="#B6E0F4" points="298.992,703.006 297.325,703.006 297.986,698.936 299.654,698.936 			"/>
			<polygon opacity="0.79" fill="#FFFFFF" points="298.924,703.006 297.614,703.006 298.194,699.268 299.504,699.268 			"/>
		</g>
	</g>
	<polygon fill="#00632E" points="157.385,752.006 333.025,701.921 524.311,779.654 446.505,803.325 157.385,803.325 	"/>
	<polygon fill="#00892E" points="157.385,752.006 255.856,701.921 333.025,701.921 524.311,779.654 446.505,803.325 	"/>
	<polygon fill="#40A52B" points="157.385,752.006 255.856,701.921 333.025,701.921 524.311,779.654 	"/>
	<polygon fill="#96BD0D" points="255.856,701.921 333.025,701.921 524.311,779.654 	"/>
	<polygon opacity="0.34" fill="#0D3082" points="310.719,766.879 276.643,755.285 349.972,730.571 344.542,716.441 300.872,708.639
		284.718,701.921 282.188,701.921 300.508,709.604 339.651,717.071 341.898,728.114 266.04,754.994 292.308,766.879 	"/>
</g>
<g id="Capa_6">
	<rect x="157.385" y="775.858" fill="#009DDF" width="435.703" height="39.986"/>
	<g>
		<rect x="295.621" y="779.943" fill="#5D6FAD" width="76.083" height="0.721"/>
		<rect x="377.041" y="786.079" fill="#5D6FAD" width="59.657" height="0.72"/>
		<rect x="361.429" y="794.398" fill="#5D6FAD" width="89.113" height="1.453"/>
		<rect x="292.446" y="786.799" fill="#5D6FAD" width="56.007" height="1.437"/>
	</g>
</g>
<g id="Capa_4">
	<polygon opacity="0.39" fill="#1A171A" points="311.06,769.098 290.327,769.098 290.15,769.726 289.521,772.148 290.292,772.362
		291.063,772.27 291.367,770.967 309.632,770.967 309.324,772.148 310.096,772.362 310.867,772.27 311.496,769.57 	"/>
	<polygon fill="#162459" points="309.933,769.063 373.863,807.078 373.863,815.845 	"/>
	<polygon fill="#162459" points="311.418,769.911 290.327,767.188 311.418,767.188 	"/>
	<polygon fill="#62247F" points="290.327,769.911 290.327,767.188 311.418,767.188 	"/>
	<polygon fill="#F1B9C9" points="373.863,815.845 227.53,815.845 291.46,769.033 309.933,769.063 	"/>
	<polygon fill="#162459" points="291.46,769.063 227.53,807.078 227.53,815.845 	"/>
	<g>
		<rect x="309.933" y="746.566" fill="#F7D2E2" width="1.572" height="23.556"/>
		<polygon fill="#3C2773" points="311.505,770.122 310.73,770.122 309.933,770.122 309.933,746.566 310.377,753.224 		"/>
		<polyline fill="#AC047A" points="311.505,746.566 309.933,746.566 310.835,760.083 		"/>
		<polygon fill="#62247F" points="310.719,745.757 309.933,746.566 311.505,746.566 		"/>
		<polygon fill="#0771B2" points="310.869,746.566 310.719,745.757 311.505,746.566 		"/>
		<polygon fill="#62247F" points="311.293,766.945 310.719,770.422 311.505,770.122 		"/>
		<polygon fill="#172632" points="309.933,767.705 310.719,770.422 309.933,770.122 		"/>
		<polygon fill="#AC047A" points="309.933,767.705 311.293,766.945 310.719,770.422 		"/>
		<polygon fill="#CA84A4" points="311.505,746.566 311.163,753.497 309.933,746.566 		"/>
		<polygon fill="#F9D9E1" points="311.505,746.566 310.719,745.757 311.404,746.766 		"/>
	</g>
	<g>
		<rect x="290.1" y="746.566" fill="#F7D2E2" width="1.572" height="23.556"/>
		<polygon fill="#3C2773" points="291.672,770.122 290.899,770.122 290.1,770.122 290.1,746.566 290.545,753.224 		"/>
		<polyline fill="#AC047A" points="291.672,746.566 290.1,746.566 291.003,760.083 		"/>
		<polygon fill="#62247F" points="290.886,745.757 290.1,746.566 291.672,746.566 		"/>
		<polygon fill="#0771B2" points="291.037,746.566 290.886,745.757 291.672,746.566 		"/>
		<polygon fill="#62247F" points="291.46,766.945 290.886,770.422 291.672,770.122 		"/>
		<polygon fill="#172632" points="290.1,767.705 290.886,770.422 290.1,770.122 		"/>
		<polygon fill="#AC047A" points="290.1,767.705 291.46,766.945 290.886,770.422 		"/>
		<polygon fill="#CA84A4" points="291.672,746.566 291.331,753.497 290.1,746.566 		"/>
		<polygon fill="#F9D9E1" points="291.672,746.566 290.886,745.757 291.572,746.766 		"/>
	</g>
</g>
<g id="Capa_10">
	<rect x="-20" y="-11.673" opacity="0.69" fill="#BD0926" width="838" height="811.673"/>
</g>
<g id="Capa_15">

	<linearGradient id="SVGID_2_" gradientUnits="userSpaceOnUse" x1="95.2046" y1="1000" x2="95.2046" y2="200">
		<stop  offset="0" style="stop-color:#2EFFE6"/>
		<stop  offset="1" style="stop-color:#FFFFFF;stop-opacity:0"/>
	</linearGradient>

	<linearGradient id="SVGID_3_" gradientUnits="userSpaceOnUse" x1="95.2046" y1="500" x2="95.2046" y2="100">
		<stop  offset="0" style="stop-color:#2EFFE6"/>
		<stop  offset="1" style="stop-color:#FFFFFF;stop-opacity:0"/>
	</linearGradient>

		<rect id="start11" x="93.5" y="221.041" opacity="0.42" fill="url(#SVGID_2_)" width="3.41" height="150"/>
		<rect id="start12" x="93.5" y="377.597" fill="#FFEC00" width="3.41" height="3.016"/>

	<rect id="start21"  x="153.09" y="357.427" opacity="0.42" fill="url(#SVGID_2_)" width="3.41" height="150"/>
	<rect id="start22" x="153.09" y="513.983" fill="#37DCDB" width="3.41" height="3.016"/>

	<rect id="start31" x="663.073" y="144.278" opacity="0.42" fill="url(#SVGID_3_)" width="3.41" height="150"/>
	<rect id="start32" x="663.073" y="300.834" fill="#FFFFFF" width="3.41" height="3.016"/>

	<animate
	    xlink:href="#start12"
	    attributeName="y"
	    from="-100"
	    to="1150"
			repeatCount="indefinite"
	    dur="10s" />

		<animate
			xlink:href="#start11"
			attributeName="y"
			from="-250"
			to="1000"
			repeatCount="indefinite"
			dur="10s" />
		<animate
			    xlink:href="#start22"
			    attributeName="y"
			    from="0"
			    to="1150"
					repeatCount="indefinite"
			    dur="7s" />

		<animate
					xlink:href="#start21"
					attributeName="y"
					from="-150"
					to="1000"
					repeatCount="indefinite"
					dur="7s" />

		<animate
							xlink:href="#start32"
							attributeName="y"
							from="-0"
							to="1150"
							repeatCount="indefinite"
							dur="9s" />

		<animate
							xlink:href="#start31"
							attributeName="y"
							from="-150"
							to="1000"
							repeatCount="indefinite"
							dur="9s" />

	<g>
		<path fill="#F5F5F6" d="M348.286,655.834c0,3.318-2.121,5.25-5.816,5.25h-3.38v4.43h-2.478v-14.697h5.858
			C346.166,650.816,348.286,652.643,348.286,655.834z M345.914,655.897c0-1.932-1.281-2.855-3.548-2.855h-3.275v5.815h3.275
			C344.633,658.857,345.914,657.893,345.914,655.897z"/>
		<path fill="#F5F5F6" d="M360.065,665.514l-2.688-4.451c-0.21,0.021-0.441,0.021-0.672,0.021h-3.485v4.43h-2.478v-14.697h5.963
			c3.758,0,5.921,1.826,5.921,5.018c0,2.352-1.092,4.011-3.044,4.767l3.296,4.913H360.065z M356.706,658.857
			c2.268,0,3.569-0.965,3.569-2.96c0-1.932-1.302-2.855-3.569-2.855h-3.485v5.815H356.706z"/>
		<path fill="#F5F5F6" d="M367.414,661.252c0,1.364,1.449,2.184,3.296,2.184c1.449,0,3.233-0.547,4.136-1.071l0.966,1.932
			c-1.218,0.756-3.317,1.323-5.207,1.323c-3.317,0-5.732-1.68-5.732-4.095c0-1.764,1.302-3.317,3.317-3.779
			c-1.512-0.399-2.583-1.7-2.583-3.275c0-2.204,2.142-3.759,5.249-3.759c1.47,0,3.317,0.379,4.367,0.945l-0.819,1.953
			c-0.987-0.441-2.331-0.715-3.422-0.715c-1.743,0-3.044,0.631-3.044,1.869c0,1.134,1.113,2.016,2.75,2.016h2.981v2.205h-2.981
			C368.778,658.984,367.414,659.949,367.414,661.252z"/>
		<path fill="#F5F5F6" d="M382.761,653.042c-1.449,0-2.394,0.546-2.394,1.532c0,3.213,7.937,1.491,7.916,6.782
			c0,2.624-2.31,4.241-5.543,4.241c-2.31,0-4.493-0.945-6.005-2.33l1.071-2.143c1.512,1.387,3.401,2.143,4.976,2.143
			c1.722,0,2.75-0.651,2.75-1.785c0-3.275-7.937-1.449-7.937-6.677c0-2.52,2.163-4.095,5.354-4.095c1.911,0,3.779,0.609,5.144,1.512
			l-1.029,2.184C385.47,653.441,383.874,653.042,382.761,653.042z"/>
		<path fill="#F5F5F6" d="M395.821,653.042c-1.449,0-2.394,0.546-2.394,1.532c0,3.213,7.936,1.491,7.916,6.782
			c0,2.624-2.31,4.241-5.543,4.241c-2.31,0-4.493-0.945-6.005-2.33l1.071-2.143c1.512,1.387,3.401,2.143,4.976,2.143
			c1.722,0,2.75-0.651,2.75-1.785c0-3.275-7.937-1.449-7.937-6.677c0-2.52,2.163-4.095,5.354-4.095c1.911,0,3.779,0.609,5.145,1.512
			l-1.029,2.184C398.529,653.441,396.934,653.042,395.821,653.042z"/>
		<path fill="#F5F5F6" d="M412.029,661.252c0,1.364,1.449,2.184,3.297,2.184c1.449,0,3.233-0.547,4.137-1.071l0.965,1.932
			c-1.217,0.756-3.316,1.323-5.207,1.323c-3.316,0-5.731-1.68-5.731-4.095c0-1.764,1.302-3.317,3.317-3.779
			c-1.512-0.399-2.582-1.7-2.582-3.275c0-2.204,2.141-3.759,5.248-3.759c1.471,0,3.318,0.379,4.367,0.945l-0.818,1.953
			c-0.986-0.441-2.33-0.715-3.422-0.715c-1.743,0-3.045,0.631-3.045,1.869c0,1.134,1.113,2.016,2.75,2.016h2.982v2.205h-2.982
			C413.395,658.984,412.029,659.949,412.029,661.252z"/>
		<path fill="#F5F5F6" d="M435.336,656.191v9.322h-2.499v-8.734c0-2.121-1.428-3.569-3.485-3.569
			c-2.414,0.042-4.137,1.974-4.137,4.409v7.895h-2.477v-14.697h2.477v2.394c1.071-1.47,2.835-2.372,4.998-2.394
			C433.193,650.816,435.336,653,435.336,656.191z"/>
		<path fill="#F5F5F6" d="M449.13,654.406c-1.218-0.65-2.667-1.092-4.136-1.26v12.367h-2.479v-12.367
			c-1.469,0.168-2.918,0.609-4.136,1.26l-0.86-2.162c1.805-0.986,4.01-1.533,6.215-1.533c2.225,0,4.408,0.547,6.256,1.555
			L449.13,654.406z"/>
		<path fill="#F5F5F6" d="M454.085,661.252c0,1.364,1.448,2.184,3.296,2.184c1.449,0,3.234-0.547,4.137-1.071l0.966,1.932
			c-1.218,0.756-3.317,1.323-5.207,1.323c-3.317,0-5.731-1.68-5.731-4.095c0-1.764,1.301-3.317,3.316-3.779
			c-1.512-0.399-2.582-1.7-2.582-3.275c0-2.204,2.142-3.759,5.249-3.759c1.47,0,3.317,0.379,4.367,0.945l-0.819,1.953
			c-0.986-0.441-2.33-0.715-3.422-0.715c-1.742,0-3.045,0.631-3.045,1.869c0,1.134,1.113,2.016,2.751,2.016h2.981v2.205h-2.981
			C455.449,658.984,454.085,659.949,454.085,661.252z"/>
		<path fill="#F5F5F6" d="M474.115,665.514l-2.688-4.451c-0.21,0.021-0.441,0.021-0.672,0.021h-3.485v4.43h-2.478v-14.697h5.963
			c3.758,0,5.921,1.826,5.921,5.018c0,2.352-1.092,4.011-3.044,4.767l3.296,4.913H474.115z M470.756,658.857
			c2.268,0,3.569-0.965,3.569-2.96c0-1.932-1.302-2.855-3.569-2.855h-3.485v5.815H470.756z"/>
		<path fill="#F5F5F6" d="M366.587,684.17c-0.672,0.399-1.393,0.624-2.049,0.624c-1.345,0-2.433-0.929-2.433-2.785v-7.827h1.825
			v2.337h2.513v1.377h-2.513v3.793c0,1.009,0.336,1.44,0.944,1.44c0.336,0,0.752-0.111,1.249-0.368L366.587,684.17z"/>
		<path fill="#F5F5F6" d="M376.269,680.44c0,2.577-1.809,4.338-4.434,4.338c-2.641,0-4.45-1.761-4.45-4.338
			c0-2.562,1.809-4.306,4.45-4.306C374.46,676.135,376.269,677.879,376.269,680.44z M369.226,680.472c0,1.649,1.073,2.77,2.609,2.77
			c1.521,0,2.593-1.12,2.593-2.77c0-1.632-1.072-2.769-2.593-2.769C370.299,677.703,369.226,678.84,369.226,680.472z"/>
		<path fill="#F5F5F6" d="M386.555,677.751c-1.473,0-2.529,1.104-2.529,2.721c0,1.617,1.057,2.722,2.529,2.722
			c1.072,0,1.937-0.353,2.513-1.024l1.024,1.024c-0.768,1.008-2,1.585-3.617,1.585c-2.529,0-4.29-1.745-4.29-4.307
			c0-2.576,1.761-4.337,4.29-4.337c1.537,0,2.737,0.496,3.521,1.393l-1.009,1.185C388.396,678.104,387.58,677.735,386.555,677.751z"
			/>
		<path fill="#F5F5F6" d="M399.756,680.44c0,2.577-1.809,4.338-4.434,4.338c-2.641,0-4.45-1.761-4.45-4.338
			c0-2.562,1.809-4.306,4.45-4.306C397.948,676.135,399.756,677.879,399.756,680.44z M392.713,680.472
			c0,1.649,1.073,2.77,2.609,2.77c1.521,0,2.593-1.12,2.593-2.77c0-1.632-1.072-2.769-2.593-2.769
			C393.786,677.703,392.713,678.84,392.713,680.472z"/>
		<path fill="#F5F5F6" d="M409.82,679.416v5.298h-1.841v-4.786c0-1.28-0.769-2.064-2.049-2.064c-1.409,0.016-2.289,0.992-2.417,2.32
			v4.53h-1.841v-8.516h1.841v1.633c0.608-1.185,1.697-1.696,3.137-1.696C408.636,676.135,409.82,677.383,409.82,679.416z"/>
		<path fill="#F5F5F6" d="M416.555,684.17c-0.672,0.399-1.393,0.624-2.049,0.624c-1.344,0-2.433-0.929-2.433-2.785v-7.827h1.825
			v2.337h2.513v1.377h-2.513v3.793c0,1.009,0.336,1.44,0.943,1.44c0.337,0,0.753-0.111,1.249-0.368L416.555,684.17z"/>
		<path fill="#F5F5F6" d="M420.234,673.766c0,0.624-0.465,1.088-1.072,1.088c-0.609,0-1.072-0.464-1.072-1.088
			c0-0.641,0.463-1.104,1.072-1.104C419.77,672.661,420.234,673.125,420.234,673.766z M420.074,676.198v8.516h-1.825v-8.516H420.074
			z"/>
		<path fill="#F5F5F6" d="M430.94,679.416v5.298H429.1v-4.786c0-1.28-0.768-2.064-2.049-2.064c-1.408,0.016-2.289,0.992-2.417,2.32
			v4.53h-1.841v-8.516h1.841v1.633c0.608-1.185,1.696-1.696,3.138-1.696C429.756,676.135,430.94,677.383,430.94,679.416z"/>
		<path fill="#F5F5F6" d="M441.132,676.198v8.516h-1.841v-1.665c-0.576,1.185-1.648,1.713-3.041,1.729
			c-1.953,0-3.121-1.249-3.121-3.282v-5.298h1.84v4.786c0,1.28,0.753,2.064,1.985,2.064c1.473-0.031,2.337-1.168,2.337-2.656v-4.194
			H441.132z"/>
		<path fill="#F5F5F6" d="M450.092,682.057l1.072,0.992c-0.961,1.169-2.209,1.729-3.682,1.729c-2.625,0-4.434-1.745-4.434-4.322
			c0-2.497,1.648-4.29,4.273-4.321c2.32-0.032,3.873,1.393,4.018,3.713l-6.194,1.857c0.416,0.992,1.296,1.601,2.448,1.601
			C448.539,683.306,449.403,682.873,450.092,682.057z M444.889,680.36v0.016l4.674-1.393c-0.399-0.96-1.119-1.36-2.129-1.36
			C445.882,677.623,444.889,678.583,444.889,680.36z"/>
	</g>
	<polygon fill="#FFEC9F" points="302.491,682.147 319.03,701.921 317,701.921 	"/>
	<polygon fill="#FFEC9F" points="310.613,701.921 309.933,701.921 302.491,682.147 	"/>
	<polygon fill="#FFEC9F" points="226.761,666.164 238.957,675.636 238.605,710.695 237.978,675.345 	"/>
	<polygon fill="#FFEC9F" points="228.916,674.229 226.761,666.164 227.838,674.435 228.916,715.624 	"/>
	<polygon fill="#FFEC9F" points="219.009,675.116 222.479,688.962 223.521,717.943 223.359,688.962 	"/>
	<polygon fill="#FFEC9F" points="226.323,689.24 219.009,675.116 225,689.24 226.199,711.776 	"/>
	<path fill="#C2EC9F" d="M255.856,701.921l77.806,1.085c0,0,119.365,47.681,117.883,47.078s-117.883-48.163-117.883-48.163H255.856z
		"/>
</g>
<g id="Capa_11">
	<path fill="#2E033C" d="M139.889,132L206,356l32.136,40.677l5.276,91.473L252.775,500l25.064-2l11.539,19.517l5.638,15.983h14.714
		l-0.087,16.42l14.766,5.955h13.66l28.766,40.49l27.044,23.44l35.134,4.263L479.067,593L530,561l35-4l27.127,19.12l20.111,34.742
		L486,753.01L449.815,800H800c0,0,4.327-294.607-1-301l-104.584-95.601l-68.192-92.591l-24.507-46.882L514.004,0H184.912
		L139.889,132z"/>
	<path fill="#48003D" d="M798.212,438.012l-51.779,12.937l16.568,15.145L717,538l-75,75.6l-29.762-2.737L589,621.54
		c0,0-6.506,22.813-5.031,21.154C584.85,641.703,643,669.72,643,669.72l158.322,8.755L798.212,438.012z"/>
	<path fill="#430038" d="M201.312,359l160.721-58.723h39.078L444.781,356l12.027,44l1.15,18.375l28.62-10.008v-49.041l-7.981-29.612
		l-2.438-29.437c0,0,14.721-9.277,17.28-11.277s19.081-9,19.081-9l25.942,20l9.273,35l-4.479,22L533,372.263l-2,9.637l3,18.1
		c0,0,1.928,5.523,4.464,12.762s16.054,18.725,16.054,18.725L579,459.5l23,26.5l65.717-118.853L637,315l-23-35l-16.609-60.519
		L547.737,80.733L512.521-28L144,23l-4.111,113.2L201.312,359z"/>
</g>
<g id="Capa_12">
	<polygon fill="#622280" points="218.53,352.709 238.136,396.677 205.771,357.371 	"/>
	<polygon fill="#4B2057" points="238.136,396.677 254.743,484.432 243.412,488.149 	"/>
	<polygon fill="#431559" points="260,493 254.743,484.432 243.412,488.149 	"/>
	<polygon fill="#622280" points="252.775,500 260,493 243.412,488.149 	"/>
	<polygon fill="#4B2057" points="277.839,498 260,493 252.775,500 	"/>
	<polygon fill="#622280" points="295.247,515.5 277.839,498 289.378,517.517 	"/>
	<polygon fill="#622280" points="295.017,533.5 295.247,515.5 289.378,517.517 	"/>
	<polygon fill="#4B2057" points="321.035,529.411 295.247,515.5 295.017,533.5 	"/>
	<polygon fill="#622280" points="309.644,549.92 321.035,529.411 309.73,533.5 	"/>
	<polygon fill="#622280" points="295.017,533.5 309.73,533.5 321.035,529.411 	"/>
	<polygon fill="#622280" points="324.41,555.875 312.637,544.531 309.644,549.92 	"/>
	<polygon fill="#622280" points="343.121,550.203 324.41,555.875 340.896,555.875 	"/>
	<polygon fill="#622280" points="393.88,619.806 343.121,550.203 366.835,596.365 	"/>
	<polygon fill="#4B2057" points="338.07,555.875 343.121,550.203 366.835,596.365 	"/>
	<polygon fill="#4B2057" points="530,561 393.88,619.806 429.014,624.068 	"/>
	<polygon fill="#622280" points="386.498,609.684 409.279,613.067 393.88,619.806 	"/>
	<polygon fill="#622280" points="663.073,375.546 695.01,403.942 667.717,367.147 	"/>
	<polygon fill="#4B2057" points="755.976,477.074 695.01,403.942 763.001,466.093 	"/>
	<polygon fill="#4B2057" points="238.136,396.677 243.412,379.25 218.53,352.709 	"/>
	<polygon fill="#3D1151" points="292.312,375.546 243.412,379.25 238.136,396.677 	"/>
	<polygon fill="#37153F" points="242.775,421.192 290.898,376.098 238.136,396.677 	"/>
	<polygon fill="#37153F" points="231.946,367.02 299.838,323.001 218.53,352.709 	"/>
	<polygon fill="#351846" points="292.312,375.546 231.946,367.02 243.412,379.25 	"/>
	<polygon opacity="0.35" points="201.312,359 591.461,202.912 193.239,329.714 	"/>
	<polygon opacity="0.37" points="591.461,202.912 193.239,329.714 575.881,163.67 	"/>
	<polygon opacity="0.31" points="193.239,329.714 167.504,236.367 575.881,163.67 	"/>
	<polygon opacity="0.35" points="553.327,96.354 167.504,236.367 575.881,163.67 	"/>
	<polygon opacity="0.18" points="147.777,164.815 167.504,236.367 553.327,96.354 	"/>
	<polygon opacity="0.24" points="147.777,164.815 533.841,37.825 553.327,96.354 	"/>
	<polygon opacity="0.11" points="147.777,164.815 533.841,37.825 139.889,136.2 	"/>
	<polygon opacity="0.24" points="515.717,-18.135 533.841,37.825 139.889,136.2 	"/>
	<polygon opacity="0.24" points="515.717,-18.135 139.889,51.393 139.889,136.2 	"/>
	<path fill="#480A0D" d="M561.557,119.349"/>
	<polyline opacity="0.94" fill="#D40050" points="591.461,202.912 608,287 614.628,280.956 	"/>
	<polygon opacity="0.75" fill="#D40050" points="667.717,367.147 608,287 614.628,280.956 	"/>
	<polygon opacity="0.41" fill="#D40050" points="608,287 663.073,375.546 667.717,367.147 	"/>
	<polygon opacity="0.41" fill="#D40050" points="574.089,208.444 608,287 591.461,202.912 	"/>
</g>
<g id="Capa_13">
	<polygon opacity="0.28" fill="#E30E6F" points="221.954,350.742 139.889,136.2 201.312,359 	"/>
	<path fill="#E30E6F" d="M65.002,96.354"/>
	<polygon opacity="0.45" fill="#E30E6F" points="525.526,12.155 574.089,209.862 591.461,202.912 	"/>
	<polygon opacity="0.36" fill="#E30E6F" points="139.889,62.16 221.954,350.742 139.889,136.2 	"/>
</g>
<g id="Capa_1">
	<path d="M-62-32v871h917V-32H-62z M400,800C179.086,800,0,620.914,0,400S179.086,0,400,0s400,179.086,400,400S620.914,800,400,800z
		"/>
</g>
<g id="Capa_8">
	<g>
		<g>
			<path fill="#F6CCDE" d="M1225.691,737.388c0-5.847-3.484-10.014-9.33-11.009c4.728-1.182,7.649-4.852,7.649-9.702
				c0-6.78-5.597-10.884-14.615-10.884h-18.908v43.537h19.343C1219.658,749.33,1225.691,744.852,1225.691,737.388z
				 M1197.826,712.385h11.195c4.665-0.062,7.464,1.99,7.464,5.598c0,3.732-2.799,5.848-7.464,5.848h-11.195V712.385z
				 M1197.826,742.736v-12.439h11.195c5.722-0.062,9.143,2.302,9.143,6.158c0,4.043-3.421,6.344-9.143,6.281H1197.826z"/>
		</g>
		<g>
			<path fill="#F6CCDE" d="M1297.333,739.627c5.536-0.062,10.075-2.611,12.874-6.904v5.785c0,6.281-4.977,10.76-11.941,10.76
				c-4.728,0-10.139-2.363-13.248-5.66l-3.483,5.225c3.732,4.168,10.822,7.027,17.603,7.027c10.885,0,18.348-6.965,18.348-17.228
				v-38.022h-7.277v19.114c0,7.65-4.727,13.062-11.443,13.124c-6.033,0-10.263-4.229-10.263-10.201v-13.398h-7.339v14.084
				C1281.162,732.973,1287.817,739.627,1297.333,739.627z"/>
		</g>
		<g>
			<path fill="#F6CCDE" d="M1219.717,784.55c0,10.014,7.027,16.854,17.291,16.854c10.199,0,17.229-6.841,17.229-16.854
				c0-8.64-5.303-14.882-13.374-16.38v-30.471h23.387v11.631h7.276v-25.439c0-11.318-7.215-18.348-19.095-18.348
				c-11.692,0-18.906,7.029-18.906,18.348v44.213C1225.189,769.469,1219.717,775.771,1219.717,784.55z M1247.083,784.674
				c0,6.406-4.167,10.76-10.075,10.76c-5.972,0-10.14-4.354-10.14-10.76c0-6.344,4.168-10.76,10.14-10.76
				C1242.916,773.914,1247.083,778.33,1247.083,784.674z M1240.862,723.891c-0.062-7.277,4.354-11.755,11.631-11.755
				c7.339,0,11.692,4.478,11.756,11.755v7.277h-23.448L1240.862,723.891z"/>
		</g>
		<g>
			<path fill="#F6CCDE" d="M1276.313,763.899c3.421,0,7.836,1.12,11.132,2.675l1.803-6.529c-3.482-1.618-8.645-2.738-13.558-2.738
				c-8.77,0-14.431,5.535-14.431,14.119v37.99c-1.076-0.133-2.187-0.221-3.356-0.221c-11.693,0-18.908,7.027-18.908,18.348v25.439
				h7.339v-11.631h23.387v11.631h7.276v-25.439c0-7.357-3.062-12.885-8.46-15.865v-27.438h17.043v-6.532h-17.043v-6.156
				C1268.537,766.948,1271.648,763.899,1276.313,763.899z M1269.721,834.82h-23.449l0.062-7.277
				c-0.062-7.275,4.354-11.754,11.631-11.754c7.341,0,11.694,4.479,11.756,11.754V834.82z"/>
		</g>
		<g>
			<path fill="#F6CCDE" d="M1167.564,836.811c0,5.91-4.041,9.889-10.199,9.889c-6.281,0-10.635-3.979-10.635-9.889v-27.365h-7.278
				v27.365c-0.062,5.91-4.229,9.889-10.573,9.889c-6.158,0-10.324-3.979-10.324-9.889v-27.365h-7.339v27.365
				c0,9.766,6.778,16.482,16.605,16.482c7.028,0,12.937-3.482,15.301-8.521c2.364,5.039,8.272,8.521,15.302,8.521
				c9.765,0,16.482-6.717,16.482-16.482v-27.365h-7.342V836.811z"/>
		</g>
		<g>
			<path fill="#F6CCDE" d="M1322.708,824.309c0-9.453-6.406-14.863-17.54-14.863h-17.663v43.537h7.338v-13.124h10.325
				c0.684,0,1.368,0,1.991-0.062l7.961,13.187h8.334l-9.765-14.555C1319.474,836.188,1322.708,831.275,1322.708,824.309z
				 M1305.168,833.266h-10.325v-17.229h10.325c6.717,0,10.573,2.738,10.573,8.459
				C1315.741,830.404,1311.885,833.266,1305.168,833.266z"/>
		</g>
		<g>
			<path fill="#F6CCDE" d="M1350.319,809.445h-17.85v43.537h17.662c13.187,0,22.702-9.206,22.702-21.77
				C1372.834,818.587,1363.38,809.445,1350.319,809.445z M1350.506,846.39h-10.698v-30.353h10.387
				c8.584,0,15.238,6.344,15.238,15.238C1365.433,840.107,1358.964,846.39,1350.506,846.39z"/>
		</g>
		<g>
			<path fill="#F6CCDE" d="M1387.322,820.576c0-2.923,2.798-4.539,7.091-4.539c3.296,0,8.023,1.181,12.75,4.043l3.047-6.468
				c-4.042-2.676-9.579-4.479-15.237-4.479c-9.454,0-15.861,4.665-15.861,12.128c0,15.487,23.512,10.076,23.512,19.778
				c0,3.359-3.049,5.287-8.148,5.287c-4.665,0-10.263-2.239-14.74-6.344l-3.173,6.344c4.479,4.104,10.947,6.903,17.788,6.903
				c9.579,0,16.421-4.789,16.421-12.562C1410.833,824.994,1387.322,830.094,1387.322,820.576z"/>
		</g>
		<g>
			<path fill="#F6CCDE" d="M1237.393,891.315c-2.488-2.075-6.26-3.71-11.315-4.903c-5.262-1.272-8.921-2.528-10.976-3.762
				c-2.057-1.232-3.607-2.814-4.656-4.747s-1.572-4.378-1.572-7.339c0-5.959,0.977-11.775,2.93-17.449
				c1.951-5.674,4.818-11.499,8.602-17.48c3.781-5.982,10.236-14.419,19.361-25.314v-4.192c-3.864,0.575-9.783,1.223-17.758,1.942
				c-7.977,0.72-15.662,1.325-23.062,1.818v7.029l33.298-4.993v0.247c-12.455,13.113-21.418,24.397-26.885,33.852
				c-5.468,9.456-8.2,18.047-8.2,25.774c0,6.661,1.787,11.748,5.363,15.263c3.578,3.516,9.373,6.074,17.39,7.677
				c4.193,0.821,7.357,1.839,9.496,3.052c2.138,1.213,3.206,3.094,3.206,5.643c0,2.139-0.762,3.967-2.281,5.488
				c-1.521,1.521-3.885,2.919-7.091,4.193v4.008c6.495-2.138,11.099-4.554,13.812-7.246c2.712-2.692,4.069-6.033,4.069-10.019
				C1241.123,896.237,1239.879,893.391,1237.393,891.315z"/>
		</g>
		<g>
			<circle fill="#F6CCDE" cx="1236.976" cy="784.611" r="4.211"/>
		</g>
		<g>
			<rect x="1183.148" y="809.445" fill="#F6CCDE" width="7.339" height="43.537"/>
		</g>
	</g>
	<g>
		<g>
			<linearGradient id="SVGID_5_" gradientUnits="userSpaceOnUse" x1="299.0532" y1="109.0142" x2="344.3007" y2="63.7667">
				<stop  offset="0" style="stop-color:#E1007A"/>
				<stop  offset="1" style="stop-color:#37A8DB"/>
			</linearGradient>
			<path fill="url(#SVGID_5_)" d="M349.316,98.67c0-7.516-4.479-12.872-11.993-14.151c6.078-1.519,9.833-6.236,9.833-12.472
				c0-8.716-7.196-13.991-18.787-13.991h-24.307v55.967h24.866C341.562,114.023,349.316,108.266,349.316,98.67z M313.496,66.53
				h14.393c5.996-0.081,9.594,2.559,9.594,7.196c0,4.798-3.599,7.518-9.594,7.518h-14.393V66.53z M313.496,105.546v-15.99h14.393
				c7.354-0.08,11.753,2.959,11.753,7.916c0,5.197-4.399,8.155-11.753,8.074H313.496z"/>
		</g>
		<g>
			<linearGradient id="SVGID_6_" gradientUnits="userSpaceOnUse" x1="418.8896" y1="111.2085" x2="473.0101" y2="57.088">
				<stop  offset="0" style="stop-color:#E1007A"/>
				<stop  offset="1" style="stop-color:#37A8DB"/>
			</linearGradient>
			<path fill="url(#SVGID_6_)" d="M441.41,101.549c7.116-0.081,12.951-3.357,16.549-8.875v7.437c0,8.074-6.397,13.832-15.35,13.832
				c-6.076,0-13.034-3.039-17.03-7.276l-4.477,6.715c4.797,5.358,13.912,9.034,22.625,9.034c13.993,0,23.587-8.953,23.587-22.145
				V51.393h-9.355v24.572c0,9.834-6.076,16.79-14.71,16.871c-7.755,0-13.191-5.438-13.191-13.114V62.498h-9.435v18.104
				C420.623,92.996,429.179,101.549,441.41,101.549z"/>
		</g>
		<g>
			<linearGradient id="SVGID_7_" gradientUnits="userSpaceOnUse" x1="332.6177" y1="159.7749" x2="415.007" y2="77.3855">
				<stop  offset="0" style="stop-color:#E1007A"/>
				<stop  offset="1" style="stop-color:#37A8DB"/>
			</linearGradient>
			<path fill="url(#SVGID_7_)" d="M341.636,159.296c0,12.873,9.034,21.666,22.228,21.666c13.111,0,22.147-8.793,22.147-21.666
				c0-11.106-6.815-19.13-17.192-21.056V99.071h30.063v14.952h9.353V81.32c0-14.549-9.273-23.585-24.545-23.585
				c-15.029,0-24.303,9.036-24.303,23.585v56.835C348.673,139.91,341.636,148.012,341.636,159.296z M376.815,159.456
				c0,8.236-5.358,13.832-12.952,13.832c-7.676,0-13.034-5.596-13.034-13.832c0-8.154,5.358-13.831,13.034-13.831
				C371.458,145.625,376.815,151.301,376.815,159.456z M368.819,81.32c-0.081-9.354,5.599-15.111,14.951-15.111
				c9.435,0,15.03,5.756,15.112,15.111v9.355h-30.144L368.819,81.32z"/>
		</g>
		<g>
			<linearGradient id="SVGID_8_" gradientUnits="userSpaceOnUse" x1="357.5356" y1="238.3823" x2="449.5693" y2="146.3486">
				<stop  offset="0" style="stop-color:#E1007A"/>
				<stop  offset="1" style="stop-color:#37A8DB"/>
			</linearGradient>
			<path fill="url(#SVGID_8_)" d="M414.391,132.751c4.396,0,10.073,1.439,14.309,3.438l2.317-8.393
				c-4.477-2.081-11.112-3.521-17.426-3.521c-11.273,0-18.552,7.115-18.552,18.149v48.836c-1.383-0.171-2.81-0.284-4.315-0.284
				c-15.031,0-24.306,9.033-24.306,23.585v32.702h9.435v-14.952h30.062v14.952h9.355v-32.702c0-9.458-3.938-16.563-10.877-20.394
				v-35.271h21.908V150.5h-21.908v-7.914C404.394,136.67,408.393,132.751,414.391,132.751z M405.915,223.918h-30.142l0.08-9.355
				c-0.08-9.353,5.596-15.109,14.952-15.109c9.436,0,15.033,5.757,15.11,15.109V223.918z"/>
		</g>
		<g>
			<linearGradient id="SVGID_9_" gradientUnits="userSpaceOnUse" x1="211.5063" y1="245.186" x2="274.7133" y2="181.979">
				<stop  offset="0" style="stop-color:#E1007A"/>
				<stop  offset="1" style="stop-color:#37A8DB"/>
			</linearGradient>
			<path fill="url(#SVGID_9_)" d="M274.598,226.477c0,7.597-5.197,12.711-13.113,12.711c-8.074,0-13.67-5.114-13.67-12.711v-35.178
				h-9.356v35.178c-0.079,7.597-5.436,12.711-13.59,12.711c-7.917,0-13.273-5.114-13.273-12.711v-35.178h-9.433v35.178
				c0,12.553,8.714,21.188,21.346,21.188c9.035,0,16.631-4.477,19.668-10.954c3.038,6.478,10.636,10.954,19.669,10.954
				c12.553,0,21.188-8.635,21.188-21.188v-35.178h-9.435V226.477z"/>
		</g>
		<g>
			<linearGradient id="SVGID_10_" gradientUnits="userSpaceOnUse" x1="426.3398" y1="244.8271" x2="471.5369" y2="199.6301">
				<stop  offset="0" style="stop-color:#E1007A"/>
				<stop  offset="1" style="stop-color:#37A8DB"/>
			</linearGradient>
			<path fill="url(#SVGID_10_)" d="M474.03,210.405c0-12.152-8.235-19.106-22.549-19.106h-22.703v55.966h9.432v-16.871h13.271
				c0.879,0,1.761,0,2.561-0.08l10.234,16.951h10.713l-12.553-18.71C469.872,225.676,474.03,219.361,474.03,210.405z
				 M451.481,221.919H438.21v-22.146h13.271c8.634,0,13.594,3.52,13.594,10.874C465.075,218.241,460.115,221.919,451.481,221.919z"
				/>
		</g>
		<g>
			<linearGradient id="SVGID_11_" gradientUnits="userSpaceOnUse" x1="481.5176" y1="242.2036" x2="527.4065" y2="196.3147">
				<stop  offset="0" style="stop-color:#E1007A"/>
				<stop  offset="1" style="stop-color:#37A8DB"/>
			</linearGradient>
			<path fill="url(#SVGID_11_)" d="M509.524,191.299h-22.945v55.966h22.704c16.949,0,29.181-11.834,29.181-27.984
				C538.464,203.05,526.313,191.299,509.524,191.299z M509.763,238.79h-13.751v-39.018h13.351c11.035,0,19.59,8.155,19.59,19.589
				C528.952,230.714,520.636,238.79,509.763,238.79z"/>
		</g>
		<g>
			<linearGradient id="SVGID_12_" gradientUnits="userSpaceOnUse" x1="545.2363" y1="240.6885" x2="587.8906" y2="198.0342">
				<stop  offset="0" style="stop-color:#E1007A"/>
				<stop  offset="1" style="stop-color:#37A8DB"/>
			</linearGradient>
			<path fill="url(#SVGID_12_)" d="M557.089,205.608c0-3.757,3.598-5.835,9.116-5.835c4.236,0,10.313,1.518,16.39,5.197l3.917-8.314
				c-5.197-3.44-12.315-5.757-19.588-5.757c-12.151,0-20.39,5.997-20.39,15.589c0,19.909,30.224,12.953,30.224,25.425
				c0,4.318-3.919,6.796-10.475,6.796c-5.995,0-13.191-2.879-18.948-8.155l-4.077,8.155c5.757,5.275,14.072,8.874,22.864,8.874
				c12.316,0,21.11-6.156,21.11-16.149C587.313,211.287,557.089,217.842,557.089,205.608z"/>
		</g>
		<g>
			<linearGradient id="SVGID_13_" gradientUnits="userSpaceOnUse" x1="306.0088" y1="289.5557" x2="387.9693" y2="207.5952">
				<stop  offset="0" style="stop-color:#E1007A"/>
				<stop  offset="1" style="stop-color:#37A8DB"/>
			</linearGradient>
			<path fill="url(#SVGID_13_)" d="M364.359,296.542c-3.197-2.668-8.046-4.77-14.546-6.304c-6.764-1.635-11.469-3.25-14.109-4.835
				c-2.644-1.584-4.637-3.618-5.985-6.102c-1.347-2.485-2.021-5.628-2.021-9.435c0-7.66,1.256-15.137,3.766-22.43
				c2.508-7.293,6.194-14.782,11.059-22.471c4.86-7.69,13.157-18.535,24.887-32.541v-5.389c-4.968,0.739-12.575,1.572-22.827,2.497
				c-10.253,0.926-20.134,1.704-29.646,2.338v9.036l42.803-6.418v0.317c-16.011,16.857-27.533,31.363-34.56,43.516
				c-7.029,12.156-10.543,23.199-10.543,33.133c0,8.562,2.3,15.102,6.897,19.619c4.598,4.52,12.047,7.809,22.353,9.868
				c5.391,1.056,9.458,2.364,12.207,3.923c2.747,1.559,4.123,3.977,4.123,7.253c0,2.749-0.98,5.099-2.935,7.056
				c-1.957,1.955-4.993,3.751-9.114,5.39v5.152c8.348-2.748,14.269-5.854,17.755-9.315c3.486-3.461,5.232-7.755,5.232-12.879
				C369.155,302.868,367.556,299.209,364.359,296.542z"/>
		</g>
		<g>
			<linearGradient id="SVGID_14_" gradientUnits="userSpaceOnUse" x1="359.9956" y1="163.2036" x2="367.6511" y2="155.5481">
				<stop  offset="0" style="stop-color:#E1007A"/>
				<stop  offset="1" style="stop-color:#37A8DB"/>
			</linearGradient>
			<circle fill="url(#SVGID_14_)" cx="363.823" cy="159.375" r="5.413"/>
		</g>
		<g>
			<linearGradient id="SVGID_15_" gradientUnits="userSpaceOnUse" x1="282.9966" y1="235.6323" x2="315.6961" y2="202.9328">
				<stop  offset="0" style="stop-color:#E1007A"/>
				<stop  offset="1" style="stop-color:#37A8DB"/>
			</linearGradient>
			<rect x="294.629" y="191.299" fill="url(#SVGID_15_)" width="9.433" height="55.966"/>
		</g>
	</g>
	<g>
		<g>
			<g>
				<path fill="#37A8DB" d="M310.926,109.064h14.391c6.397,0.071,10.554-2.162,11.53-6.162c-2.024,1.535-5.073,2.349-8.958,2.306
					h-14.391l-0.001-15.653l-2.57,3.519V109.064z"/>
			</g>
			<g>
				<path fill="#37A8DB" d="M310.926,70.049v14.713h14.391c5.17,0,8.551-2.025,9.387-5.657c-1.64,1.172-3.949,1.8-6.815,1.8h-14.391
					l-0.001-14.375L310.926,70.049z"/>
			</g>
			<g>
				<path fill="#37A8DB" d="M325.798,61.575c11.593,0,18.788,5.275,18.788,13.991c0,1.877-0.347,3.612-0.987,5.167
					c2.271-2.271,3.557-5.385,3.557-9.023c0-8.716-7.194-13.991-18.787-13.991h-24.307v3.856H325.798z"/>
			</g>
		</g>
		<g>
			<g>
				<path fill="#37A8DB" d="M440.038,117.461c6.776,0,12.082-3.299,14.263-8.403c-2.739,2.842-6.831,4.546-11.691,4.546
					c-6.076,0-13.034-3.038-17.03-7.275l-2.571,3.856C427.006,114.423,433.962,117.461,440.038,117.461z"/>
			</g>
			<g>
				<path fill="#37A8DB" d="M457.959,51.055v3.856h6.784v48.878c0,3.946-0.875,7.502-2.453,10.566
					c3.207-3.749,5.024-8.682,5.024-14.423V51.055H457.959z"/>
			</g>
			<g>
				<path fill="#37A8DB" d="M427.487,66.017V83.24c0,7.676,5.435,13.113,13.191,13.113c5.844-0.056,10.506-3.265,12.917-8.378
					c-2.583,2.817-6.159,4.482-10.347,4.522c-7.755,0-13.191-5.437-13.191-13.114V62.16h-9.435v3.856H427.487z"/>
			</g>
		</g>
		<g>
			<g>
				<path fill="#37A8DB" d="M370.178,73.785c-2.573,2.609-3.97,6.382-3.93,11.055l-0.08,9.354h30.142v-3.856h-27.572l0.081-9.355
					C368.795,78.256,369.274,75.847,370.178,73.785z"/>
			</g>
			<g>
				<path fill="#37A8DB" d="M383.689,57.397c-10.301,0-17.894,4.249-21.655,11.603c4.194-4.956,10.75-7.746,19.085-7.746
					c15.271,0,24.545,9.037,24.545,23.586v28.845h2.57V80.983C408.234,66.433,398.961,57.397,383.689,57.397z"/>
			</g>
			<g>
				<path fill="#37A8DB" d="M348.259,162.974c0,8.236,5.358,13.832,13.034,13.832c5.423,0,9.693-2.864,11.699-7.497
					c-2.276,2.309-5.433,3.64-9.128,3.64c-7.676,0-13.034-5.596-13.034-13.831c0-2.327,0.449-4.444,1.252-6.294
					C349.675,155.271,348.259,158.794,348.259,162.974z"/>
			</g>
			<g>
				<path fill="#37A8DB" d="M368.819,137.903V99.071l-2.571,3.519v39.17c10.375,1.925,17.192,9.949,17.192,21.056
					c0,3.931-0.851,7.475-2.396,10.513c3.159-3.702,4.967-8.625,4.967-14.37C386.011,147.853,379.195,139.828,368.819,137.903z"/>
			</g>
		</g>
		<g>
			<g>
				<path fill="#37A8DB" d="M413.591,123.938c-7.947,0-13.893,3.546-16.719,9.497c3.242-3.586,8.115-5.641,14.148-5.641
					c6.314,0,12.949,1.44,17.426,3.521l-1.089,3.949c0.457,0.19,0.912,0.384,1.343,0.587l2.317-8.393
					C426.54,125.378,419.904,123.938,413.591,123.938z"/>
			</g>
			<g>
				<path fill="#37A8DB" d="M404.394,142.249c0-1.322,0.212-2.539,0.589-3.642c-1.997,1.729-3.158,4.32-3.158,7.499v7.914h21.906
					v4.541h2.571v-8.398h-21.908V142.249z"/>
			</g>
			<g>
				<path fill="#37A8DB" d="M404.394,193.831v-34.934l-2.569,3.519v35.271c6.938,3.831,10.874,10.937,10.874,20.395v28.845h2.572
					v-32.702C415.271,204.768,411.333,197.662,404.394,193.831z"/>
			</g>
		</g>
		<g>
			<g>
				<path fill="#37A8DB" d="M245.244,194.817v35.178c0,7.597,5.597,12.711,13.671,12.711c5.876,0,10.248-2.822,12.113-7.381
					c-2.29,2.239-5.572,3.525-9.542,3.525c-8.074,0-13.67-5.114-13.67-12.712v-35.177h-9.356v3.856H245.244z"/>
			</g>
			<g>
				<path fill="#37A8DB" d="M240.609,240.236c-0.001-0.003-0.002-0.005-0.004-0.007c-0.004,0.01-0.008,0.017-0.014,0.026
					C240.598,240.249,240.602,240.243,240.609,240.236z"/>
			</g>
			<g>
				<path fill="#37A8DB" d="M209.024,194.817v35.178c0,7.597,5.355,12.711,13.271,12.711c6.143,0,10.694-2.902,12.603-7.58
					c-2.376,2.357-5.828,3.724-10.031,3.724c-7.917,0-13.272-5.114-13.272-12.712v-35.177h-9.433v3.856H209.024z"/>
			</g>
			<g>
				<path fill="#37A8DB" d="M274.596,190.961v3.856h6.867v35.178c0,3.869-0.826,7.361-2.328,10.346
					c3.11-3.641,4.898-8.513,4.898-14.203v-35.177H274.596z"/>
			</g>
		</g>
		<g>
			<g>
				<path fill="#37A8DB" d="M435.64,203.291v22.147h13.271c6.771,0,11.269-2.274,12.901-6.912c-2.323,2.041-5.818,3.055-10.33,3.055
					H438.21v-21.809L435.64,203.291z"/>
			</g>
			<g>
				<polygon fill="#37A8DB" points="462.437,228.555 459.865,232.074 469.829,246.927 474.989,246.927 				"/>
			</g>
			<g>
				<polygon fill="#37A8DB" points="435.64,233.913 435.64,246.927 438.21,246.927 438.21,230.394 				"/>
			</g>
			<g>
				<path fill="#37A8DB" d="M448.91,194.817c14.313,0,22.55,6.955,22.55,19.106c0,3.651-0.704,6.852-2.025,9.571
					c2.991-3.334,4.596-7.871,4.596-13.427c0-12.152-8.235-19.106-22.549-19.106h-22.703v3.856H448.91z"/>
			</g>
			<g>
				<polygon fill="#37A8DB" points="372.299,234.251 372.299,247.265 375.853,247.265 375.853,232.313 				"/>
			</g>
		</g>
		<g>
			<g>
				<path fill="#37A8DB" d="M506.952,194.817c16.79,0,28.941,11.751,28.941,27.982c0,5.013-1.182,9.611-3.316,13.567
					c3.729-4.693,5.887-10.672,5.887-17.424c0-16.23-12.15-27.981-28.939-27.981h-22.945v3.856H506.952z"/>
			</g>
			<g>
				<path fill="#37A8DB" d="M493.44,203.291v39.018h13.751c7.622,0,13.972-3.978,17.098-10.26
					c-3.473,4.002-8.613,6.403-14.526,6.403h-13.751v-38.68L493.44,203.291z"/>
			</g>
		</g>
		<g>
			<g>
				<path fill="#37A8DB" d="M587.232,231.098c0.081-20.148-30.144-13.593-30.144-25.828c0-0.184,0.015-0.359,0.032-0.534
					c-1.657,0.989-2.604,2.469-2.604,4.39c0,12.234,30.224,5.679,30.144,25.827c0,2.227-0.459,4.25-1.274,6.073
					C585.829,238.414,587.232,235.064,587.232,231.098z"/>
			</g>
			<g>
				<path fill="#37A8DB" d="M545.217,234.455c5.678,5.021,12.651,7.774,18.495,7.774c5.983,0,9.763-2.07,10.377-5.713
					c-1.802,1.208-4.456,1.856-7.806,1.856c-5.995,0-13.191-2.878-18.948-8.155L545.217,234.455z"/>
			</g>
			<g>
				<path fill="#37A8DB" d="M564.353,194.417c7.273,0,14.392,2.317,19.588,5.757l-1.943,4.123c0.199,0.116,0.396,0.215,0.598,0.335
					l3.917-8.314c-5.197-3.439-12.315-5.757-19.588-5.757c-9.441,0-16.498,3.632-19.187,9.746
					C551.284,196.558,557.114,194.417,564.353,194.417z"/>
			</g>
		</g>
		<g>
			<g>
				<path fill="#37A8DB" d="M355.168,198.322v-0.317l-0.875,0.132c-12.198,13.118-21.562,24.753-28.088,34.903
					C333.206,222.857,342.854,211.288,355.168,198.322z"/>
			</g>
			<g>
				<path fill="#37A8DB" d="M346.167,326.966c2.834-1.328,5.021-2.754,6.543-4.275c1.092-1.093,1.869-2.315,2.351-3.653
					c-1.959,1.875-4.917,3.607-8.894,5.187V326.966z"/>
			</g>
			<g>
				<path fill="#37A8DB" d="M369.155,307.183c0-4.652-1.6-8.313-4.796-10.979c-3.197-2.669-8.046-4.768-14.546-6.302
					c-6.764-1.637-11.468-3.251-14.109-4.835c-2.643-1.587-4.637-3.62-5.985-6.103c-1.349-2.483-2.021-5.629-2.021-9.435
					c0-7.66,1.256-15.137,3.767-22.43c2.507-7.294,6.193-14.782,11.057-22.471c0.116-0.184,0.243-0.376,0.363-0.564
					c-1.086,1.572-2.067,3.048-2.933,4.42c-4.864,7.689-8.549,15.177-11.058,22.471c-2.51,7.294-3.766,14.771-3.766,22.431
					c0,3.805,0.673,6.951,2.021,9.434c1.349,2.483,3.342,4.517,5.986,6.103c2.641,1.584,7.345,3.2,14.108,4.836
					c6.5,1.535,11.349,3.633,14.546,6.302c3.198,2.667,4.797,6.327,4.797,10.979c0,2.964-0.604,5.643-1.772,8.053
					C367.696,315.808,369.155,311.84,369.155,307.183z"/>
			</g>
			<g>
				<path fill="#37A8DB" d="M342.011,193.051c10.252-0.926,17.86-1.758,22.827-2.498v4.621c0.839-1.014,1.692-2.039,2.571-3.088
					v-5.389c-4.968,0.739-12.575,1.571-22.827,2.497c-10.253,0.925-20.134,1.704-29.646,2.337v3.677
					C323.659,194.607,332.672,193.893,342.011,193.051z"/>
			</g>
		</g>
		<g>
			<path fill="#37A8DB" d="M363.823,153.625c-2.723,0-4.957,2.019-5.335,4.639c0.812-0.486,1.75-0.783,2.764-0.783
				c2.99,0,5.414,2.424,5.414,5.413c0,0.266-0.042,0.52-0.078,0.776c1.581-0.946,2.649-2.656,2.649-4.632
				C369.236,156.049,366.813,153.625,363.823,153.625z"/>
		</g>
		<g>
			<polygon fill="#37A8DB" points="294.629,190.961 294.629,194.817 301.492,194.817 301.492,246.927 304.062,246.927
				304.062,190.961 			"/>
		</g>
	</g>
</g>
<g id="Capa_7">
	<g>
		<g>
			<path fill="#F5F5F6" d="M337.995,419.707c-2.134,0-3.665,1.601-3.665,3.944c0,2.342,1.53,3.943,3.665,3.943
				c1.554,0,2.807-0.511,3.642-1.485l1.485,1.485c-1.113,1.461-2.899,2.297-5.242,2.297c-3.665,0-6.216-2.53-6.216-6.24
				c0-3.735,2.551-6.286,6.216-6.286c2.227,0,3.966,0.719,5.103,2.018l-1.461,1.717
				C340.662,420.218,339.479,419.685,337.995,419.707z"/>
		</g>
		<g>
			<path fill="#F5F5F6" d="M357.852,422.12v7.678h-2.667v-6.936c0-1.855-1.113-2.993-2.969-2.993
				c-2.203,0.024-3.526,1.672-3.526,3.852v6.077h-2.667v-17.211h2.667v7.282c0.882-1.738,2.459-2.504,4.57-2.504
				C356.135,417.365,357.852,419.175,357.852,422.12z"/>
		</g>
		<g>
			<path fill="#F5F5F6" d="M373.139,417.458v12.34h-2.644v-2.088c-0.905,1.415-2.366,2.204-4.314,2.204
				c-3.549,0-5.915-2.575-5.915-6.333c0-3.688,2.343-6.216,5.822-6.24c1.995-0.022,3.502,0.766,4.407,2.204v-2.087H373.139z
				 M370.495,424.115v-0.905c-0.208-2.135-1.67-3.596-3.757-3.596c-2.228,0-3.782,1.693-3.804,4.06
				c0.022,2.344,1.554,4.014,3.804,4.014C368.825,427.688,370.287,426.226,370.495,424.115z"/>
		</g>
		<g>
			<path fill="#F5F5F6" d="M390.215,423.674c0,3.688-2.321,6.218-5.846,6.218c-1.972,0-3.456-0.789-4.361-2.229v6.635h-2.667v-16.84
				h2.667v2.134c0.905-1.438,2.389-2.227,4.314-2.227C387.825,417.365,390.215,419.916,390.215,423.674z M387.523,423.581
				c0-2.296-1.554-3.989-3.758-3.989s-3.758,1.67-3.758,3.989c0,2.39,1.554,4.036,3.758,4.036S387.523,425.947,387.523,423.581z"/>
		</g>
		<g>
			<path fill="#F5F5F6" d="M399.193,429.009c-0.975,0.581-2.02,0.905-2.97,0.905c-1.948,0-3.526-1.346-3.526-4.036v-11.344h2.645
				v3.388h3.642v1.994h-3.642v5.498c0,1.462,0.487,2.087,1.369,2.087c0.486,0,1.09-0.162,1.809-0.532L399.193,429.009z"/>
		</g>
		<g>
			<path fill="#F5F5F6" d="M410.561,425.947l1.553,1.438c-1.393,1.692-3.201,2.506-5.334,2.506c-3.805,0-6.426-2.53-6.426-6.264
				c0-3.619,2.389-6.216,6.193-6.263c3.363-0.047,5.613,2.018,5.822,5.382l-8.977,2.689c0.603,1.439,1.879,2.319,3.549,2.319
				C408.309,427.756,409.562,427.131,410.561,425.947z M403.021,423.488v0.023l6.771-2.018c-0.58-1.393-1.623-1.972-3.084-1.972
				C404.459,419.522,403.021,420.913,403.021,423.488z"/>
		</g>
		<g>
			<path fill="#F5F5F6" d="M421.902,417.365v2.551c-2.48-0.139-4.059,1.323-4.268,3.434v6.448h-2.668v-12.34h2.668v2.458
				C418.471,418.246,419.955,417.365,421.902,417.365z"/>
		</g>
		<g>
			<path fill="#F5F5F6" d="M442.781,423.605c0,3.733-2.621,6.286-6.426,6.286c-3.826,0-6.447-2.553-6.447-6.286
				c0-3.712,2.621-6.24,6.447-6.24C440.16,417.365,442.781,419.894,442.781,423.605z M432.574,423.651
				c0,2.389,1.555,4.012,3.781,4.012c2.205,0,3.758-1.623,3.758-4.012c0-2.366-1.553-4.013-3.758-4.013
				C434.129,419.639,432.574,421.285,432.574,423.651z"/>
		</g>
		<g>
			<path fill="#F5F5F6" d="M457.375,422.12v7.678h-2.668v-6.936c0-1.855-1.115-2.993-2.969-2.993
				c-2.043,0.024-3.318,1.438-3.504,3.364v6.564h-2.668v-12.34h2.668v2.366c0.881-1.718,2.459-2.459,4.547-2.459
				C455.656,417.365,457.375,419.175,457.375,422.12z"/>
		</g>
		<g>
			<path fill="#F5F5F6" d="M469.994,425.947l1.555,1.438c-1.393,1.692-3.201,2.506-5.336,2.506c-3.805,0-6.426-2.53-6.426-6.264
				c0-3.619,2.391-6.216,6.193-6.263c3.365-0.047,5.615,2.018,5.824,5.382l-8.979,2.689c0.604,1.439,1.879,2.319,3.549,2.319
				C467.744,427.756,468.996,427.131,469.994,425.947z M462.455,423.488v0.023l6.773-2.018c-0.58-1.393-1.623-1.972-3.084-1.972
				C463.893,419.522,462.455,420.913,462.455,423.488z"/>
		</g>
		<g>
			<path fill="#F5F5F6" d="M295.247,453.086v18.551h-3.976v-3.139c-1.36,2.128-3.557,3.312-6.486,3.312
				c-5.335,0-8.892-3.87-8.892-9.52c0-5.545,3.522-9.345,8.752-9.379c2.999-0.036,5.265,1.15,6.625,3.312v-3.139H295.247z
				 M291.271,463.093v-1.359c-0.314-3.208-2.511-5.405-5.649-5.405c-3.348,0-5.684,2.546-5.719,6.103
				c0.035,3.521,2.336,6.033,5.719,6.033C288.761,468.464,290.958,466.266,291.271,463.093z"/>
		</g>
		<g>
			<path fill="#F5F5F6" d="M306.541,468.15c0.558,0,1.151-0.21,1.849-0.595l0.557,3.278c-1.185,0.663-2.371,0.977-3.486,0.977
				c-2.581,0-4.603-1.848-4.603-5.405v-20.643h3.975v20.226C304.833,467.487,305.495,468.15,306.541,468.15z"/>
		</g>
		<g>
			<path fill="#F5F5F6" d="M329.553,462.326c0,5.614-3.94,9.45-9.659,9.45c-5.753,0-9.694-3.836-9.694-9.45
				c0-5.58,3.941-9.38,9.694-9.38C325.613,452.946,329.553,456.746,329.553,462.326z M314.21,462.396
				c0,3.592,2.336,6.031,5.684,6.031c3.312,0,5.648-2.439,5.648-6.031c0-3.558-2.336-6.032-5.648-6.032
				C316.546,456.364,314.21,458.839,314.21,462.396z"/>
		</g>
		<g>
			<path fill="#F5F5F6" d="M351.484,460.095v11.542h-4.01V461.21c0-2.789-1.674-4.498-4.463-4.498
				c-3.068,0.034-4.986,2.162-5.265,5.056v9.869h-4.01v-18.551h4.01v3.557c1.325-2.58,3.696-3.696,6.834-3.696
				C348.903,452.946,351.484,455.666,351.484,460.095z"/>
		</g>
		<g>
			<path fill="#F5F5F6" d="M373.588,453.086v16.737c0,5.335-3.801,8.682-9.625,8.682c-2.894,0-5.439-0.906-7.706-2.439l1.708-2.896
				c1.744,1.29,3.557,2.022,5.824,2.022c3.521,0,5.823-2.057,5.823-5.265v-2.336c-1.255,2.022-3.347,3.138-6.137,3.138
				c-5.021,0-8.369-3.627-8.369-8.962c0-5.229,3.312-8.787,8.23-8.821c2.859-0.034,4.986,1.116,6.276,3.139v-2.999H373.588z
				 M369.613,461.873c0-3.348-2.197-5.685-5.334-5.685c-3.173,0-5.37,2.372-5.405,5.685c0.035,3.347,2.196,5.719,5.405,5.719
				C367.416,467.592,369.613,465.22,369.613,461.873z"/>
		</g>
		<g>
			<path fill="#F5F5F6" d="M398.934,470.451c-1.465,0.872-3.033,1.359-4.463,1.359c-2.929,0-5.3-2.022-5.3-6.067v-17.052h3.975
				v5.092h5.474v2.999h-5.474v8.264c0,2.196,0.731,3.139,2.058,3.139c0.732,0,1.639-0.244,2.719-0.803L398.934,470.451z"/>
		</g>
		<g>
			<path fill="#F5F5F6" d="M420.586,460.095v11.542h-4.01V461.21c0-2.789-1.674-4.498-4.463-4.498
				c-3.312,0.034-5.301,2.512-5.301,5.788v9.137h-4.01v-25.874h4.01v10.949c1.324-2.615,3.695-3.766,6.869-3.766
				C418.006,452.946,420.586,455.666,420.586,460.095z"/>
		</g>
		<g>
			<path fill="#F5F5F6" d="M439.551,465.849l2.338,2.162c-2.094,2.544-4.812,3.766-8.021,3.766c-5.719,0-9.658-3.802-9.658-9.416
				c0-5.438,3.592-9.345,9.311-9.414c5.057-0.07,8.438,3.033,8.752,8.09l-13.496,4.044c0.908,2.162,2.826,3.487,5.336,3.487
				C436.168,468.567,438.051,467.627,439.551,465.849z M428.219,462.152v0.034l10.182-3.033c-0.871-2.092-2.441-2.965-4.637-2.965
				C430.381,456.188,428.219,458.281,428.219,462.152z"/>
		</g>
		<g>
			<path fill="#F5F5F6" d="M476.16,462.431c0,5.544-3.486,9.346-8.787,9.346c-2.965,0-5.195-1.187-6.557-3.349v3.209h-4.008v-25.874
				h4.008v10.53c1.361-2.161,3.592-3.347,6.486-3.347C472.568,452.946,476.16,456.782,476.16,462.431z M472.115,462.291
				c0-3.452-2.336-5.998-5.648-5.998s-5.65,2.512-5.65,5.998c0,3.592,2.338,6.067,5.65,6.067S472.115,465.849,472.115,462.291z"/>
		</g>
		<g>
			<path fill="#F5F5F6" d="M497.951,453.086v18.551h-3.975v-3.139c-1.361,2.128-3.559,3.312-6.486,3.312
				c-5.336,0-8.893-3.87-8.893-9.52c0-5.545,3.521-9.345,8.754-9.379c2.998-0.036,5.264,1.15,6.625,3.312v-3.139H497.951z
				 M493.977,463.093v-1.359c-0.314-3.208-2.512-5.405-5.65-5.405c-3.348,0-5.684,2.546-5.719,6.103
				c0.035,3.521,2.336,6.033,5.719,6.033C491.465,468.464,493.662,466.266,493.977,463.093z"/>
		</g>
		<g>
			<path fill="#F5F5F6" d="M520.996,453.086v16.562c0,5.44-3.627,8.927-9.275,8.893c-2.789-0.07-5.928-1.15-7.881-2.79l1.082-2.929
				c1.707,1.359,4.184,2.301,6.381,2.37c3.521,0,5.719-2.126,5.719-5.614v-2.684c-1.221,2.127-3.244,3.173-6.172,3.207
				c-4.674,0-7.568-2.754-7.568-7.183v-9.833h4.012v8.682c0,2.825,1.674,4.534,4.463,4.534c3.312-0.036,5.266-2.372,5.266-6.104
				v-7.112H520.996z"/>
		</g>
	</g>
</g>
</svg>
