<svg version="1.1" id="Capa_1" xmlns="http://www.w3.org/2000/svg" xmlns:xlink="http://www.w3.org/1999/xlink" x="0" y="0" width="1" height="800" viewBox="1198.375 0 1 800" enable-background="new 1198.375 0 1 800" xml:space="preserve"><g id="Capa_1_1_"><g><rect y="92.307" fill="#E3342E" width="1280.003" height="216.125"/><rect y="118.648" opacity=".09" fill="#FAE608" enable-background="new" width="1280.003" height="170.271"/><rect y="160.138" opacity=".09" fill="#FAE608" enable-background="new" width="1280.003" height="128.781"/><rect y="200.372" opacity=".09" fill="#FAE608" enable-background="new" width="1280.003" height="88.547"/><rect y="231.702" opacity=".09" fill="#FAE608" enable-background="new" width="1280.003" height="57.217"/><rect y="253.392" opacity=".09" fill="#FAE608" enable-background="new" width="1280.003" height="35.527"/><rect y="266.667" opacity=".09" fill="#FAE608" enable-background="new" width="1280.003" height="22.252"/><rect y="277.793" opacity=".09" fill="#FAE608" enable-background="new" width="1280.003" height="11.126"/><rect y="288.919" opacity=".98" fill="#FCE917" enable-background="new" width="1280.003" height="9.976"/><g><path fill="#FFF" d="M314.576,126.38"/><polygon fill="#229AD2" points="313.945,296.49 301.388,296.49 301.658,165.43 313.945,163.097"/><polygon fill="#BDE3F5" points="313.945,291.498 326.05,291.498 326.05,164.791 313.945,163.097"/><polygon opacity=".68" fill="#FFF" enable-background="new" points="334.967,292.625 319.147,292.625 319.147,163.825 334.967,166.04"/><polygon fill="#229AD2" points="314.576,126.38 301.504,165.894 313.945,163.097"/><polygon fill="#CCE9F7" points="314.576,126.38 326.05,164.791 313.945,163.097"/><polygon opacity=".59" fill="#FFF" enable-background="new" points="314.646,126.801 319.147,163.825 334.967,166.04"/><polygon opacity=".82" fill="#FFF" enable-background="new" points="314.576,126.38 303.565,165.43 295.869,167.16"/><polygon opacity=".56" fill="#FFF" enable-background="new" points="303.565,165.43 295.869,167.151 295.869,292.856 303.565,292.856"/><polygon fill="#FFF" points="334.967,166.04 314.646,126.801 333.496,165.894"/><polygon fill="#FFF" points="333.496,293.632 334.967,293.632 334.967,166.04 333.496,165.894"/><polygon fill="#FFF" points="297.328,212.127 297.328,168.252 300.47,167.507"/></g><g><path fill="#FFF" d="M334.967,103.333"/><polygon fill="#EAEAEC" points="340.617,291.498 324.893,291.498 325.23,127.399 340.617,124.477"/><polygon fill="#B1DEF4" points="340.617,285.247 355.772,285.247 355.772,126.599 340.617,124.477"/><polygon opacity=".68" fill="#FFF" enable-background="new" points="366.937,286.659 347.129,286.659 347.129,125.389 366.937,128.162"/><polygon fill="#EAEAEC" points="334.967,103.333 325.038,127.98 340.617,124.477"/><polygon fill="#B1DEF4" points="334.967,103.333 355.772,126.599 340.617,124.477"/><polygon opacity=".59" fill="#FFF" enable-background="new" points="335.055,103.859 347.129,125.389 366.937,128.162"/><polygon opacity=".82" fill="#FFF" enable-background="new" points="334.967,103.333 327.619,127.399 317.982,129.566"/><polygon opacity=".56" fill="#FFF" enable-background="new" points="327.619,127.399 317.982,129.554 317.982,286.947 327.619,286.947"/><polygon fill="#FFF" points="366.937,128.162 335.055,103.859 365.094,127.98"/><polygon fill="#FFF" points="365.094,287.92 366.937,287.92 366.937,128.162 365.094,127.98"/><polygon fill="#FFF" points="319.81,185.868 319.81,130.934 323.743,130.001"/></g><linearGradient id="SVGID_1_" gradientUnits="userSpaceOnUse" x1="392" y1="359.263" x2="1672.003" y2="359.263" gradientTransform="matrix(1 0 0 1 -392 189)"><stop offset="0" stop-color="#9E1A52"/><stop offset=".951" stop-color="#2963B3"/></linearGradient><rect y="296.525" fill="url(#SVGID_1_)" width="1280.003" height="503.475"/><rect y="296.525" fill="#B5D5E5" width="1280.003" height="23.819"/><rect y="296.525" fill="#DBEAF1" width="1280.003" height="15.542"/><rect y="296.525" fill="#FFF" width="1280.003" height="10.681"/><rect y="320.344" fill="#36A7DA" width="1280.003" height="10.969"/><rect x="627.445" y="301.865" fill="#CCE9F7" width="652.559" height="2.262"/><g><path fill="#FFF" d="M314.576,126.38"/><polygon fill="#229AD2" points="313.945,296.49 301.388,296.49 301.658,165.43 313.945,163.097"/><polygon fill="#BDE3F5" points="313.945,291.498 326.05,291.498 326.05,164.791 313.945,163.097"/><polygon opacity=".68" fill="#FFF" enable-background="new" points="334.967,292.625 319.147,292.625 319.147,163.825 334.967,166.04"/><polygon fill="#229AD2" points="314.576,126.38 301.504,165.894 313.945,163.097"/><polygon fill="#CCE9F7" points="314.576,126.38 326.05,164.791 313.945,163.097"/><polygon opacity=".59" fill="#FFF" enable-background="new" points="314.646,126.801 319.147,163.825 334.967,166.04"/><polygon opacity=".82" fill="#FFF" enable-background="new" points="314.576,126.38 303.565,165.43 295.869,167.16"/><polygon opacity=".56" fill="#FFF" enable-background="new" points="303.565,165.43 295.869,167.151 295.869,292.856 303.565,292.856"/><polygon fill="#FFF" points="334.967,166.04 314.646,126.801 333.496,165.894"/><polygon fill="#FFF" points="333.496,293.632 334.967,293.632 334.967,166.04 333.496,165.894"/><polygon fill="#FFF" points="297.328,212.127 297.328,168.252 300.47,167.507"/></g><polygon fill="#FFF" points="337.03,107.499 342.604,122.596 358.791,124.477"/><polygon fill="#FFF" points="342.923,128.451 362.153,128.451 342.923,126.349"/><g><polygon opacity=".63" fill="#FFF" enable-background="new" points="564.115,273.039 589.593,240.461 603.719,273.039"/><polygon opacity=".76" fill="#FFF" enable-background="new" points="616.842,273.039 589.593,240.461 603.719,273.039"/><polygon opacity=".61" fill="#B6E0F4" enable-background="new" points="584.129,273.039 581.524,273.039 582.558,266.682 585.163,266.682"/><polygon opacity=".79" fill="#FFF" enable-background="new" points="584.023,273.039 581.976,273.039 582.882,267.199 584.928,267.199"/></g><polygon fill="#95BD0F" points="0,233.196 647.867,274.508 0,262.018"/><polygon fill="#37A862" points="293.127,274.508 0,289.318 0,262.018"/><polygon fill="#00632E" points="84.71,304.127 448.907,304.127 293.127,274.508"/><polygon fill="#00882F" points="607.225,274.508 448.907,304.127 293.127,274.508"/><polygon fill="#37A862" points="714.002,304.127 647.867,274.508 607.225,274.508"/><polygon fill="#00632E" points="448.907,304.127 714.002,304.127 607.225,274.508"/><polygon fill="#40A42C" points="1.024,112.817 233.185,247.624 1.024,262.706"/><polygon fill="#DEDA03" points="1.89,152.768 234.209,248.131 0,112.129"/><polygon fill="#00882F" points="0,304.127 84.71,304.127 0,289.318"/><polygon fill="#043115" points="0,289.318 293.127,274.508 84.71,304.127"/><polygon fill="#BDCC04" points="0,262.018 647.867,274.508 293.127,274.508"/><linearGradient id="SVGID_2_" gradientUnits="userSpaceOnUse" x1="981.593" y1="50.204" x2="981.593" y2="-115.13" gradientTransform="matrix(1 0 0 1 -392 189)"><stop offset="0" stop-color="#FFFFFF" stop-opacity="0"/><stop offset=".233" stop-color="#FFFFFF" stop-opacity="0.69"/></linearGradient><rect x="586.958" y="73.87" fill="url(#SVGID_2_)" width="5.271" height="165.334"/><linearGradient id="SVGID_3_" gradientUnits="userSpaceOnUse" x1="978.957" y1="50.204" x2="978.957" y2="-115.13" gradientTransform="matrix(1 0 0 1 -392 189)"><stop offset="0" stop-color="#FFFFFF" stop-opacity="0"/><stop offset=".233" stop-color="#FFFFFF" stop-opacity="0.69"/></linearGradient><rect x="586.503" y="73.87" fill="url(#SVGID_3_)" width=".909" height="165.334"/><linearGradient id="SVGID_4_" gradientUnits="userSpaceOnUse" x1="984.226" y1="50.204" x2="984.226" y2="-115.13" gradientTransform="matrix(1 0 0 1 -392 189)"><stop offset="0" stop-color="#FFFFFF" stop-opacity="0"/><stop offset=".233" stop-color="#FFFFFF" stop-opacity="0.69"/></linearGradient><rect x="591.771" y="73.87" fill="url(#SVGID_4_)" width=".908" height="165.334"/><linearGradient id="SVGID_5_" gradientUnits="userSpaceOnUse" x1="392.499" y1="-142.847" x2="1672.502" y2="-142.847" gradientTransform="matrix(1 0 0 1 -392 189)"><stop offset="0" stop-color="#0C6052"/><stop offset=".951" stop-color="#075281"/></linearGradient><rect x=".499" fill="url(#SVGID_5_)" width="1280.003" height="92.307"/></g><g id="Capa_10" opacity=".86"><polygon opacity=".69" fill="#BD0926" enable-background="new" points="-96.5,-40.5 1244.5,-40.5 1244.5,331.312 -101.5,331.312"/></g><polygon fill="#F7E5A9" points="314.646,126.801 334.967,166.04 335.055,252.25 333.496,165.894"/><polygon fill="#F7E5A9" points="334.967,103.333 366.937,128.162 367.25,247.25 365.094,127.98"/></g><g id="Capa_2"><polygon fill="#F7E5A9" points="713.667,303.667 647.867,275.667 513.667,266.167 648.334,274.508"/><polygon fill="#F7E5A9" points="589.593,240.461 603.217,271.661 602.367,271.661"/><polygon fill="#F7E5A9" points="616.842,273.039 589.593,240.461 614.949,272.44"/></g></svg>