<svg version="1.1" id="Capa_1" xmlns="http://www.w3.org/2000/svg" xmlns:xlink="http://www.w3.org/1999/xlink" x="0" y="0" width="300" height="300" viewBox="0 0 300 300" enable-background="new 0 0 300 300" xml:space="preserve"><polygon opacity=".39" fill="#1A171A" points="293.921,262.972 10.943,262.972 8.531,270.042 -0.055,297.346 10.47,299.764 20.993,298.716 25.139,284.028 274.433,284.028 270.244,297.346 280.768,299.764 291.291,298.716 299.879,268.293"/><polygon fill="#162459" points="298.818,272.133 10.943,241.439 298.818,241.439"/><polygon fill="#62247F" points="10.943,272.133 10.943,241.439 298.818,241.439"/><g><rect x="278.543" y="9.051" fill="#F7D2E2" width="21.457" height="265.452"/><polygon fill="#3C2773" points="300,274.503 289.437,274.503 278.543,274.503 278.543,9.051 284.607,84.072"/><polyline fill="#AC047A" points="300,9.051 278.543,9.051 290.855,161.369"/><polygon fill="#62247F" points="289.271,-0.09 278.543,9.051 300,9.051"/><polygon fill="#0771B2" points="291.322,9.051 289.271,-0.09 300,9.051"/><polygon fill="#62247F" points="297.107,238.719 289.271,277.892 300,274.503"/><polygon fill="#172632" points="278.543,247.282 289.271,277.892 278.543,274.503"/><polygon fill="#AC047A" points="278.543,247.282 297.107,238.719 289.271,277.892"/><polygon fill="#CA84A4" points="300,9.051 295.333,87.155 278.543,9.051"/><polygon fill="#F9D9E1" points="300,9.051 289.271,-0.09 298.622,11.288"/></g><g><rect x="7.856" y="9.051" fill="#F7D2E2" width="21.457" height="265.452"/><polygon fill="#3C2773" points="29.313,274.503 18.749,274.503 7.856,274.503 7.856,9.051 13.92,84.072"/><polyline fill="#AC047A" points="29.313,9.051 7.856,9.051 20.168,161.369"/><polygon fill="#62247F" points="18.584,-0.09 7.856,9.051 29.313,9.051"/><polygon fill="#0771B2" points="20.635,9.051 18.584,-0.09 29.313,9.051"/><polygon fill="#62247F" points="26.42,238.719 18.584,277.892 29.313,274.503"/><polygon fill="#172632" points="7.856,247.282 18.584,277.892 7.856,274.503"/><polygon fill="#AC047A" points="7.856,247.282 26.42,238.719 18.584,277.892"/><polygon fill="#CA84A4" points="29.313,9.051 24.646,87.155 7.856,9.051"/><polygon fill="#F9D9E1" points="29.313,9.051 18.584,-0.09 27.936,11.288"/></g></svg>