<svg version="1.1" id="Capa_1" xmlns="http://www.w3.org/2000/svg" xmlns:xlink="http://www.w3.org/1999/xlink" x="0" y="0" width="400" height="200" viewBox="0 0 400 200" enable-background="new 0 0 400 200" xml:space="preserve"><path fill="#FFF" d="M359.715,18.322H28.226c-5.523,0-10,4.477-10,10v118.452c0,5.522,4.477,10,10,10h331.489	c5.522,0,10-4.478,10-10V28.322C369.715,22.799,365.237,18.322,359.715,18.322z M240.997,38.033h24.869v18.452h-24.869V38.033z M240.997,60.486h24.869v18.452h-24.869V60.486z M240.997,82.94h24.869v18.452h-24.869V82.94z M211.724,38.034h24.869v18.452	h-24.869V38.034z M236.594,105.394v18.452h-24.869v-18.452H236.594z M211.724,60.487h24.869v18.452h-24.869V60.487z M211.724,82.941	h24.869v18.452h-24.869V82.941z M182.451,38.033h24.869v18.452h-24.869V38.033z M182.451,60.486h24.869v18.452h-24.869V60.486z M182.451,82.94h24.869v18.452h-24.869V82.94z M123.903,38.033h24.869v18.452h-24.869V38.033z M123.903,60.486h24.869v18.452	h-24.869V60.486z M94.63,38.034h24.869v18.452H94.63V38.034z M94.63,60.487h24.869v18.452H94.63V60.487z M65.356,38.033h24.869	v18.452H65.356V38.033z M65.356,60.486h24.869v18.452H65.356V60.486z M36.083,38.034h24.869v18.452H36.083V38.034z M36.083,60.487	h24.869v18.452H36.083V60.487z M60.953,123.846H36.083v-18.452h24.869V123.846z M60.953,101.392L60.953,101.392L60.953,101.392	l-24.87,0.001V82.941h0V82.94h24.869V101.392z M65.356,82.94h24.869v18.452H65.356V82.94z M90.226,123.845H65.357v-18.452h24.869	V123.845z M94.63,82.941h24.869v18.452H94.63V82.941z M119.5,123.846H94.63v-18.452H119.5V123.846z M123.903,82.94h24.869v18.452	h-24.869V82.94z M148.773,123.845h-24.869v-18.452h24.869V123.845z M178.046,123.846h-24.869v-18.452h24.869V123.846z M178.046,82.941v18.451v0.001h-24.869v-0.001V82.941V82.94L178.046,82.941L178.046,82.941z M178.046,78.939h-24.869V60.487h24.869	V78.939z M178.046,56.486h-24.869V38.034h24.869V56.486z M182.451,105.393h24.87v18.452h-24.87V105.393z M232.346,146.298H204	v-18.453h28.346V146.298z M265.867,146.298h-29.521v-18.453h29.521V146.298z M265.867,123.845h-24.869v-18.452h24.869V123.845z"/><g><path fill="#FFF" d="M103.998,171.293v1.608h6.265v3.504h-6.265v5.929h-4.416v-11.137c0-3.576,2.448-5.856,6.24-5.856 c2.185,0,4.489,0.432,5.929,1.104l-1.008,3.673c-1.368-0.601-3.192-1.057-4.512-1.057 C104.886,169.061,103.998,169.95,103.998,171.293z"/><path fill="#FFF" d="M118.445,178.806c0.384,0,0.792-0.12,1.224-0.336l0.36,3.528c-0.816,0.336-1.68,0.552-2.497,0.552 c-2.4,0-4.488-1.56-4.488-4.872v-13.153h4.272v12.961C117.317,178.422,117.773,178.806,118.445,178.806z"/><path fill="#FFF" d="M134.479,169.349v11.642c0,3.672-2.833,6.192-6.865,6.168c-1.968-0.023-4.369-0.72-5.856-1.704l1.032-2.977 c1.249,0.744,3,1.272,4.321,1.297c1.872,0,3.12-1.128,3.12-2.856v-1.872c-0.888,1.439-2.304,2.208-4.176,2.208 c-2.977,0-4.849-1.92-4.849-4.969v-6.937h4.272v5.713c0,1.464,0.84,2.352,2.208,2.352c1.584,0,2.544-1.176,2.544-3v-5.064H134.479z"/><path fill="#FFF" d="M306.816,171.702v10.633h-4.439v-9.577c0-1.944-1.057-3.216-2.762-3.216 c-1.895,0.023-3.215,1.584-3.215,3.72v9.073h-4.441v-9.577c0-1.944-1.08-3.216-2.783-3.216c-1.873,0.023-3.193,1.584-3.193,3.72 v9.073h-4.393v-16.825h4.393v2.664c1.08-1.656,2.809-2.641,4.969-2.664c2.377,0,4.201,1.32,4.992,3.504 c1.008-2.184,2.93-3.48,5.426-3.504C304.609,165.509,306.816,167.981,306.816,171.702z"/><path fill="#FFF" d="M322.92,175.83c0,4.009-2.832,6.648-7.105,6.648c-4.271,0-7.08-2.64-7.08-6.648 c0-3.984,2.809-6.624,7.08-6.624C320.088,169.206,322.92,171.845,322.92,175.83z M313.031,175.877c0,1.944,1.129,3.241,2.783,3.241 c1.682,0,2.809-1.297,2.809-3.241c0-1.92-1.127-3.216-2.809-3.216C314.16,172.662,313.031,173.958,313.031,175.877z"/><path fill="#FFF" d="M327.334,169.349l2.713,9.025l2.736-9.025h4.271l-4.871,12.985h-4.393l-4.85-12.985H327.334z"/><path fill="#FFF" d="M347.592,177.678l2.4,2.16c-1.512,1.776-3.504,2.64-5.953,2.64c-4.199,0-7.008-2.616-7.008-6.576 c0-3.984,2.615-6.673,6.768-6.696c3.889-0.024,6.457,2.352,6.553,6.192l-8.689,2.088c0.48,1.128,1.441,1.776,2.689,1.776 C345.504,179.262,346.631,178.71,347.592,177.678z M341.326,175.134l4.826-1.2c-0.312-1.152-1.105-1.704-2.16-1.704 C342.455,172.23,341.471,173.261,341.326,175.134z"/></g><rect x="36.083" y="127.846" width="163.917" height="18.453"/><rect x="275.738" y="127.846" width="24.869" height="18.453"/><rect x="305.012" y="127.845" width="24.869" height="18.452"/><rect x="305.012" y="105.393" width="24.869" height="18.452"/><rect x="334.285" y="127.846" width="24.869" height="18.453"/><polygon fill="#FFF" points="311.49,117.598 317.446,111.641 323.402,117.598"/><polygon fill="#FFF" points="323.402,134.094 317.446,140.05 311.49,134.094"/><polygon fill="#FFF" points="343.742,131.116 349.698,137.072 343.742,143.028"/><polygon fill="#FFF" points="291.15,143.029 285.194,137.073 291.15,131.117"/></svg>