<?xml version="1.0" encoding="utf-8"?>
<!-- Generator: Adobe Illustrator 15.0.0, SVG Export Plug-In . SVG Version: 6.00 Build 0)  -->
<!DOCTYPE svg PUBLIC "-//W3C//DTD SVG 1.1//EN" "http://www.w3.org/Graphics/SVG/1.1/DTD/svg11.dtd">
<svg version="1.1" id="Capa_1" xmlns="http://www.w3.org/2000/svg" xmlns:xlink="http://www.w3.org/1999/xlink" x="0px" y="0px"
	 width="400px" height="200px" viewBox="0 0 400 200" enable-background="new 0 0 400 200" xml:space="preserve">
<path opacity="0.29" d="M400,188c0,6.627-5.373,12-12,12H12c-6.627,0-12-5.373-12-12V12C0,5.373,5.373,0,12,0h376
	c6.627,0,12,5.373,12,12V188z"/>
<path fill="#FFFFFF" d="M359.715,18.322H28.226c-5.522,0-10,4.477-10,10v118.452c0,5.522,4.478,10,10,10h331.489
	c5.521,0,10-4.478,10-10V28.322C369.715,22.799,365.237,18.322,359.715,18.322z M240.997,38.033h24.869v18.452h-24.869V38.033z
	 M240.997,60.486h24.869v18.452h-24.869V60.486z M240.997,82.94h24.869v18.453h-24.869V82.94z M211.724,38.034h24.869v18.452
	h-24.869V38.034z M236.594,105.395v18.451h-24.869v-18.451H236.594z M211.724,60.487h24.869v18.452h-24.869V60.487z M211.724,82.941
	h24.869v18.452h-24.869V82.941z M182.451,38.033h24.868v18.452h-24.868V38.033z M182.451,60.486h24.868v18.452h-24.868V60.486z
	 M182.451,82.94h24.868v18.453h-24.868V82.94z M123.903,38.033h24.869v18.452h-24.869V38.033z M123.903,60.486h24.869v18.452
	h-24.869V60.486z M94.63,38.034h24.869v18.452H94.63V38.034z M94.63,60.487h24.869v18.452H94.63V60.487z M65.356,38.033h24.869
	v18.452H65.356V38.033z M65.356,60.486h24.869v18.452H65.356V60.486z M36.083,38.034h24.869v18.452H36.083V38.034z M36.083,60.487
	h24.869v18.452H36.083V60.487z M60.953,123.846h-24.87v-18.451h24.869L60.953,123.846L60.953,123.846z M60.953,101.393
	L60.953,101.393L60.953,101.393h-24.87V82.941l0,0V82.94h24.869L60.953,101.393L60.953,101.393z M65.356,82.94h24.869v18.453H65.356
	V82.94z M90.226,123.846H65.357v-18.453h24.869V123.846z M94.63,82.941h24.869v18.452H94.63V82.941z M119.5,123.846H94.63v-18.451
	h24.87V123.846z M123.903,82.94h24.869v18.453h-24.869V82.94z M148.773,123.846h-24.869v-18.453h24.869V123.846z M178.046,123.846
	h-24.869v-18.451h24.869V123.846z M178.046,82.941v18.452l0,0h-24.869l0,0V82.941V82.94L178.046,82.941L178.046,82.941z
	 M178.046,78.939h-24.869V60.487h24.869V78.939z M178.046,56.486h-24.869V38.034h24.869V56.486z M182.451,105.393h24.869v18.453
	h-24.869V105.393z M232.346,146.298H204v-18.452h28.346V146.298L232.346,146.298z M265.867,146.298h-29.521v-18.452h29.521V146.298z
	 M265.867,123.846h-24.869v-18.453h24.869V123.846z"/>
<g>
	<path fill="#FFFFFF" d="M103.998,171.293v1.607h6.265v3.504h-6.265v5.93h-4.416v-11.137c0-3.576,2.447-5.856,6.239-5.856
		c2.186,0,4.489,0.433,5.93,1.104l-1.008,3.673c-1.368-0.601-3.192-1.058-4.513-1.058
		C104.886,169.061,103.998,169.95,103.998,171.293z"/>
	<path fill="#FFFFFF" d="M118.445,178.807c0.385,0,0.792-0.121,1.225-0.336l0.359,3.527c-0.815,0.336-1.68,0.552-2.496,0.552
		c-2.4,0-4.488-1.56-4.488-4.872v-13.152h4.271v12.961C117.317,178.422,117.773,178.807,118.445,178.807z"/>
	<path fill="#FFFFFF" d="M134.479,169.35v11.641c0,3.673-2.833,6.193-6.865,6.169c-1.968-0.022-4.368-0.72-5.855-1.704l1.032-2.977
		c1.249,0.744,3,1.271,4.32,1.297c1.872,0,3.12-1.129,3.12-2.856v-1.872c-0.888,1.439-2.304,2.208-4.176,2.208
		c-2.977,0-4.849-1.92-4.849-4.969v-6.937h4.271v5.713c0,1.463,0.84,2.352,2.208,2.352c1.584,0,2.544-1.176,2.544-3v-5.064H134.479
		L134.479,169.35z"/>
	<path fill="#FFFFFF" d="M306.816,171.702v10.633h-4.438v-9.577c0-1.943-1.058-3.216-2.762-3.216
		c-1.896,0.022-3.216,1.584-3.216,3.72v9.073h-4.44v-9.577c0-1.943-1.08-3.216-2.783-3.216c-1.873,0.022-3.193,1.584-3.193,3.72
		v9.073h-4.393V165.51h4.393v2.664c1.08-1.656,2.81-2.641,4.97-2.664c2.377,0,4.2,1.32,4.991,3.504
		c1.009-2.184,2.931-3.479,5.427-3.504C304.609,165.51,306.816,167.98,306.816,171.702z"/>
	<path fill="#FFFFFF" d="M322.92,175.83c0,4.009-2.832,6.648-7.105,6.648c-4.271,0-7.08-2.641-7.08-6.648
		c0-3.984,2.81-6.624,7.08-6.624C320.088,169.206,322.92,171.846,322.92,175.83z M313.031,175.877c0,1.943,1.129,3.241,2.783,3.241
		c1.682,0,2.809-1.298,2.809-3.241c0-1.92-1.127-3.216-2.809-3.216C314.159,172.662,313.031,173.958,313.031,175.877z"/>
	<path fill="#FFFFFF" d="M327.334,169.35l2.713,9.024l2.735-9.024h4.271l-4.871,12.984h-4.394l-4.85-12.984H327.334z"/>
	<path fill="#FFFFFF" d="M347.592,177.678l2.399,2.16c-1.512,1.775-3.504,2.641-5.953,2.641c-4.198,0-7.008-2.617-7.008-6.576
		c0-3.984,2.615-6.674,6.769-6.696c3.889-0.024,6.457,2.353,6.553,6.192l-8.689,2.088c0.48,1.127,1.441,1.775,2.689,1.775
		C345.504,179.262,346.631,178.71,347.592,177.678z M341.325,175.135l4.826-1.201c-0.312-1.152-1.104-1.703-2.16-1.703
		C342.454,172.23,341.471,173.262,341.325,175.135z"/>
</g>
<rect x="36.083" y="127.846" width="163.917" height="18.453"/>
<rect x="275.738" y="127.846" width="24.869" height="18.453"/>
<rect x="305.012" y="127.846" width="24.869" height="18.451"/>
<rect x="305.012" y="105.393" width="24.869" height="18.453"/>
<rect x="334.284" y="127.846" width="24.869" height="18.453"/>
<polygon fill="#FFFFFF" points="311.49,117.598 317.446,111.641 323.402,117.598 "/>
<polygon fill="#FFFFFF" points="323.402,134.094 317.446,140.05 311.49,134.094 "/>
<polygon fill="#FFFFFF" points="343.741,131.115 349.698,137.072 343.741,143.027 "/>
<polygon fill="#FFFFFF" points="291.15,143.029 285.194,137.072 291.15,131.117 "/>
</svg>
