<svg version="1.1" id="Capa_1" xmlns="http://www.w3.org/2000/svg" xmlns:xlink="http://www.w3.org/1999/xlink" x="0" y="0" width="256" height="256" viewBox="0 0 256 256" enable-background="new 0 0 256 256" xml:space="preserve"><polygon opacity=".32" points="43.906,245.192 175.81,256.154 205.973,244.771 81.666,211.747 33.162,215.487 -0.607,244.044 18.222,249.98"/><polygon fill="#B6E0F4" points="256.163,229.271 155.782,124.797 205.973,244.771"/><polygon fill="#81CEEE" points="124.645,53.414 155.782,124.797 124.645,91.466"/><polygon fill="#B6E0F4" points="158.414,184.783 124.645,91.466 155.782,124.797"/><polygon fill="#81CEEE" points="168.852,251.887 205.973,244.771 158.414,184.783"/><polygon fill="#81CEEE" points="155.782,124.797 205.973,244.771 158.414,184.783"/><polygon fill="#E0ECF4" points="234.547,189.544 256.163,229.271 155.782,124.797"/><polygon fill="#81CEEE" points="98.857,0.145 124.645,53.414 106.225,59.472"/><polygon fill="#E0ECF4" points="111.751,85.172 124.645,91.466 124.645,53.414"/><polygon fill="#36A7DA" points="76.754,9.09 98.857,0.145 106.225,59.472"/><polygon fill="#093280" points="84.122,43.488 76.754,9.09 106.225,59.472"/><polygon fill="#B6E0F4" points="111.751,85.172 106.225,59.472 124.645,53.414"/><polygon fill="#0771B2" points="76.754,110.347 84.122,43.488 106.225,59.472"/><polygon fill="#093280" points="54.651,179.088 76.754,110.347 158.414,184.783"/><polygon fill="#0771B2" points="46.669,232.723 54.651,179.088 168.852,251.887"/><polygon fill="#093280" points="33.162,215.487 54.651,179.088 46.669,232.723"/><polygon fill="#36A7DA" points="158.414,184.783 168.852,251.887 54.651,179.088"/><polygon fill="#81CEEE" points="111.751,85.172 158.414,184.783 124.645,91.466"/><polygon fill="#36A7DA" points="76.754,110.347 111.751,85.172 158.414,184.783"/><polygon fill="#81CEEE" points="106.225,59.472 111.751,85.172 76.754,110.347"/><polygon fill="#162459" points="76.754,110.347 33.162,215.487 54.651,179.088"/></svg>