<svg version="1.1" xmlns="http://www.w3.org/2000/svg" xmlns:xlink="http://www.w3.org/1999/xlink" x="0" y="0" width="400" height="250" viewBox="0 0 400 250" enable-background="new 0 0 400 250" xml:space="preserve"><g id="Capa_2"><polygon fill="#F7B235" points="200.535,58.628 202.282,55.935 214.734,68.667"/><polygon fill="#7C4D24" points="216.408,68.201 221.055,71.59 208.603,71.033"/><polygon fill="#41281A" points="208.974,69.689 216.408,68.201 208.603,71.033"/><g><g><g><path fill="#302D30" d="M204.233,71.59c2.851,0.366,4.725,0.622,8.024,0.568l1.948,0l1.358,0.025l1.019,0.034l1.151,0.054 c0.778,0.042,1.577,0.098,2.392,0.17c1.63,0.144,3.327,0.35,5.056,0.646c0.864,0.148,1.736,0.317,2.611,0.512 c0.456,0.104,0.845,0.188,1.22,0.319c0.38,0.129,0.751,0.294,1.113,0.485c1.452,0.773,2.72,2.041,3.862,3.451 c1.145,1.416,2.185,2.978,3.221,4.534c2.057,3.125,4.15,6.232,6.454,8.839c2.286,2.621,4.745,4.735,7.012,6.258 c2.265,1.534,4.302,2.51,5.733,3.124c1.438,0.611,2.274,0.88,2.272,0.884c-0.003-0.03,3.3,1.318,8.667,2.045 c1.338,0.181,2.8,0.326,4.357,0.412c0.779,0.044,1.582,0.075,2.405,0.088c0.837,0.019,1.658,0.001,2.461,0.039 c3.258,0.129,6.761,0.871,9.96,2.49c3.209,1.596,6.052,4.045,8.283,6.866c1.121,1.407,2.104,2.899,2.957,4.412 c0.427,0.756,0.822,1.518,1.188,2.277l0.528,1.138l0.457,1.061c0.828,1.992,1.364,3.687,1.626,4.532 c0.933,3.139,1.69,4.854,2.759,7.519c0.308-2.863,0.263-4.875-0.678-8.15c-0.264-0.884-0.817-2.651-1.685-4.74l-0.479-1.114 l-0.554-1.196c-0.386-0.8-0.803-1.604-1.255-2.404c-0.902-1.601-1.947-3.19-3.15-4.7c-2.392-3.025-5.492-5.707-9.016-7.457 c-3.513-1.777-7.348-2.581-10.851-2.717c-0.891-0.04-1.73-0.021-2.513-0.04c-0.796-0.013-1.571-0.042-2.322-0.084 c-1.502-0.082-2.906-0.221-4.188-0.393c-5.138-0.695-8.235-1.965-8.236-1.936c0.002-0.004-0.788-0.258-2.138-0.833 c-1.346-0.578-3.251-1.493-5.367-2.928c-2.12-1.427-4.42-3.402-6.592-5.893c-2.19-2.48-4.21-5.47-6.274-8.61 c-1.042-1.565-2.105-3.169-3.343-4.702c-1.234-1.519-2.677-3.01-4.531-4.005c-0.461-0.245-0.942-0.458-1.438-0.626 c-0.499-0.174-1.013-0.285-1.45-0.384c-0.913-0.203-1.821-0.379-2.72-0.533c-1.796-0.307-3.55-0.52-5.231-0.668 c-0.841-0.073-1.664-0.13-2.465-0.174l-1.186-0.055l-1.046-0.034l-1.396-0.023l-1.999,0.011 C208.846,70.072,206.928,70.575,204.233,71.59z"/></g></g></g><g><g><g><path fill="#302D30" d="M196.721,73.078c2.829,0.518,4.708,0.831,8.019,0.85c0.68,0.007,1.875,0.021,3.364,0.08 c2.234,0.089,4.943,0.271,7.688,0.7c2.722,0.436,5.569,1.113,7.606,2.356c0.5,0.31,0.943,0.651,1.284,1.02 c0.333,0.364,0.68,0.845,0.951,1.271c0.558,0.88,0.948,1.758,1.245,2.513c0.581,1.52,0.833,2.531,0.842,2.524l0.637,2.277 c0.429,1.427,0.909,3.535,2.231,5.792c0.668,1.113,1.614,2.229,2.829,3.055c1.205,0.837,2.616,1.371,4.014,1.666 c0.346,0.074,0.712,0.135,1.041,0.187l0.936,0.16c0.62,0.117,1.231,0.255,1.828,0.411c1.194,0.312,2.331,0.694,3.375,1.11 c1.997,0.792,3.543,1.664,4.303,2.106c1.396,0.816,2.487,1.465,3.56,2.057c1.066,0.602,2.122,1.128,3.342,1.884 c-0.728-1.246-1.479-2.223-2.367-3.147c-0.896-0.919-1.949-1.782-3.431-2.668c-0.806-0.479-2.453-1.415-4.597-2.267 c-1.12-0.447-2.343-0.859-3.631-1.195c-0.645-0.168-1.305-0.317-1.975-0.444l-1.013-0.173c-0.323-0.051-0.61-0.099-0.913-0.163 c-1.19-0.251-2.308-0.686-3.229-1.325c-0.929-0.631-1.65-1.473-2.202-2.385c-1.093-1.841-1.59-3.843-2.002-5.247l-0.647-2.302 c-0.012,0.001-0.262-1.027-0.9-2.707c-0.328-0.836-0.769-1.838-1.431-2.887c-0.344-0.533-0.692-1.035-1.198-1.594 c-0.508-0.548-1.104-0.998-1.731-1.388c-2.54-1.53-5.55-2.187-8.414-2.662c-2.876-0.45-5.655-0.634-7.944-0.723 c-1.524-0.057-2.744-0.067-3.438-0.067C201.378,71.767,199.465,72.208,196.721,73.078z"/></g></g></g><polygon fill="#F5F5F6" points="382.349,183.723 359.531,144.131 342.246,133.537"/><polygon fill="#C5C5C7" points="362.297,174.242 376.261,183.723 382.349,183.723"/><polygon fill="#C5C5C7" points="345.592,152.496 362.297,174.242 382.349,183.723"/><polygon fill="#D8D9D9" points="345.592,152.496 342.246,133.537 382.349,183.723"/><polygon fill="#F5F5F6" points="342.246,133.537 337.413,122.011 326.817,111.841"/><path fill="#D8D9D9" d="M290.015,95.246c0.559,0.372,23.979,7.063,23.979,7.063l13.754,10.224L290.015,95.246z"/><polygon fill="#707072" points="327.747,120.897 326.817,116.064 342.246,133.537"/><polygon fill="#D8D9D9" points="326.817,111.841 326.817,116.064 342.246,133.537"/><polygon fill="#868788" points="288.155,100.078 290.015,108.072 290.015,95.246"/><polygon fill="#D8D9D9" points="326.817,116.064 290.015,95.246 326.817,111.841"/><polygon fill="#C5C5C7" points="327.747,120.897 290.015,95.246 326.817,116.064"/><polygon fill="#9B9B9D" points="290.015,108.072 305.349,137.16 290.015,95.246"/><polygon fill="#B0B2B3" points="325.888,132.607 305.349,137.16 290.015,95.246"/><polygon fill="#9B9B9D" points="338.435,158.072 325.888,132.607 305.349,137.16"/><polygon fill="#868788" points="338.435,158.072 362.297,174.242 345.592,152.496"/><path fill="#B0B2B3" d="M325.888,132.607c0.466,0.557,19.704,19.889,19.704,19.889l-7.157,5.576L325.888,132.607z"/><polygon fill="#B0B2B3" points="325.888,132.607 327.747,120.897 290.015,95.246"/><polygon fill="#D8D9D9" points="325.888,132.607 342.246,133.537 327.747,120.897"/><polygon fill="#EAEBEC" points="325.888,132.607 345.592,152.496 342.246,133.537"/><polygon fill="#F5F5F6" points="267.524,235.023 288.155,215.229 294.29,163.369"/><polygon fill="#D8D9D9" points="276.725,235.023 288.155,215.229 267.524,235.023"/><polygon fill="#EAEBEC" points="251.385,195.141 294.29,163.369 267.524,235.023"/><polygon fill="#C5C5C7" points="225.702,149.43 294.29,163.369 251.385,195.141"/><polygon fill="#D8D9D9" points="299.029,137.16 294.29,163.369 225.702,149.43"/><polygon fill="#EAEBEC" points="282.858,108.072 299.029,137.16 225.702,149.43"/><path fill="#F5F5F6" d="M204.233,97.848c1.395,0.278,78.625,10.224,78.625,10.224l-57.156,41.358L204.233,97.848z"/><polygon fill="#FFF" points="249.122,97.848 204.233,97.848 282.858,108.072"/><polygon fill="#707072" points="282.858,108.072 305.349,137.16 299.029,137.16"/><polygon fill="#3E3D3F" points="282.858,108.072 290.015,108.072 305.349,137.16"/><polygon fill="#D8D9D9" points="147.448,100.452 204.233,97.848 225.702,149.43"/><polygon fill="#3E3D3F" points="163.619,182.236 225.702,149.43 225.702,161.791"/><polygon fill="#868788" points="251.385,195.141 225.702,161.791 225.702,149.43"/><polygon fill="#EAEBEC" points="106.37,117.181 147.448,100.452 90.385,137.16"/><polygon fill="#D8D9D9" points="121.426,128.75 90.385,137.16 147.448,100.452"/><polygon fill="#C5C5C7" points="157.113,149.43 225.702,149.43 147.448,100.452"/><polygon fill="#D8D9D9" points="136.296,140.414 157.113,149.43 147.448,100.452"/><polygon fill="#C5C5C7" points="121.426,128.75 136.296,140.414 147.448,100.452"/><polygon fill="#C5C5C7" points="93.173,143.762 90.385,137.16 121.426,128.75"/><polygon fill="#9B9B9D" points="106.928,141.717 93.173,143.762 121.426,128.75"/><polygon fill="#868788" points="118.917,147.479 121.426,128.75 106.928,141.717"/><polygon fill="#57575A" points="118.917,147.479 136.296,140.414 121.426,128.75"/><polygon fill="#707072" points="129.977,168.668 136.296,140.414 118.917,147.479"/><polygon fill="#57575A" points="157.113,149.43 129.977,168.668 136.296,140.414"/><polygon fill="#707072" points="176.259,163.369 225.702,149.43 157.113,149.43"/><polygon fill="#57575A" points="163.619,182.236 176.259,163.369 225.702,149.43"/><polygon fill="#B0B2B3" points="157.113,149.43 163.619,182.236 176.259,163.369"/><polygon fill="#F5F5F6" points="141.872,192.459 163.619,182.236 157.113,149.43"/><polygon fill="#C5C5C7" points="141.872,192.459 154.232,193.76 163.619,182.236"/><polygon fill="#EAEBEC" points="129.977,168.668 141.872,192.459 157.113,149.43"/><polygon fill="#F5F5F6" points="127.606,187.068 129.977,168.668 141.872,192.459"/><polygon fill="#D8D9D9" points="114.177,214.393 127.606,187.068 141.872,192.459"/><polygon fill="#9B9B9D" points="186.575,174.676 187.411,204.17 194.66,211.605"/><polygon fill="#9B9B9D" points="220.909,163.369 216.594,178.891 194.66,211.605"/><polygon fill="#3E3D3F" points="186.575,174.676 203.287,169.174 194.66,211.605"/><polygon fill="#B0B2B3" points="127.606,187.068 121.426,192.459 114.177,214.393"/><polygon fill="#C79C63" points="115.153,194.666 121.426,192.459 114.177,214.393"/><path fill="#C5C5C7" d="M102.652,211.605"/><polygon fill="#A28878" points="110.087,203.426 115.153,194.666 114.177,214.393"/><polygon fill="#CABA9C" points="100.607,211.605 110.087,203.426 114.177,214.393"/><polygon fill="#5F4C3F" points="100.607,225.127 114.177,214.393 100.607,219.758"/><polygon fill="#786854" points="89.642,225.127 100.607,219.758 100.607,225.127"/><polygon fill="#A28878" points="114.177,214.393 95.961,216.252 100.607,219.758"/><polygon fill="#CABA9C" points="89.642,225.127 95.961,216.252 100.607,219.758"/><polygon fill="#A28878" points="85.18,209.934 100.607,211.605 87.968,212.535"/><polygon fill="#CABA9C" points="79.046,218.668 85.18,209.934 87.968,212.535"/><polygon fill="#CABA9C" points="89.642,214.299 95.961,216.252 83.507,222.443"/><polygon fill="#A28878" points="105.069,212.535 89.642,214.299 95.961,216.252"/><polygon fill="#41281A" points="83.507,222.443 91.552,222.443 95.961,216.252"/><polygon fill="#41281A" points="105.069,212.535 114.177,214.393 95.961,216.252"/><polygon fill="#905E35" points="79.046,218.668 89.642,214.299 87.968,212.535"/><polygon fill="#663A16" points="100.607,211.605 87.968,212.535 89.642,214.299"/><polygon fill="#41281A" points="100.607,211.605 105.069,212.535 89.642,214.299"/><polygon fill="#41281A" points="87.198,217.543 79.046,218.668 89.642,214.299"/><polygon fill="#CABA9C" points="102.189,176.475 98.215,191.459 85.18,190.832"/><polygon fill="#CABA9C" points="75.562,200.033 70.683,197.314 75.562,195.643"/><polygon fill="#CABA9C" points="79.674,197.594 85.18,190.832 75.562,195.643"/><polygon fill="#CABA9C" points="84.344,201.775 75.562,204.146 74.516,207.979"/><polygon fill="#CABA9C" points="98.215,191.459 84.344,201.775 85.18,197.523"/><polygon fill="#CABA9C" points="75.562,200.033 79.674,197.594 85.18,197.523"/><path fill="#CABA9C" d="M129.977,168.668"/><polygon fill="#B0B2B3" points="120.451,172.5 116.478,182.236 129.977,168.668"/><polygon fill="#C5C5C7" points="111.111,170.945 120.451,172.5 98.215,191.459"/><polygon fill="#B0B2B3" points="110.087,186.301 116.478,182.236 120.451,172.5"/><polygon fill="#D8D9D9" points="98.215,191.459 110.087,186.301 120.451,172.5"/><polygon fill="#C79C63" points="74.168,209.652 74.516,207.979 84.344,201.775"/><polygon fill="#C79C63" points="75.562,195.643 79.674,197.594 75.562,200.033"/><polygon fill="#C79C63" points="85.18,190.832 98.215,191.459 85.18,197.523"/><polygon fill="#C79C63" points="75.562,204.146 85.18,197.523 84.344,201.775"/><polygon fill="#A28878" points="85.18,190.832 85.18,197.523 79.674,197.594"/><polygon fill="#5F4C3F" points="88.248,202.752 110.087,186.301 98.215,191.459"/><polygon fill="#5F4C3F" points="74.168,209.652 88.248,202.752 84.344,201.775"/><polygon fill="#786854" points="88.248,202.752 98.215,191.459 84.344,201.775"/><polygon fill="#707072" points="116.478,182.236 127.606,187.068 129.977,168.668"/><polygon fill="#57575A" points="203.287,169.174 220.909,163.369 194.66,211.605"/><polygon fill="#868788" points="102.189,176.475 111.111,170.945 98.215,191.459"/><polygon fill="#EFAC32" points="175.516,93.481 184.159,78.796 186.575,83.722"/><polygon fill="#EFB380" points="169.94,87.347 175.516,93.481 184.159,78.796"/><polygon fill="#EFB380" points="197.264,95.247 186.575,83.722 175.516,93.481"/><g><polygon fill="#96BD0D" points="28.955,56.025 115.269,52.401 37.598,76.843"/><polygon fill="#96BD0D" points="186.482,48.693 115.269,52.401 141.872,53.982"/><polygon fill="#DEDA03" points="171.43,57.144 141.872,53.982 186.482,48.693"/><polygon fill="#DEDA03" points="37.598,76.843 141.872,53.982 115.269,52.401"/><polygon fill="#DEDA03" points="26.725,48.777 28.955,56.025 115.269,52.401"/><polygon fill="#172559" points="22.821,59.185 32.394,92.83 28.955,56.025"/><polygon fill="#172559" points="25.888,54.539 22.821,59.185 28.955,56.025"/><polygon fill="#070D0F" points="25.888,54.539 26.725,48.777 28.955,56.025"/><polygon fill="#40A42C" points="23.286,85.209 29.707,83.387 32.394,92.83"/><polygon fill="#0471B2" points="15.665,87.943 23.286,85.209 23.286,89.67"/><polygon fill="#172559" points="23.286,89.67 32.394,92.83 23.286,85.209"/><polygon fill="#093280" points="32.394,92.83 32.858,77.774 28.955,56.025"/><polygon fill="#36A7DA" points="143.615,57.144 32.394,92.83 37.598,76.843"/><polygon fill="#093280" points="141.872,53.982 143.615,57.144 37.598,76.843"/><polygon fill="#093280" points="145.705,61.142 169.013,66.624 143.615,57.144"/><polygon fill="#080614" points="171.43,57.144 169.013,66.624 141.872,53.982"/><polygon fill="#172559" points="141.872,53.982 169.013,66.624 143.615,57.144"/><polygon fill="#E97EAA" points="164.643,15.785 171.43,14.019 178.496,28.434"/><polygon fill="#E20A6F" points="181.836,39.391 178.496,28.434 164.643,15.785"/><polygon fill="#622580" points="172.728,49.409 170.498,32.421 177.093,44.042"/><polygon fill="#D20050" points="164.643,15.785 170.498,32.421 181.836,39.391"/><polygon fill="#E97EAA" points="181.836,48.693 181.836,39.391 177.093,44.042"/><polygon fill="#F7CDDE" points="186.482,37.625 186.482,48.035 181.836,48.693 181.836,39.391"/><polygon fill="#95506F" points="172.728,49.409 181.836,48.693 177.093,44.042"/><polygon fill="#E97EAA" points="186.482,37.625 178.496,28.434 181.836,39.391"/><polygon fill="#E0027A" points="171.43,14.019 186.482,37.625 178.496,28.434"/><polygon fill="#F7B235" points="186.482,48.035 186.482,48.693 181.836,48.693"/><polygon fill="#B28329" points="200.535,58.628 197.264,63.328 214.734,68.667"/><polygon fill="#6F531A" points="208.974,69.689 197.264,63.328 214.734,68.667"/><polygon fill="#BA882C" points="186.482,48.693 202.282,55.935 200.535,58.628"/><polygon fill="#C38E2C" points="187.969,58.628 197.264,63.328 200.535,58.628"/><polygon fill="#F4AF32" points="186.482,48.693 187.969,58.628 200.535,58.628"/><polygon fill="#D79B2E" points="184.159,78.796 187.969,58.628 186.482,48.693"/><polyline fill="#C58F2D" points="186.575,83.722 184.159,78.796 187.969,58.628"/><polygon fill="#A37926" points="178.496,58.628 184.159,78.796 186.482,48.693"/><polygon fill="#7E5D1D" points="171.43,57.144 178.496,58.628 186.482,48.693"/><polygon fill="#574021" points="167.895,82.421 178.496,58.628 169.013,66.624"/><polygon fill="#382B11" points="171.43,57.144 178.496,58.628 169.013,66.624"/><polygon fill="#382B11" points="167.895,82.421 178.955,80.191 178.496,58.628"/><polygon fill="#5D4417" points="178.955,80.191 184.159,78.796 178.496,58.628"/><polygon fill="#5D4417" points="187.488,67.277 195.219,69.689 187.189,72.656"/><polygon fill="#F7B235" points="204.698,69.41 195.219,69.689 187.189,72.656"/><polygon fill="#463514" points="187.189,75.265 199.122,72.656 196.721,70.888"/><polygon fill="#AD8029" points="196.721,70.888 187.189,72.656 187.189,75.265"/><polygon fill="#7C5A1D" points="208.603,70.525 199.122,72.656 196.721,70.888"/><polygon fill="#AD8029" points="204.698,69.41 208.603,70.525 196.721,70.888"/><polygon fill="#41281A" points="163.713,89.02 167.895,82.421 178.955,80.191"/><polygon fill="#7C4D24" points="178.955,80.191 169.94,87.347 163.713,89.02"/><polygon fill="#C79C63" points="178.955,80.191 184.159,78.796 169.94,87.347"/><polygon fill="#41281A" points="165.967,65.907 168.52,73.597 169.013,66.624"/><polygon fill="#172559" points="28.955,56.025 37.598,76.843 32.858,77.774"/><polygon fill="#0471B2" points="37.598,76.843 32.394,92.83 32.858,77.774"/><polygon fill="#009E94" points="35.064,91.346 145.705,61.142 143.615,57.144"/><polygon fill="#9F0E59" points="181.836,39.391 177.093,44.042 170.498,32.421"/><polygon fill="#9F0E59" points="154.141,78.796 156.313,76.196 163.713,89.02"/><polygon fill="#BD0C27" points="156.313,76.196 165.097,86.837 163.713,89.02"/><polygon fill="#C79C63" points="216.641,139.67 205.349,131.445 199.122,137.301"/><polygon fill="#905E35" points="191.955,136.324 194.252,131.445 205.349,131.445"/><polygon fill="#AF7F48" points="205.349,131.445 199.122,137.301 191.955,136.324"/><polygon fill="#AF7F48" points="202.661,120.154 194.252,131.445 205.349,131.445"/><polygon fill="#C79C63" points="194.381,110.117 195.943,129.174 202.661,120.154"/><polygon fill="#AF7F48" points="204.698,103.146 202.661,120.154 194.381,110.117"/><polygon fill="#C79C63" points="197.264,95.247 204.698,103.146 194.381,110.117"/><polygon fill="#AF7F48" points="182.489,100.08 194.381,110.117 197.264,95.247"/><polygon fill="#905E35" points="161.993,92.83 171.43,98.963 169.94,87.347"/><polygon fill="#7C4D24" points="182.489,100.08 175.516,93.481 171.43,98.963"/><polygon fill="#C79C63" points="197.264,95.247 175.516,93.481 182.489,100.08"/><polygon fill="#663A16" points="163.713,89.02 161.993,92.83 169.94,87.347"/><polygon fill="#663A16" points="171.43,98.963 169.94,87.347 175.516,93.481"/><polygon fill="#7C4D24" points="194.252,131.445 194.381,110.117 195.943,129.174"/><polygon fill="#41281A" points="179.79,101.938 194.381,110.117 182.489,100.08"/><polygon fill="#905E35" points="172.014,99.022 179.79,101.938 182.489,100.08"/><polygon fill="#36A7DA" points="194.252,92 199.801,89.765 205.999,95.247"/><polygon fill="#0471B2" points="201.165,88.557 205.999,95.247 199.801,89.765"/><polygon fill="#0471B2" points="205.999,95.247 201.165,88.557 208.603,89.485"/><polygon fill="#36A7DA" points="213.805,96.271 208.603,89.485 205.999,95.247"/><polygon fill="#093280" points="208.135,107.795 213.805,96.271 205.999,95.247"/><polygon fill="#0471B2" points="194.252,92 197.264,95.247 205.999,95.247"/><polygon fill="#36A7DA" points="204.698,103.146 205.999,95.247 197.264,95.247"/><polygon fill="#172559" points="203.908,109.742 208.135,107.795 204.698,103.146"/><polygon fill="#093280" points="208.135,107.795 205.999,95.247 204.698,103.146"/><polyline fill="#36A7DA" points="161.993,92.83 157.671,94.503 158.764,108.724 158.764,108.724"/><polygon fill="#093280" points="194.252,115.323 177.252,118.854 194.381,110.117"/><polygon fill="#0471B2" points="179.79,101.938 177.252,118.854 194.381,110.117"/><polygon fill="#093280" points="158.764,108.724 171.43,98.963 179.79,101.938"/><polygon fill="#0471B2" points="158.764,108.724 161.993,92.83 171.43,98.963"/><polygon fill="#172559" points="158.764,108.724 177.252,118.854 179.79,101.938"/><line fill="#57575A" x1="191.955" y1="136.324" x2="194.252" y2="131.445"/><path fill="#57575A" d="M189.255,139.67"/></g><polygon fill="#F7F4C6" points="37.598,76.843 171.43,57.144 143.545,52.918"/></g></svg>